G04*
G04 #@! TF.GenerationSoftware,Altium Limited,Altium Designer,22.9.1 (49)*
G04*
G04 Layer_Color=32896*
%FSLAX25Y25*%
%MOIN*%
G70*
G04*
G04 #@! TF.SameCoordinates,1257689D-38EC-466F-A697-83967F765A24*
G04*
G04*
G04 #@! TF.FilePolarity,Positive*
G04*
G01*
G75*
%ADD11C,0.00787*%
%ADD13C,0.01000*%
G36*
X-213295Y-144921D02*
X-213890D01*
Y-142436D01*
X-218334D01*
Y-141770D01*
X-213295D01*
Y-144921D01*
D02*
G37*
G36*
X-215719Y-145527D02*
X-215588Y-145532D01*
X-215336Y-145565D01*
X-215216Y-145581D01*
X-215107Y-145603D01*
X-215003Y-145631D01*
X-214905Y-145652D01*
X-214818Y-145680D01*
X-214736Y-145702D01*
X-214670Y-145723D01*
X-214610Y-145745D01*
X-214567Y-145762D01*
X-214528Y-145773D01*
X-214507Y-145778D01*
X-214501Y-145783D01*
X-214387Y-145838D01*
X-214277Y-145893D01*
X-214179Y-145953D01*
X-214086Y-146018D01*
X-213999Y-146084D01*
X-213922Y-146144D01*
X-213851Y-146209D01*
X-213786Y-146269D01*
X-213726Y-146329D01*
X-213677Y-146384D01*
X-213638Y-146433D01*
X-213600Y-146477D01*
X-213573Y-146510D01*
X-213557Y-146537D01*
X-213546Y-146553D01*
X-213540Y-146559D01*
X-213480Y-146657D01*
X-213431Y-146761D01*
X-213387Y-146870D01*
X-213349Y-146985D01*
X-213322Y-147094D01*
X-213295Y-147203D01*
X-213273Y-147312D01*
X-213256Y-147416D01*
X-213240Y-147514D01*
X-213229Y-147602D01*
X-213224Y-147684D01*
X-213218Y-147749D01*
X-213213Y-147809D01*
Y-147886D01*
X-213218Y-148033D01*
X-213229Y-148169D01*
X-213251Y-148300D01*
X-213278Y-148426D01*
X-213311Y-148546D01*
X-213349Y-148655D01*
X-213387Y-148754D01*
X-213425Y-148846D01*
X-213464Y-148934D01*
X-213502Y-149005D01*
X-213540Y-149070D01*
X-213573Y-149119D01*
X-213600Y-149163D01*
X-213622Y-149190D01*
X-213633Y-149212D01*
X-213638Y-149218D01*
X-213726Y-149316D01*
X-213819Y-149409D01*
X-213917Y-149491D01*
X-214015Y-149567D01*
X-214119Y-149638D01*
X-214228Y-149698D01*
X-214326Y-149753D01*
X-214430Y-149802D01*
X-214523Y-149846D01*
X-214610Y-149878D01*
X-214692Y-149911D01*
X-214758Y-149933D01*
X-214818Y-149955D01*
X-214856Y-149966D01*
X-214883Y-149977D01*
X-214894D01*
X-215064Y-149311D01*
X-214949Y-149283D01*
X-214840Y-149245D01*
X-214736Y-149207D01*
X-214643Y-149169D01*
X-214556Y-149125D01*
X-214479Y-149081D01*
X-214408Y-149038D01*
X-214343Y-148994D01*
X-214288Y-148950D01*
X-214239Y-148912D01*
X-214195Y-148874D01*
X-214163Y-148846D01*
X-214135Y-148819D01*
X-214119Y-148797D01*
X-214108Y-148786D01*
X-214103Y-148781D01*
X-214048Y-148705D01*
X-213999Y-148628D01*
X-213955Y-148552D01*
X-213917Y-148470D01*
X-213884Y-148388D01*
X-213857Y-148311D01*
X-213819Y-148159D01*
X-213808Y-148093D01*
X-213797Y-148027D01*
X-213791Y-147973D01*
X-213786Y-147924D01*
X-213780Y-147886D01*
Y-147831D01*
X-213786Y-147743D01*
X-213791Y-147662D01*
X-213819Y-147503D01*
X-213857Y-147356D01*
X-213901Y-147230D01*
X-213922Y-147176D01*
X-213939Y-147126D01*
X-213961Y-147083D01*
X-213977Y-147045D01*
X-213993Y-147012D01*
X-214004Y-146990D01*
X-214015Y-146979D01*
Y-146974D01*
X-214064Y-146903D01*
X-214113Y-146837D01*
X-214228Y-146717D01*
X-214343Y-146619D01*
X-214463Y-146537D01*
X-214567Y-146477D01*
X-214610Y-146449D01*
X-214654Y-146428D01*
X-214687Y-146417D01*
X-214709Y-146406D01*
X-214725Y-146395D01*
X-214731D01*
X-214916Y-146335D01*
X-215107Y-146286D01*
X-215298Y-146253D01*
X-215386Y-146242D01*
X-215473Y-146231D01*
X-215555Y-146226D01*
X-215626Y-146220D01*
X-215691Y-146215D01*
X-215746D01*
X-215795Y-146209D01*
X-215828D01*
X-215850D01*
X-215855D01*
X-216041Y-146215D01*
X-216216Y-146231D01*
X-216379Y-146258D01*
X-216456Y-146269D01*
X-216527Y-146286D01*
X-216587Y-146302D01*
X-216647Y-146313D01*
X-216696Y-146329D01*
X-216740Y-146340D01*
X-216773Y-146346D01*
X-216800Y-146357D01*
X-216816Y-146362D01*
X-216822D01*
X-216991Y-146433D01*
X-217138Y-146515D01*
X-217264Y-146602D01*
X-217319Y-146651D01*
X-217373Y-146695D01*
X-217417Y-146739D01*
X-217455Y-146777D01*
X-217493Y-146815D01*
X-217520Y-146843D01*
X-217542Y-146870D01*
X-217559Y-146892D01*
X-217564Y-146903D01*
X-217570Y-146908D01*
X-217619Y-146985D01*
X-217663Y-147061D01*
X-217701Y-147143D01*
X-217734Y-147225D01*
X-217783Y-147389D01*
X-217821Y-147547D01*
X-217832Y-147613D01*
X-217837Y-147678D01*
X-217843Y-147738D01*
X-217848Y-147787D01*
X-217854Y-147831D01*
Y-147978D01*
X-217843Y-148066D01*
X-217815Y-148230D01*
X-217772Y-148371D01*
X-217750Y-148432D01*
X-217728Y-148492D01*
X-217706Y-148546D01*
X-217684Y-148590D01*
X-217663Y-148628D01*
X-217641Y-148661D01*
X-217624Y-148688D01*
X-217613Y-148705D01*
X-217608Y-148715D01*
X-217602Y-148721D01*
X-217553Y-148781D01*
X-217499Y-148841D01*
X-217373Y-148939D01*
X-217237Y-149032D01*
X-217106Y-149103D01*
X-216985Y-149158D01*
X-216936Y-149185D01*
X-216893Y-149201D01*
X-216854Y-149218D01*
X-216822Y-149223D01*
X-216805Y-149234D01*
X-216800D01*
X-216953Y-149889D01*
X-217078Y-149846D01*
X-217198Y-149796D01*
X-217313Y-149747D01*
X-217417Y-149687D01*
X-217515Y-149633D01*
X-217602Y-149573D01*
X-217684Y-149513D01*
X-217755Y-149452D01*
X-217821Y-149392D01*
X-217875Y-149343D01*
X-217925Y-149294D01*
X-217963Y-149250D01*
X-217996Y-149218D01*
X-218017Y-149190D01*
X-218028Y-149174D01*
X-218034Y-149169D01*
X-218105Y-149070D01*
X-218159Y-148967D01*
X-218214Y-148863D01*
X-218258Y-148754D01*
X-218296Y-148644D01*
X-218329Y-148541D01*
X-218351Y-148437D01*
X-218372Y-148339D01*
X-218389Y-148246D01*
X-218400Y-148164D01*
X-218410Y-148088D01*
X-218416Y-148022D01*
X-218421Y-147967D01*
Y-147896D01*
X-218416Y-147771D01*
X-218410Y-147651D01*
X-218372Y-147427D01*
X-218351Y-147318D01*
X-218323Y-147219D01*
X-218296Y-147121D01*
X-218269Y-147034D01*
X-218241Y-146957D01*
X-218214Y-146886D01*
X-218187Y-146821D01*
X-218165Y-146772D01*
X-218143Y-146728D01*
X-218127Y-146701D01*
X-218121Y-146679D01*
X-218116Y-146673D01*
X-218056Y-146575D01*
X-217990Y-146477D01*
X-217919Y-146389D01*
X-217848Y-146308D01*
X-217772Y-146231D01*
X-217701Y-146160D01*
X-217624Y-146100D01*
X-217559Y-146040D01*
X-217488Y-145991D01*
X-217428Y-145947D01*
X-217373Y-145909D01*
X-217324Y-145876D01*
X-217280Y-145854D01*
X-217253Y-145838D01*
X-217231Y-145827D01*
X-217226Y-145822D01*
X-217116Y-145767D01*
X-216996Y-145723D01*
X-216882Y-145685D01*
X-216767Y-145647D01*
X-216532Y-145592D01*
X-216423Y-145576D01*
X-216319Y-145560D01*
X-216221Y-145549D01*
X-216134Y-145538D01*
X-216052Y-145532D01*
X-215981Y-145527D01*
X-215926Y-145521D01*
X-215882D01*
X-215861D01*
X-215850D01*
X-215719Y-145527D01*
D02*
G37*
G36*
Y-150610D02*
X-215588Y-150616D01*
X-215336Y-150648D01*
X-215216Y-150665D01*
X-215107Y-150687D01*
X-215003Y-150714D01*
X-214905Y-150736D01*
X-214818Y-150763D01*
X-214736Y-150785D01*
X-214670Y-150807D01*
X-214610Y-150828D01*
X-214567Y-150845D01*
X-214528Y-150856D01*
X-214507Y-150861D01*
X-214501Y-150867D01*
X-214387Y-150921D01*
X-214277Y-150976D01*
X-214179Y-151036D01*
X-214086Y-151101D01*
X-213999Y-151167D01*
X-213922Y-151227D01*
X-213851Y-151293D01*
X-213786Y-151353D01*
X-213726Y-151413D01*
X-213677Y-151467D01*
X-213638Y-151516D01*
X-213600Y-151560D01*
X-213573Y-151593D01*
X-213557Y-151620D01*
X-213546Y-151637D01*
X-213540Y-151642D01*
X-213480Y-151740D01*
X-213431Y-151844D01*
X-213387Y-151953D01*
X-213349Y-152068D01*
X-213322Y-152177D01*
X-213295Y-152286D01*
X-213273Y-152395D01*
X-213256Y-152499D01*
X-213240Y-152597D01*
X-213229Y-152685D01*
X-213224Y-152767D01*
X-213218Y-152832D01*
X-213213Y-152892D01*
Y-152969D01*
X-213218Y-153116D01*
X-213229Y-153253D01*
X-213251Y-153384D01*
X-213278Y-153509D01*
X-213311Y-153629D01*
X-213349Y-153739D01*
X-213387Y-153837D01*
X-213425Y-153930D01*
X-213464Y-154017D01*
X-213502Y-154088D01*
X-213540Y-154154D01*
X-213573Y-154203D01*
X-213600Y-154246D01*
X-213622Y-154274D01*
X-213633Y-154296D01*
X-213638Y-154301D01*
X-213726Y-154399D01*
X-213819Y-154492D01*
X-213917Y-154574D01*
X-214015Y-154650D01*
X-214119Y-154721D01*
X-214228Y-154781D01*
X-214326Y-154836D01*
X-214430Y-154885D01*
X-214523Y-154929D01*
X-214610Y-154962D01*
X-214692Y-154994D01*
X-214758Y-155016D01*
X-214818Y-155038D01*
X-214856Y-155049D01*
X-214883Y-155060D01*
X-214894D01*
X-215064Y-154394D01*
X-214949Y-154367D01*
X-214840Y-154328D01*
X-214736Y-154290D01*
X-214643Y-154252D01*
X-214556Y-154208D01*
X-214479Y-154165D01*
X-214408Y-154121D01*
X-214343Y-154077D01*
X-214288Y-154033D01*
X-214239Y-153995D01*
X-214195Y-153957D01*
X-214163Y-153930D01*
X-214135Y-153902D01*
X-214119Y-153881D01*
X-214108Y-153870D01*
X-214103Y-153864D01*
X-214048Y-153788D01*
X-213999Y-153711D01*
X-213955Y-153635D01*
X-213917Y-153553D01*
X-213884Y-153471D01*
X-213857Y-153395D01*
X-213819Y-153242D01*
X-213808Y-153176D01*
X-213797Y-153111D01*
X-213791Y-153056D01*
X-213786Y-153007D01*
X-213780Y-152969D01*
Y-152914D01*
X-213786Y-152827D01*
X-213791Y-152745D01*
X-213819Y-152586D01*
X-213857Y-152439D01*
X-213901Y-152313D01*
X-213922Y-152259D01*
X-213939Y-152210D01*
X-213961Y-152166D01*
X-213977Y-152128D01*
X-213993Y-152095D01*
X-214004Y-152073D01*
X-214015Y-152062D01*
Y-152057D01*
X-214064Y-151986D01*
X-214113Y-151920D01*
X-214228Y-151800D01*
X-214343Y-151702D01*
X-214463Y-151620D01*
X-214567Y-151560D01*
X-214610Y-151533D01*
X-214654Y-151511D01*
X-214687Y-151500D01*
X-214709Y-151489D01*
X-214725Y-151478D01*
X-214731D01*
X-214916Y-151418D01*
X-215107Y-151369D01*
X-215298Y-151336D01*
X-215386Y-151325D01*
X-215473Y-151314D01*
X-215555Y-151309D01*
X-215626Y-151303D01*
X-215691Y-151298D01*
X-215746D01*
X-215795Y-151293D01*
X-215828D01*
X-215850D01*
X-215855D01*
X-216041Y-151298D01*
X-216216Y-151314D01*
X-216379Y-151342D01*
X-216456Y-151353D01*
X-216527Y-151369D01*
X-216587Y-151385D01*
X-216647Y-151396D01*
X-216696Y-151413D01*
X-216740Y-151424D01*
X-216773Y-151429D01*
X-216800Y-151440D01*
X-216816Y-151445D01*
X-216822D01*
X-216991Y-151516D01*
X-217138Y-151598D01*
X-217264Y-151686D01*
X-217319Y-151735D01*
X-217373Y-151778D01*
X-217417Y-151822D01*
X-217455Y-151860D01*
X-217493Y-151899D01*
X-217520Y-151926D01*
X-217542Y-151953D01*
X-217559Y-151975D01*
X-217564Y-151986D01*
X-217570Y-151991D01*
X-217619Y-152068D01*
X-217663Y-152144D01*
X-217701Y-152226D01*
X-217734Y-152308D01*
X-217783Y-152472D01*
X-217821Y-152630D01*
X-217832Y-152696D01*
X-217837Y-152761D01*
X-217843Y-152821D01*
X-217848Y-152871D01*
X-217854Y-152914D01*
Y-153062D01*
X-217843Y-153149D01*
X-217815Y-153313D01*
X-217772Y-153455D01*
X-217750Y-153515D01*
X-217728Y-153575D01*
X-217706Y-153629D01*
X-217684Y-153673D01*
X-217663Y-153711D01*
X-217641Y-153744D01*
X-217624Y-153771D01*
X-217613Y-153788D01*
X-217608Y-153799D01*
X-217602Y-153804D01*
X-217553Y-153864D01*
X-217499Y-153924D01*
X-217373Y-154023D01*
X-217237Y-154115D01*
X-217106Y-154186D01*
X-216985Y-154241D01*
X-216936Y-154268D01*
X-216893Y-154285D01*
X-216854Y-154301D01*
X-216822Y-154306D01*
X-216805Y-154317D01*
X-216800D01*
X-216953Y-154973D01*
X-217078Y-154929D01*
X-217198Y-154880D01*
X-217313Y-154831D01*
X-217417Y-154771D01*
X-217515Y-154716D01*
X-217602Y-154656D01*
X-217684Y-154596D01*
X-217755Y-154536D01*
X-217821Y-154476D01*
X-217875Y-154427D01*
X-217925Y-154377D01*
X-217963Y-154334D01*
X-217996Y-154301D01*
X-218017Y-154274D01*
X-218028Y-154257D01*
X-218034Y-154252D01*
X-218105Y-154154D01*
X-218159Y-154050D01*
X-218214Y-153946D01*
X-218258Y-153837D01*
X-218296Y-153728D01*
X-218329Y-153624D01*
X-218351Y-153520D01*
X-218372Y-153422D01*
X-218389Y-153329D01*
X-218400Y-153247D01*
X-218410Y-153171D01*
X-218416Y-153105D01*
X-218421Y-153051D01*
Y-152980D01*
X-218416Y-152854D01*
X-218410Y-152734D01*
X-218372Y-152510D01*
X-218351Y-152401D01*
X-218323Y-152303D01*
X-218296Y-152204D01*
X-218269Y-152117D01*
X-218241Y-152041D01*
X-218214Y-151970D01*
X-218187Y-151904D01*
X-218165Y-151855D01*
X-218143Y-151811D01*
X-218127Y-151784D01*
X-218121Y-151762D01*
X-218116Y-151757D01*
X-218056Y-151658D01*
X-217990Y-151560D01*
X-217919Y-151473D01*
X-217848Y-151391D01*
X-217772Y-151314D01*
X-217701Y-151243D01*
X-217624Y-151183D01*
X-217559Y-151123D01*
X-217488Y-151074D01*
X-217428Y-151030D01*
X-217373Y-150992D01*
X-217324Y-150960D01*
X-217280Y-150938D01*
X-217253Y-150921D01*
X-217231Y-150910D01*
X-217226Y-150905D01*
X-217116Y-150850D01*
X-216996Y-150807D01*
X-216882Y-150768D01*
X-216767Y-150730D01*
X-216532Y-150675D01*
X-216423Y-150659D01*
X-216319Y-150643D01*
X-216221Y-150632D01*
X-216134Y-150621D01*
X-216052Y-150616D01*
X-215981Y-150610D01*
X-215926Y-150605D01*
X-215882D01*
X-215861D01*
X-215850D01*
X-215719Y-150610D01*
D02*
G37*
G36*
X-214807Y-157462D02*
X-215429D01*
Y-155557D01*
X-214807D01*
Y-157462D01*
D02*
G37*
G36*
X-214632Y-157970D02*
X-214517Y-157986D01*
X-214403Y-158008D01*
X-214299Y-158036D01*
X-214206Y-158068D01*
X-214113Y-158107D01*
X-214032Y-158150D01*
X-213955Y-158194D01*
X-213884Y-158232D01*
X-213824Y-158276D01*
X-213775Y-158314D01*
X-213731Y-158347D01*
X-213693Y-158374D01*
X-213671Y-158396D01*
X-213655Y-158412D01*
X-213649Y-158418D01*
X-213573Y-158505D01*
X-213507Y-158604D01*
X-213447Y-158702D01*
X-213398Y-158800D01*
X-213355Y-158904D01*
X-213322Y-159002D01*
X-213289Y-159100D01*
X-213267Y-159193D01*
X-213251Y-159281D01*
X-213234Y-159362D01*
X-213224Y-159439D01*
X-213218Y-159499D01*
Y-159554D01*
X-213213Y-159592D01*
Y-159625D01*
X-213218Y-159761D01*
X-213229Y-159892D01*
X-213251Y-160012D01*
X-213284Y-160127D01*
X-213316Y-160231D01*
X-213349Y-160329D01*
X-213393Y-160422D01*
X-213431Y-160503D01*
X-213469Y-160574D01*
X-213513Y-160640D01*
X-213546Y-160695D01*
X-213584Y-160744D01*
X-213611Y-160776D01*
X-213633Y-160804D01*
X-213644Y-160820D01*
X-213649Y-160826D01*
X-213731Y-160908D01*
X-213824Y-160979D01*
X-213912Y-161039D01*
X-214004Y-161093D01*
X-214097Y-161137D01*
X-214184Y-161175D01*
X-214272Y-161202D01*
X-214359Y-161230D01*
X-214436Y-161246D01*
X-214507Y-161263D01*
X-214572Y-161268D01*
X-214627Y-161279D01*
X-214676D01*
X-214709Y-161284D01*
X-214731D01*
X-214736D01*
X-214823D01*
X-214905Y-161273D01*
X-215058Y-161246D01*
X-215195Y-161208D01*
X-215309Y-161164D01*
X-215358Y-161137D01*
X-215402Y-161115D01*
X-215440Y-161093D01*
X-215473Y-161077D01*
X-215500Y-161061D01*
X-215517Y-161049D01*
X-215528Y-161044D01*
X-215533Y-161039D01*
X-215653Y-160940D01*
X-215752Y-160826D01*
X-215839Y-160711D01*
X-215904Y-160596D01*
X-215959Y-160493D01*
X-215981Y-160449D01*
X-215997Y-160411D01*
X-216008Y-160378D01*
X-216019Y-160356D01*
X-216024Y-160340D01*
Y-160334D01*
X-216085Y-160465D01*
X-216145Y-160580D01*
X-216216Y-160673D01*
X-216276Y-160755D01*
X-216336Y-160815D01*
X-216379Y-160858D01*
X-216412Y-160880D01*
X-216418Y-160891D01*
X-216423D01*
X-216527Y-160951D01*
X-216631Y-161000D01*
X-216734Y-161033D01*
X-216827Y-161055D01*
X-216909Y-161066D01*
X-216947Y-161071D01*
X-216974Y-161077D01*
X-217002D01*
X-217018D01*
X-217029D01*
X-217035D01*
X-217133Y-161071D01*
X-217231Y-161061D01*
X-217324Y-161039D01*
X-217411Y-161011D01*
X-217493Y-160984D01*
X-217570Y-160951D01*
X-217641Y-160913D01*
X-217706Y-160875D01*
X-217761Y-160837D01*
X-217815Y-160798D01*
X-217859Y-160766D01*
X-217897Y-160738D01*
X-217925Y-160711D01*
X-217946Y-160689D01*
X-217957Y-160678D01*
X-217963Y-160673D01*
X-218034Y-160596D01*
X-218088Y-160509D01*
X-218143Y-160427D01*
X-218187Y-160334D01*
X-218225Y-160247D01*
X-218258Y-160160D01*
X-218280Y-160072D01*
X-218301Y-159990D01*
X-218318Y-159908D01*
X-218329Y-159837D01*
X-218339Y-159772D01*
X-218345Y-159717D01*
X-218351Y-159674D01*
Y-159608D01*
X-218345Y-159488D01*
X-218334Y-159373D01*
X-218318Y-159270D01*
X-218290Y-159166D01*
X-218263Y-159073D01*
X-218230Y-158991D01*
X-218198Y-158909D01*
X-218165Y-158838D01*
X-218127Y-158773D01*
X-218094Y-158718D01*
X-218061Y-158669D01*
X-218034Y-158631D01*
X-218006Y-158598D01*
X-217990Y-158576D01*
X-217979Y-158565D01*
X-217974Y-158560D01*
X-217903Y-158489D01*
X-217826Y-158429D01*
X-217750Y-158380D01*
X-217673Y-158331D01*
X-217592Y-158292D01*
X-217515Y-158265D01*
X-217444Y-158238D01*
X-217373Y-158216D01*
X-217302Y-158199D01*
X-217242Y-158188D01*
X-217188Y-158178D01*
X-217144Y-158172D01*
X-217106D01*
X-217073Y-158167D01*
X-217056D01*
X-217051D01*
X-216920Y-158172D01*
X-216800Y-158194D01*
X-216691Y-158227D01*
X-216598Y-158259D01*
X-216527Y-158292D01*
X-216472Y-158325D01*
X-216450Y-158336D01*
X-216434Y-158347D01*
X-216428Y-158352D01*
X-216423D01*
X-216330Y-158429D01*
X-216254Y-158522D01*
X-216183Y-158614D01*
X-216128Y-158707D01*
X-216085Y-158789D01*
X-216063Y-158827D01*
X-216052Y-158860D01*
X-216041Y-158882D01*
X-216030Y-158904D01*
X-216024Y-158915D01*
Y-158920D01*
X-215970Y-158756D01*
X-215904Y-158614D01*
X-215828Y-158494D01*
X-215752Y-158396D01*
X-215719Y-158352D01*
X-215681Y-158314D01*
X-215653Y-158281D01*
X-215626Y-158259D01*
X-215604Y-158238D01*
X-215588Y-158221D01*
X-215577Y-158216D01*
X-215571Y-158210D01*
X-215506Y-158167D01*
X-215440Y-158128D01*
X-215304Y-158068D01*
X-215167Y-158025D01*
X-215042Y-157997D01*
X-214982Y-157986D01*
X-214927Y-157976D01*
X-214878Y-157970D01*
X-214834D01*
X-214802Y-157965D01*
X-214774D01*
X-214758D01*
X-214752D01*
X-214632Y-157970D01*
D02*
G37*
G36*
X-214943Y-163982D02*
X-214774Y-163993D01*
X-214610Y-164009D01*
X-214446Y-164031D01*
X-214294Y-164058D01*
X-214146Y-164085D01*
X-214004Y-164118D01*
X-213873Y-164151D01*
X-213759Y-164184D01*
X-213649Y-164216D01*
X-213557Y-164244D01*
X-213475Y-164271D01*
X-213415Y-164293D01*
X-213366Y-164309D01*
X-213338Y-164320D01*
X-213327Y-164325D01*
X-213169Y-164397D01*
X-213016Y-164468D01*
X-212869Y-164539D01*
X-212727Y-164610D01*
X-212596Y-164686D01*
X-212470Y-164757D01*
X-212355Y-164828D01*
X-212246Y-164893D01*
X-212153Y-164953D01*
X-212066Y-165014D01*
X-211990Y-165063D01*
X-211929Y-165106D01*
X-211880Y-165145D01*
X-211842Y-165172D01*
X-211820Y-165188D01*
X-211815Y-165194D01*
Y-165636D01*
X-211968Y-165543D01*
X-212121Y-165456D01*
X-212274Y-165374D01*
X-212426Y-165297D01*
X-212732Y-165161D01*
X-213021Y-165041D01*
X-213305Y-164943D01*
X-213578Y-164861D01*
X-213841Y-164790D01*
X-214081Y-164741D01*
X-214305Y-164697D01*
X-214403Y-164680D01*
X-214501Y-164664D01*
X-214594Y-164653D01*
X-214681Y-164642D01*
X-214758Y-164631D01*
X-214829Y-164626D01*
X-214894Y-164620D01*
X-214949Y-164615D01*
X-214998D01*
X-215036Y-164610D01*
X-215069D01*
X-215096D01*
X-215107D01*
X-215113D01*
X-215353Y-164615D01*
X-215588Y-164631D01*
X-215702Y-164642D01*
X-215806Y-164659D01*
X-215910Y-164670D01*
X-216003Y-164686D01*
X-216090Y-164697D01*
X-216166Y-164708D01*
X-216237Y-164724D01*
X-216298Y-164735D01*
X-216341Y-164746D01*
X-216379Y-164751D01*
X-216401Y-164757D01*
X-216407D01*
X-216598Y-164806D01*
X-216778Y-164861D01*
X-216947Y-164915D01*
X-217024Y-164943D01*
X-217095Y-164964D01*
X-217160Y-164992D01*
X-217220Y-165014D01*
X-217269Y-165035D01*
X-217313Y-165052D01*
X-217346Y-165063D01*
X-217373Y-165074D01*
X-217389Y-165085D01*
X-217395D01*
X-217455Y-165112D01*
X-217526Y-165145D01*
X-217602Y-165183D01*
X-217684Y-165226D01*
X-217854Y-165319D01*
X-218023Y-165412D01*
X-218099Y-165456D01*
X-218176Y-165494D01*
X-218241Y-165532D01*
X-218301Y-165570D01*
X-218351Y-165598D01*
X-218383Y-165620D01*
X-218410Y-165630D01*
X-218416Y-165636D01*
Y-165194D01*
X-218252Y-165074D01*
X-218094Y-164964D01*
X-217935Y-164866D01*
X-217783Y-164768D01*
X-217630Y-164686D01*
X-217488Y-164604D01*
X-217351Y-164533D01*
X-217226Y-164473D01*
X-217106Y-164418D01*
X-217002Y-164369D01*
X-216909Y-164331D01*
X-216833Y-164298D01*
X-216767Y-164271D01*
X-216718Y-164255D01*
X-216691Y-164244D01*
X-216680Y-164238D01*
X-216538Y-164195D01*
X-216396Y-164151D01*
X-216123Y-164085D01*
X-215986Y-164064D01*
X-215855Y-164042D01*
X-215735Y-164025D01*
X-215620Y-164009D01*
X-215511Y-163998D01*
X-215413Y-163993D01*
X-215331Y-163982D01*
X-215255D01*
X-215200Y-163976D01*
X-215156D01*
X-215129D01*
X-215118D01*
X-214943Y-163982D01*
D02*
G37*
G36*
X-213295Y-166591D02*
X-214818Y-167137D01*
Y-169256D01*
X-213295Y-169840D01*
Y-170599D01*
X-218334Y-168535D01*
Y-167815D01*
X-213295Y-165887D01*
Y-166591D01*
D02*
G37*
G36*
Y-171653D02*
X-218334D01*
Y-171036D01*
X-213295D01*
Y-171653D01*
D02*
G37*
G36*
Y-173236D02*
X-216947D01*
Y-172619D01*
X-213295D01*
Y-173236D01*
D02*
G37*
G36*
X-217630D02*
X-218334D01*
Y-172619D01*
X-217630D01*
Y-173236D01*
D02*
G37*
G36*
X-213295Y-178030D02*
X-213890D01*
Y-174934D01*
X-215604D01*
Y-177724D01*
X-216199D01*
Y-174934D01*
X-217739D01*
Y-177916D01*
X-218334D01*
Y-174268D01*
X-213295D01*
Y-178030D01*
D02*
G37*
G36*
Y-179204D02*
X-214698Y-180176D01*
X-214419Y-180356D01*
X-213295Y-181110D01*
Y-181863D01*
X-215184Y-180536D01*
X-216947Y-181770D01*
Y-181028D01*
X-216085Y-180416D01*
X-215948Y-180318D01*
X-215877Y-180269D01*
X-215817Y-180225D01*
X-215762Y-180187D01*
X-215719Y-180159D01*
X-215691Y-180138D01*
X-215681Y-180132D01*
X-215741Y-180094D01*
X-215811Y-180056D01*
X-215877Y-180012D01*
X-215937Y-179974D01*
X-215997Y-179936D01*
X-216041Y-179908D01*
X-216068Y-179886D01*
X-216079Y-179881D01*
X-216947Y-179302D01*
Y-178549D01*
X-215184Y-179783D01*
X-213295Y-178451D01*
Y-179204D01*
D02*
G37*
G36*
X-211897Y-183010D02*
X-213671D01*
X-213600Y-183070D01*
X-213535Y-183135D01*
X-213475Y-183201D01*
X-213431Y-183266D01*
X-213393Y-183321D01*
X-213360Y-183370D01*
X-213344Y-183397D01*
X-213338Y-183408D01*
X-213295Y-183501D01*
X-213267Y-183599D01*
X-213245Y-183692D01*
X-213229Y-183780D01*
X-213218Y-183856D01*
X-213213Y-183911D01*
Y-183965D01*
X-213218Y-184047D01*
X-213224Y-184124D01*
X-213251Y-184271D01*
X-213289Y-184407D01*
X-213333Y-184528D01*
X-213355Y-184582D01*
X-213371Y-184631D01*
X-213393Y-184669D01*
X-213409Y-184708D01*
X-213425Y-184735D01*
X-213437Y-184757D01*
X-213447Y-184768D01*
Y-184773D01*
X-213546Y-184910D01*
X-213655Y-185024D01*
X-213770Y-185128D01*
X-213884Y-185210D01*
X-213983Y-185276D01*
X-214026Y-185297D01*
X-214064Y-185319D01*
X-214092Y-185336D01*
X-214113Y-185346D01*
X-214130Y-185357D01*
X-214135D01*
X-214310Y-185423D01*
X-214485Y-185472D01*
X-214654Y-185510D01*
X-214807Y-185532D01*
X-214878Y-185543D01*
X-214943Y-185549D01*
X-215003Y-185554D01*
X-215053D01*
X-215091Y-185559D01*
X-215118D01*
X-215140D01*
X-215145D01*
X-215336Y-185554D01*
X-215517Y-185532D01*
X-215681Y-185499D01*
X-215752Y-185483D01*
X-215823Y-185467D01*
X-215882Y-185450D01*
X-215943Y-185434D01*
X-215992Y-185417D01*
X-216030Y-185401D01*
X-216063Y-185390D01*
X-216085Y-185379D01*
X-216101Y-185374D01*
X-216106D01*
X-216259Y-185297D01*
X-216396Y-185215D01*
X-216510Y-185123D01*
X-216609Y-185035D01*
X-216685Y-184959D01*
X-216740Y-184893D01*
X-216756Y-184866D01*
X-216773Y-184850D01*
X-216783Y-184839D01*
Y-184833D01*
X-216827Y-184768D01*
X-216865Y-184697D01*
X-216925Y-184555D01*
X-216969Y-184418D01*
X-216996Y-184287D01*
X-217007Y-184227D01*
X-217018Y-184178D01*
X-217024Y-184129D01*
Y-184085D01*
X-217029Y-184053D01*
Y-184009D01*
X-217024Y-183883D01*
X-217007Y-183763D01*
X-216985Y-183659D01*
X-216958Y-183572D01*
X-216931Y-183501D01*
X-216909Y-183447D01*
X-216893Y-183414D01*
X-216887Y-183408D01*
Y-183403D01*
X-216827Y-183310D01*
X-216762Y-183228D01*
X-216691Y-183152D01*
X-216625Y-183086D01*
X-216565Y-183031D01*
X-216510Y-182988D01*
X-216478Y-182966D01*
X-216472Y-182955D01*
X-216947D01*
Y-182393D01*
X-211897D01*
Y-183010D01*
D02*
G37*
G36*
X-213295Y-186919D02*
X-215206D01*
X-215347Y-186925D01*
X-215484Y-186935D01*
X-215604Y-186952D01*
X-215713Y-186968D01*
X-215801Y-186985D01*
X-215839Y-186995D01*
X-215872Y-187001D01*
X-215893Y-187006D01*
X-215910Y-187012D01*
X-215921Y-187017D01*
X-215926D01*
X-216003Y-187050D01*
X-216074Y-187083D01*
X-216128Y-187121D01*
X-216177Y-187159D01*
X-216216Y-187192D01*
X-216243Y-187219D01*
X-216259Y-187241D01*
X-216265Y-187247D01*
X-216308Y-187312D01*
X-216336Y-187372D01*
X-216357Y-187432D01*
X-216374Y-187492D01*
X-216385Y-187541D01*
X-216390Y-187580D01*
Y-187612D01*
X-216385Y-187700D01*
X-216369Y-187782D01*
X-216347Y-187858D01*
X-216325Y-187924D01*
X-216298Y-187984D01*
X-216276Y-188027D01*
X-216259Y-188055D01*
X-216254Y-188066D01*
X-216827Y-188284D01*
X-216893Y-188164D01*
X-216942Y-188044D01*
X-216980Y-187940D01*
X-217002Y-187842D01*
X-217018Y-187760D01*
X-217024Y-187727D01*
Y-187700D01*
X-217029Y-187678D01*
Y-187645D01*
X-217024Y-187569D01*
X-217007Y-187492D01*
X-216991Y-187427D01*
X-216969Y-187367D01*
X-216942Y-187323D01*
X-216925Y-187285D01*
X-216909Y-187263D01*
X-216903Y-187252D01*
X-216876Y-187219D01*
X-216844Y-187181D01*
X-216773Y-187116D01*
X-216685Y-187050D01*
X-216598Y-186990D01*
X-216521Y-186935D01*
X-216450Y-186897D01*
X-216428Y-186881D01*
X-216407Y-186870D01*
X-216396Y-186859D01*
X-216947D01*
Y-186302D01*
X-213295D01*
Y-186919D01*
D02*
G37*
G36*
X-214922Y-188448D02*
X-214769Y-188464D01*
X-214627Y-188486D01*
X-214496Y-188513D01*
X-214370Y-188552D01*
X-214255Y-188590D01*
X-214152Y-188634D01*
X-214059Y-188677D01*
X-213977Y-188715D01*
X-213906Y-188759D01*
X-213846Y-188797D01*
X-213797Y-188836D01*
X-213753Y-188863D01*
X-213726Y-188885D01*
X-213709Y-188901D01*
X-213704Y-188907D01*
X-213617Y-188999D01*
X-213540Y-189098D01*
X-213475Y-189196D01*
X-213420Y-189305D01*
X-213371Y-189409D01*
X-213333Y-189518D01*
X-213300Y-189622D01*
X-213273Y-189720D01*
X-213256Y-189813D01*
X-213240Y-189900D01*
X-213229Y-189977D01*
X-213218Y-190048D01*
Y-190102D01*
X-213213Y-190146D01*
Y-190179D01*
X-213218Y-190293D01*
X-213224Y-190408D01*
X-213240Y-190512D01*
X-213262Y-190610D01*
X-213284Y-190703D01*
X-213311Y-190785D01*
X-213338Y-190867D01*
X-213366Y-190938D01*
X-213393Y-191003D01*
X-213420Y-191058D01*
X-213447Y-191107D01*
X-213469Y-191150D01*
X-213491Y-191178D01*
X-213507Y-191205D01*
X-213513Y-191216D01*
X-213518Y-191221D01*
X-213578Y-191298D01*
X-213644Y-191364D01*
X-213715Y-191423D01*
X-213786Y-191484D01*
X-213933Y-191582D01*
X-214070Y-191658D01*
X-214135Y-191686D01*
X-214195Y-191713D01*
X-214250Y-191735D01*
X-214299Y-191751D01*
X-214337Y-191768D01*
X-214365Y-191778D01*
X-214387Y-191784D01*
X-214392D01*
X-214474Y-191140D01*
X-214337Y-191085D01*
X-214217Y-191019D01*
X-214113Y-190954D01*
X-214037Y-190894D01*
X-213971Y-190839D01*
X-213928Y-190796D01*
X-213906Y-190768D01*
X-213895Y-190763D01*
Y-190757D01*
X-213835Y-190665D01*
X-213797Y-190566D01*
X-213764Y-190468D01*
X-213742Y-190381D01*
X-213731Y-190299D01*
X-213726Y-190233D01*
X-213720Y-190211D01*
Y-190179D01*
X-213726Y-190097D01*
X-213737Y-190015D01*
X-213748Y-189938D01*
X-213770Y-189867D01*
X-213819Y-189736D01*
X-213879Y-189627D01*
X-213906Y-189578D01*
X-213939Y-189534D01*
X-213966Y-189502D01*
X-213988Y-189469D01*
X-214010Y-189447D01*
X-214026Y-189431D01*
X-214032Y-189420D01*
X-214037Y-189414D01*
X-214103Y-189360D01*
X-214168Y-189311D01*
X-214245Y-189272D01*
X-214316Y-189234D01*
X-214474Y-189174D01*
X-214621Y-189130D01*
X-214692Y-189114D01*
X-214758Y-189103D01*
X-214812Y-189092D01*
X-214867Y-189087D01*
X-214905Y-189081D01*
X-214938Y-189076D01*
X-214960D01*
X-214965D01*
Y-191800D01*
X-215036Y-191806D01*
X-215091D01*
X-215118D01*
X-215129D01*
X-215293Y-191800D01*
X-215446Y-191784D01*
X-215593Y-191762D01*
X-215730Y-191735D01*
X-215855Y-191697D01*
X-215970Y-191658D01*
X-216074Y-191615D01*
X-216166Y-191576D01*
X-216248Y-191533D01*
X-216325Y-191489D01*
X-216385Y-191451D01*
X-216434Y-191413D01*
X-216478Y-191385D01*
X-216505Y-191364D01*
X-216521Y-191347D01*
X-216527Y-191342D01*
X-216614Y-191254D01*
X-216691Y-191156D01*
X-216762Y-191058D01*
X-216816Y-190959D01*
X-216865Y-190861D01*
X-216909Y-190757D01*
X-216942Y-190665D01*
X-216969Y-190572D01*
X-216985Y-190484D01*
X-217002Y-190402D01*
X-217013Y-190331D01*
X-217024Y-190266D01*
Y-190217D01*
X-217029Y-190179D01*
Y-190146D01*
X-217024Y-190009D01*
X-217007Y-189873D01*
X-216980Y-189753D01*
X-216947Y-189633D01*
X-216909Y-189523D01*
X-216865Y-189420D01*
X-216822Y-189327D01*
X-216773Y-189245D01*
X-216723Y-189169D01*
X-216680Y-189103D01*
X-216636Y-189043D01*
X-216598Y-188999D01*
X-216565Y-188961D01*
X-216538Y-188934D01*
X-216521Y-188917D01*
X-216516Y-188912D01*
X-216418Y-188830D01*
X-216308Y-188759D01*
X-216194Y-188693D01*
X-216079Y-188639D01*
X-215959Y-188595D01*
X-215839Y-188557D01*
X-215724Y-188524D01*
X-215610Y-188502D01*
X-215506Y-188481D01*
X-215402Y-188470D01*
X-215315Y-188459D01*
X-215238Y-188448D01*
X-215173D01*
X-215124Y-188442D01*
X-215096D01*
X-215085D01*
X-214922Y-188448D01*
D02*
G37*
G36*
X-214277Y-192341D02*
X-214174Y-192368D01*
X-214081Y-192401D01*
X-213999Y-192434D01*
X-213917Y-192472D01*
X-213846Y-192510D01*
X-213780Y-192548D01*
X-213720Y-192592D01*
X-213671Y-192630D01*
X-213628Y-192668D01*
X-213589Y-192701D01*
X-213557Y-192728D01*
X-213535Y-192756D01*
X-213518Y-192772D01*
X-213507Y-192783D01*
X-213502Y-192789D01*
X-213453Y-192865D01*
X-213409Y-192941D01*
X-213366Y-193029D01*
X-213333Y-193116D01*
X-213284Y-193302D01*
X-213251Y-193476D01*
X-213234Y-193558D01*
X-213229Y-193635D01*
X-213224Y-193706D01*
X-213218Y-193760D01*
X-213213Y-193809D01*
Y-193880D01*
X-213218Y-194039D01*
X-213234Y-194181D01*
X-213262Y-194312D01*
X-213289Y-194427D01*
X-213300Y-194476D01*
X-213311Y-194519D01*
X-213327Y-194558D01*
X-213338Y-194590D01*
X-213349Y-194618D01*
X-213355Y-194634D01*
X-213360Y-194645D01*
Y-194650D01*
X-213420Y-194771D01*
X-213486Y-194874D01*
X-213557Y-194962D01*
X-213628Y-195038D01*
X-213688Y-195093D01*
X-213737Y-195136D01*
X-213770Y-195158D01*
X-213775Y-195169D01*
X-213780D01*
X-213884Y-195229D01*
X-213988Y-195278D01*
X-214086Y-195311D01*
X-214174Y-195333D01*
X-214250Y-195344D01*
X-214310Y-195355D01*
X-214332D01*
X-214348D01*
X-214359D01*
X-214365D01*
X-214479Y-195349D01*
X-214583Y-195333D01*
X-214670Y-195306D01*
X-214747Y-195278D01*
X-214812Y-195251D01*
X-214856Y-195224D01*
X-214883Y-195207D01*
X-214894Y-195202D01*
X-214971Y-195142D01*
X-215036Y-195076D01*
X-215091Y-195005D01*
X-215135Y-194940D01*
X-215173Y-194885D01*
X-215195Y-194836D01*
X-215211Y-194803D01*
X-215216Y-194798D01*
Y-194792D01*
X-215238Y-194738D01*
X-215260Y-194678D01*
X-215287Y-194612D01*
X-215309Y-194541D01*
X-215358Y-194394D01*
X-215402Y-194241D01*
X-215424Y-194170D01*
X-215446Y-194099D01*
X-215462Y-194039D01*
X-215478Y-193990D01*
X-215489Y-193941D01*
X-215500Y-193908D01*
X-215506Y-193886D01*
Y-193880D01*
X-215528Y-193799D01*
X-215549Y-193728D01*
X-215566Y-193662D01*
X-215582Y-193602D01*
X-215599Y-193553D01*
X-215610Y-193509D01*
X-215620Y-193471D01*
X-215631Y-193438D01*
X-215648Y-193389D01*
X-215659Y-193356D01*
X-215664Y-193340D01*
Y-193334D01*
X-215691Y-193280D01*
X-215719Y-193231D01*
X-215746Y-193187D01*
X-215773Y-193154D01*
X-215795Y-193127D01*
X-215811Y-193111D01*
X-215823Y-193100D01*
X-215828Y-193094D01*
X-215866Y-193072D01*
X-215904Y-193056D01*
X-215975Y-193034D01*
X-216003Y-193029D01*
X-216024Y-193023D01*
X-216041D01*
X-216046D01*
X-216117Y-193029D01*
X-216177Y-193051D01*
X-216237Y-193078D01*
X-216287Y-193116D01*
X-216325Y-193149D01*
X-216352Y-193176D01*
X-216374Y-193198D01*
X-216379Y-193203D01*
X-216407Y-193242D01*
X-216428Y-193280D01*
X-216461Y-193373D01*
X-216489Y-193476D01*
X-216505Y-193575D01*
X-216516Y-193668D01*
Y-193706D01*
X-216521Y-193739D01*
Y-193809D01*
X-216516Y-193941D01*
X-216494Y-194050D01*
X-216472Y-194148D01*
X-216439Y-194230D01*
X-216412Y-194290D01*
X-216385Y-194334D01*
X-216363Y-194361D01*
X-216357Y-194372D01*
X-216292Y-194437D01*
X-216221Y-194492D01*
X-216150Y-194536D01*
X-216079Y-194569D01*
X-216019Y-194590D01*
X-215964Y-194601D01*
X-215932Y-194612D01*
X-215926D01*
X-215921D01*
X-216003Y-195218D01*
X-216128Y-195191D01*
X-216237Y-195158D01*
X-216336Y-195125D01*
X-216418Y-195087D01*
X-216478Y-195054D01*
X-216527Y-195027D01*
X-216554Y-195005D01*
X-216565Y-195000D01*
X-216641Y-194934D01*
X-216707Y-194858D01*
X-216767Y-194781D01*
X-216816Y-194705D01*
X-216854Y-194629D01*
X-216882Y-194574D01*
X-216893Y-194552D01*
X-216898Y-194536D01*
X-216903Y-194525D01*
Y-194519D01*
X-216947Y-194394D01*
X-216974Y-194268D01*
X-216996Y-194137D01*
X-217013Y-194023D01*
X-217024Y-193919D01*
Y-193875D01*
X-217029Y-193837D01*
Y-193766D01*
X-217024Y-193662D01*
X-217018Y-193564D01*
X-217007Y-193471D01*
X-216991Y-193395D01*
X-216974Y-193324D01*
X-216964Y-193274D01*
X-216958Y-193242D01*
X-216953Y-193236D01*
Y-193231D01*
X-216925Y-193143D01*
X-216893Y-193061D01*
X-216860Y-192996D01*
X-216833Y-192941D01*
X-216811Y-192898D01*
X-216789Y-192865D01*
X-216778Y-192843D01*
X-216773Y-192838D01*
X-216718Y-192767D01*
X-216663Y-192707D01*
X-216603Y-192652D01*
X-216549Y-192614D01*
X-216499Y-192576D01*
X-216461Y-192554D01*
X-216439Y-192537D01*
X-216428Y-192532D01*
X-216352Y-192494D01*
X-216270Y-192466D01*
X-216194Y-192450D01*
X-216123Y-192439D01*
X-216063Y-192428D01*
X-216019Y-192423D01*
X-215986D01*
X-215981D01*
X-215975D01*
X-215877Y-192428D01*
X-215784Y-192445D01*
X-215702Y-192466D01*
X-215631Y-192488D01*
X-215571Y-192510D01*
X-215522Y-192532D01*
X-215495Y-192548D01*
X-215484Y-192554D01*
X-215407Y-192608D01*
X-215336Y-192674D01*
X-215282Y-192739D01*
X-215233Y-192805D01*
X-215189Y-192865D01*
X-215162Y-192909D01*
X-215145Y-192941D01*
X-215140Y-192947D01*
Y-192952D01*
X-215118Y-193007D01*
X-215091Y-193072D01*
X-215064Y-193138D01*
X-215042Y-193214D01*
X-214992Y-193373D01*
X-214943Y-193526D01*
X-214922Y-193602D01*
X-214900Y-193673D01*
X-214883Y-193739D01*
X-214867Y-193793D01*
X-214856Y-193837D01*
X-214845Y-193875D01*
X-214840Y-193897D01*
Y-193902D01*
X-214818Y-193990D01*
X-214796Y-194072D01*
X-214774Y-194148D01*
X-214752Y-194214D01*
X-214736Y-194274D01*
X-214720Y-194323D01*
X-214703Y-194367D01*
X-214687Y-194410D01*
X-214676Y-194443D01*
X-214665Y-194470D01*
X-214649Y-194508D01*
X-214638Y-194530D01*
X-214632Y-194536D01*
X-214583Y-194596D01*
X-214528Y-194645D01*
X-214474Y-194678D01*
X-214419Y-194700D01*
X-214376Y-194710D01*
X-214332Y-194721D01*
X-214310D01*
X-214299D01*
X-214212Y-194710D01*
X-214135Y-194689D01*
X-214064Y-194656D01*
X-214004Y-194618D01*
X-213955Y-194579D01*
X-213922Y-194547D01*
X-213895Y-194525D01*
X-213890Y-194514D01*
X-213835Y-194427D01*
X-213791Y-194328D01*
X-213764Y-194219D01*
X-213742Y-194115D01*
X-213731Y-194023D01*
X-213726Y-193984D01*
Y-193946D01*
X-213720Y-193919D01*
Y-193875D01*
X-213731Y-193728D01*
X-213753Y-193597D01*
X-213780Y-193482D01*
X-213819Y-193389D01*
X-213851Y-193313D01*
X-213884Y-193258D01*
X-213906Y-193225D01*
X-213912Y-193220D01*
Y-193214D01*
X-213993Y-193132D01*
X-214081Y-193072D01*
X-214179Y-193023D01*
X-214272Y-192985D01*
X-214354Y-192958D01*
X-214387Y-192947D01*
X-214419Y-192941D01*
X-214446Y-192936D01*
X-214463D01*
X-214474Y-192930D01*
X-214479D01*
X-214381Y-192319D01*
X-214277Y-192341D01*
D02*
G37*
G36*
Y-195862D02*
X-214174Y-195890D01*
X-214081Y-195923D01*
X-213999Y-195955D01*
X-213917Y-195993D01*
X-213846Y-196032D01*
X-213780Y-196070D01*
X-213720Y-196114D01*
X-213671Y-196152D01*
X-213628Y-196190D01*
X-213589Y-196223D01*
X-213557Y-196250D01*
X-213535Y-196277D01*
X-213518Y-196294D01*
X-213507Y-196305D01*
X-213502Y-196310D01*
X-213453Y-196387D01*
X-213409Y-196463D01*
X-213366Y-196551D01*
X-213333Y-196638D01*
X-213284Y-196824D01*
X-213251Y-196998D01*
X-213234Y-197080D01*
X-213229Y-197157D01*
X-213224Y-197228D01*
X-213218Y-197282D01*
X-213213Y-197331D01*
Y-197402D01*
X-213218Y-197561D01*
X-213234Y-197703D01*
X-213262Y-197834D01*
X-213289Y-197948D01*
X-213300Y-197997D01*
X-213311Y-198041D01*
X-213327Y-198079D01*
X-213338Y-198112D01*
X-213349Y-198139D01*
X-213355Y-198156D01*
X-213360Y-198167D01*
Y-198172D01*
X-213420Y-198292D01*
X-213486Y-198396D01*
X-213557Y-198483D01*
X-213628Y-198560D01*
X-213688Y-198614D01*
X-213737Y-198658D01*
X-213770Y-198680D01*
X-213775Y-198691D01*
X-213780D01*
X-213884Y-198751D01*
X-213988Y-198800D01*
X-214086Y-198833D01*
X-214174Y-198855D01*
X-214250Y-198865D01*
X-214310Y-198876D01*
X-214332D01*
X-214348D01*
X-214359D01*
X-214365D01*
X-214479Y-198871D01*
X-214583Y-198855D01*
X-214670Y-198827D01*
X-214747Y-198800D01*
X-214812Y-198773D01*
X-214856Y-198745D01*
X-214883Y-198729D01*
X-214894Y-198723D01*
X-214971Y-198663D01*
X-215036Y-198598D01*
X-215091Y-198527D01*
X-215135Y-198461D01*
X-215173Y-198407D01*
X-215195Y-198358D01*
X-215211Y-198325D01*
X-215216Y-198319D01*
Y-198314D01*
X-215238Y-198259D01*
X-215260Y-198199D01*
X-215287Y-198134D01*
X-215309Y-198063D01*
X-215358Y-197915D01*
X-215402Y-197763D01*
X-215424Y-197692D01*
X-215446Y-197621D01*
X-215462Y-197561D01*
X-215478Y-197511D01*
X-215489Y-197462D01*
X-215500Y-197430D01*
X-215506Y-197408D01*
Y-197402D01*
X-215528Y-197320D01*
X-215549Y-197249D01*
X-215566Y-197184D01*
X-215582Y-197124D01*
X-215599Y-197075D01*
X-215610Y-197031D01*
X-215620Y-196993D01*
X-215631Y-196960D01*
X-215648Y-196911D01*
X-215659Y-196878D01*
X-215664Y-196862D01*
Y-196856D01*
X-215691Y-196802D01*
X-215719Y-196753D01*
X-215746Y-196709D01*
X-215773Y-196676D01*
X-215795Y-196649D01*
X-215811Y-196632D01*
X-215823Y-196621D01*
X-215828Y-196616D01*
X-215866Y-196594D01*
X-215904Y-196578D01*
X-215975Y-196556D01*
X-216003Y-196551D01*
X-216024Y-196545D01*
X-216041D01*
X-216046D01*
X-216117Y-196551D01*
X-216177Y-196572D01*
X-216237Y-196600D01*
X-216287Y-196638D01*
X-216325Y-196671D01*
X-216352Y-196698D01*
X-216374Y-196720D01*
X-216379Y-196725D01*
X-216407Y-196763D01*
X-216428Y-196802D01*
X-216461Y-196894D01*
X-216489Y-196998D01*
X-216505Y-197097D01*
X-216516Y-197189D01*
Y-197228D01*
X-216521Y-197260D01*
Y-197331D01*
X-216516Y-197462D01*
X-216494Y-197572D01*
X-216472Y-197670D01*
X-216439Y-197752D01*
X-216412Y-197812D01*
X-216385Y-197855D01*
X-216363Y-197883D01*
X-216357Y-197894D01*
X-216292Y-197959D01*
X-216221Y-198014D01*
X-216150Y-198057D01*
X-216079Y-198090D01*
X-216019Y-198112D01*
X-215964Y-198123D01*
X-215932Y-198134D01*
X-215926D01*
X-215921D01*
X-216003Y-198740D01*
X-216128Y-198713D01*
X-216237Y-198680D01*
X-216336Y-198647D01*
X-216418Y-198609D01*
X-216478Y-198576D01*
X-216527Y-198549D01*
X-216554Y-198527D01*
X-216565Y-198521D01*
X-216641Y-198456D01*
X-216707Y-198380D01*
X-216767Y-198303D01*
X-216816Y-198227D01*
X-216854Y-198150D01*
X-216882Y-198096D01*
X-216893Y-198074D01*
X-216898Y-198057D01*
X-216903Y-198047D01*
Y-198041D01*
X-216947Y-197915D01*
X-216974Y-197790D01*
X-216996Y-197659D01*
X-217013Y-197544D01*
X-217024Y-197440D01*
Y-197397D01*
X-217029Y-197359D01*
Y-197288D01*
X-217024Y-197184D01*
X-217018Y-197085D01*
X-217007Y-196993D01*
X-216991Y-196916D01*
X-216974Y-196845D01*
X-216964Y-196796D01*
X-216958Y-196763D01*
X-216953Y-196758D01*
Y-196753D01*
X-216925Y-196665D01*
X-216893Y-196583D01*
X-216860Y-196518D01*
X-216833Y-196463D01*
X-216811Y-196419D01*
X-216789Y-196387D01*
X-216778Y-196365D01*
X-216773Y-196359D01*
X-216718Y-196288D01*
X-216663Y-196228D01*
X-216603Y-196174D01*
X-216549Y-196135D01*
X-216499Y-196097D01*
X-216461Y-196075D01*
X-216439Y-196059D01*
X-216428Y-196054D01*
X-216352Y-196015D01*
X-216270Y-195988D01*
X-216194Y-195972D01*
X-216123Y-195961D01*
X-216063Y-195950D01*
X-216019Y-195944D01*
X-215986D01*
X-215981D01*
X-215975D01*
X-215877Y-195950D01*
X-215784Y-195966D01*
X-215702Y-195988D01*
X-215631Y-196010D01*
X-215571Y-196032D01*
X-215522Y-196054D01*
X-215495Y-196070D01*
X-215484Y-196075D01*
X-215407Y-196130D01*
X-215336Y-196196D01*
X-215282Y-196261D01*
X-215233Y-196327D01*
X-215189Y-196387D01*
X-215162Y-196430D01*
X-215145Y-196463D01*
X-215140Y-196469D01*
Y-196474D01*
X-215118Y-196529D01*
X-215091Y-196594D01*
X-215064Y-196660D01*
X-215042Y-196736D01*
X-214992Y-196894D01*
X-214943Y-197047D01*
X-214922Y-197124D01*
X-214900Y-197195D01*
X-214883Y-197260D01*
X-214867Y-197315D01*
X-214856Y-197359D01*
X-214845Y-197397D01*
X-214840Y-197419D01*
Y-197424D01*
X-214818Y-197511D01*
X-214796Y-197593D01*
X-214774Y-197670D01*
X-214752Y-197735D01*
X-214736Y-197795D01*
X-214720Y-197845D01*
X-214703Y-197888D01*
X-214687Y-197932D01*
X-214676Y-197965D01*
X-214665Y-197992D01*
X-214649Y-198030D01*
X-214638Y-198052D01*
X-214632Y-198057D01*
X-214583Y-198117D01*
X-214528Y-198167D01*
X-214474Y-198199D01*
X-214419Y-198221D01*
X-214376Y-198232D01*
X-214332Y-198243D01*
X-214310D01*
X-214299D01*
X-214212Y-198232D01*
X-214135Y-198210D01*
X-214064Y-198178D01*
X-214004Y-198139D01*
X-213955Y-198101D01*
X-213922Y-198068D01*
X-213895Y-198047D01*
X-213890Y-198036D01*
X-213835Y-197948D01*
X-213791Y-197850D01*
X-213764Y-197741D01*
X-213742Y-197637D01*
X-213731Y-197544D01*
X-213726Y-197506D01*
Y-197468D01*
X-213720Y-197440D01*
Y-197397D01*
X-213731Y-197249D01*
X-213753Y-197118D01*
X-213780Y-197004D01*
X-213819Y-196911D01*
X-213851Y-196834D01*
X-213884Y-196780D01*
X-213906Y-196747D01*
X-213912Y-196742D01*
Y-196736D01*
X-213993Y-196654D01*
X-214081Y-196594D01*
X-214179Y-196545D01*
X-214272Y-196507D01*
X-214354Y-196479D01*
X-214387Y-196469D01*
X-214419Y-196463D01*
X-214446Y-196458D01*
X-214463D01*
X-214474Y-196452D01*
X-214479D01*
X-214381Y-195841D01*
X-214277Y-195862D01*
D02*
G37*
G36*
X-211815Y-200012D02*
X-212066Y-200192D01*
X-212328Y-200356D01*
X-212579Y-200503D01*
X-212699Y-200569D01*
X-212814Y-200629D01*
X-212923Y-200684D01*
X-213021Y-200733D01*
X-213109Y-200771D01*
X-213180Y-200804D01*
X-213245Y-200831D01*
X-213289Y-200853D01*
X-213316Y-200864D01*
X-213327Y-200869D01*
X-213491Y-200935D01*
X-213649Y-200989D01*
X-213813Y-201039D01*
X-213971Y-201077D01*
X-214124Y-201115D01*
X-214272Y-201142D01*
X-214414Y-201164D01*
X-214545Y-201186D01*
X-214670Y-201202D01*
X-214780Y-201213D01*
X-214878Y-201219D01*
X-214960Y-201224D01*
X-215025Y-201230D01*
X-215074D01*
X-215107D01*
X-215118D01*
X-215271Y-201224D01*
X-215418Y-201219D01*
X-215566Y-201208D01*
X-215708Y-201186D01*
X-215839Y-201170D01*
X-215970Y-201148D01*
X-216090Y-201120D01*
X-216205Y-201099D01*
X-216308Y-201071D01*
X-216401Y-201049D01*
X-216483Y-201022D01*
X-216549Y-201006D01*
X-216603Y-200989D01*
X-216647Y-200973D01*
X-216669Y-200968D01*
X-216680Y-200962D01*
X-216844Y-200902D01*
X-217007Y-200831D01*
X-217319Y-200684D01*
X-217471Y-200607D01*
X-217613Y-200525D01*
X-217750Y-200449D01*
X-217875Y-200373D01*
X-217990Y-200302D01*
X-218099Y-200231D01*
X-218192Y-200170D01*
X-218269Y-200116D01*
X-218329Y-200072D01*
X-218378Y-200039D01*
X-218405Y-200018D01*
X-218416Y-200012D01*
Y-199570D01*
X-218285Y-199646D01*
X-218165Y-199712D01*
X-218050Y-199777D01*
X-217946Y-199832D01*
X-217854Y-199881D01*
X-217772Y-199925D01*
X-217695Y-199968D01*
X-217630Y-200001D01*
X-217570Y-200028D01*
X-217520Y-200056D01*
X-217477Y-200078D01*
X-217444Y-200094D01*
X-217417Y-200105D01*
X-217400Y-200116D01*
X-217389Y-200121D01*
X-217384D01*
X-217204Y-200192D01*
X-217029Y-200258D01*
X-216865Y-200312D01*
X-216783Y-200340D01*
X-216712Y-200361D01*
X-216647Y-200378D01*
X-216581Y-200394D01*
X-216527Y-200411D01*
X-216483Y-200422D01*
X-216445Y-200432D01*
X-216418Y-200438D01*
X-216401Y-200443D01*
X-216396D01*
X-216156Y-200493D01*
X-215926Y-200531D01*
X-215817Y-200547D01*
X-215708Y-200558D01*
X-215610Y-200569D01*
X-215517Y-200580D01*
X-215429Y-200585D01*
X-215353Y-200591D01*
X-215282D01*
X-215222Y-200596D01*
X-215178D01*
X-215140D01*
X-215118D01*
X-215113D01*
X-214960Y-200591D01*
X-214802Y-200585D01*
X-214496Y-200553D01*
X-214195Y-200503D01*
X-213901Y-200438D01*
X-213617Y-200356D01*
X-213344Y-200274D01*
X-213087Y-200181D01*
X-212841Y-200083D01*
X-212623Y-199985D01*
X-212519Y-199941D01*
X-212421Y-199897D01*
X-212333Y-199848D01*
X-212246Y-199810D01*
X-212170Y-199766D01*
X-212099Y-199728D01*
X-212033Y-199695D01*
X-211979Y-199663D01*
X-211929Y-199635D01*
X-211891Y-199613D01*
X-211859Y-199597D01*
X-211831Y-199581D01*
X-211820Y-199575D01*
X-211815Y-199570D01*
Y-200012D01*
D02*
G37*
G36*
X-117109Y-144606D02*
X-117705D01*
Y-142121D01*
X-122149D01*
Y-141455D01*
X-117109D01*
Y-144606D01*
D02*
G37*
G36*
X-119534Y-145212D02*
X-119403Y-145217D01*
X-119151Y-145250D01*
X-119031Y-145266D01*
X-118922Y-145288D01*
X-118818Y-145316D01*
X-118720Y-145337D01*
X-118633Y-145365D01*
X-118551Y-145387D01*
X-118485Y-145408D01*
X-118425Y-145430D01*
X-118382Y-145447D01*
X-118343Y-145457D01*
X-118322Y-145463D01*
X-118316Y-145468D01*
X-118201Y-145523D01*
X-118092Y-145578D01*
X-117994Y-145638D01*
X-117901Y-145703D01*
X-117814Y-145769D01*
X-117737Y-145829D01*
X-117666Y-145894D01*
X-117601Y-145954D01*
X-117541Y-146014D01*
X-117492Y-146069D01*
X-117453Y-146118D01*
X-117415Y-146162D01*
X-117388Y-146195D01*
X-117371Y-146222D01*
X-117361Y-146238D01*
X-117355Y-146244D01*
X-117295Y-146342D01*
X-117246Y-146446D01*
X-117202Y-146555D01*
X-117164Y-146670D01*
X-117137Y-146779D01*
X-117109Y-146888D01*
X-117088Y-146997D01*
X-117071Y-147101D01*
X-117055Y-147199D01*
X-117044Y-147287D01*
X-117039Y-147369D01*
X-117033Y-147434D01*
X-117027Y-147494D01*
Y-147571D01*
X-117033Y-147718D01*
X-117044Y-147854D01*
X-117066Y-147985D01*
X-117093Y-148111D01*
X-117126Y-148231D01*
X-117164Y-148340D01*
X-117202Y-148439D01*
X-117241Y-148531D01*
X-117279Y-148619D01*
X-117317Y-148690D01*
X-117355Y-148755D01*
X-117388Y-148804D01*
X-117415Y-148848D01*
X-117437Y-148875D01*
X-117448Y-148897D01*
X-117453Y-148903D01*
X-117541Y-149001D01*
X-117634Y-149094D01*
X-117732Y-149176D01*
X-117830Y-149252D01*
X-117934Y-149323D01*
X-118043Y-149383D01*
X-118141Y-149438D01*
X-118245Y-149487D01*
X-118338Y-149531D01*
X-118425Y-149563D01*
X-118507Y-149596D01*
X-118573Y-149618D01*
X-118633Y-149640D01*
X-118671Y-149651D01*
X-118698Y-149662D01*
X-118709D01*
X-118878Y-148996D01*
X-118764Y-148968D01*
X-118655Y-148930D01*
X-118551Y-148892D01*
X-118458Y-148854D01*
X-118371Y-148810D01*
X-118294Y-148766D01*
X-118223Y-148723D01*
X-118158Y-148679D01*
X-118103Y-148635D01*
X-118054Y-148597D01*
X-118010Y-148559D01*
X-117978Y-148531D01*
X-117950Y-148504D01*
X-117934Y-148482D01*
X-117923Y-148471D01*
X-117918Y-148466D01*
X-117863Y-148389D01*
X-117814Y-148313D01*
X-117770Y-148237D01*
X-117732Y-148155D01*
X-117699Y-148073D01*
X-117672Y-147996D01*
X-117634Y-147844D01*
X-117623Y-147778D01*
X-117612Y-147713D01*
X-117606Y-147658D01*
X-117601Y-147609D01*
X-117595Y-147571D01*
Y-147516D01*
X-117601Y-147429D01*
X-117606Y-147347D01*
X-117634Y-147188D01*
X-117672Y-147041D01*
X-117716Y-146915D01*
X-117737Y-146861D01*
X-117754Y-146812D01*
X-117776Y-146768D01*
X-117792Y-146730D01*
X-117808Y-146697D01*
X-117819Y-146675D01*
X-117830Y-146664D01*
Y-146659D01*
X-117879Y-146588D01*
X-117928Y-146522D01*
X-118043Y-146402D01*
X-118158Y-146304D01*
X-118278Y-146222D01*
X-118382Y-146162D01*
X-118425Y-146134D01*
X-118469Y-146113D01*
X-118502Y-146102D01*
X-118524Y-146091D01*
X-118540Y-146080D01*
X-118545D01*
X-118731Y-146020D01*
X-118922Y-145971D01*
X-119113Y-145938D01*
X-119201Y-145927D01*
X-119288Y-145916D01*
X-119370Y-145911D01*
X-119441Y-145905D01*
X-119506Y-145900D01*
X-119561D01*
X-119610Y-145894D01*
X-119643D01*
X-119665D01*
X-119670D01*
X-119856Y-145900D01*
X-120030Y-145916D01*
X-120194Y-145943D01*
X-120271Y-145954D01*
X-120342Y-145971D01*
X-120402Y-145987D01*
X-120462Y-145998D01*
X-120511Y-146014D01*
X-120555Y-146025D01*
X-120588Y-146031D01*
X-120615Y-146042D01*
X-120631Y-146047D01*
X-120637D01*
X-120806Y-146118D01*
X-120953Y-146200D01*
X-121079Y-146287D01*
X-121133Y-146337D01*
X-121188Y-146380D01*
X-121232Y-146424D01*
X-121270Y-146462D01*
X-121308Y-146500D01*
X-121335Y-146528D01*
X-121357Y-146555D01*
X-121374Y-146577D01*
X-121379Y-146588D01*
X-121385Y-146593D01*
X-121434Y-146670D01*
X-121477Y-146746D01*
X-121516Y-146828D01*
X-121548Y-146910D01*
X-121598Y-147074D01*
X-121636Y-147232D01*
X-121647Y-147298D01*
X-121652Y-147363D01*
X-121658Y-147423D01*
X-121663Y-147472D01*
X-121669Y-147516D01*
Y-147663D01*
X-121658Y-147751D01*
X-121630Y-147915D01*
X-121587Y-148056D01*
X-121565Y-148117D01*
X-121543Y-148177D01*
X-121521Y-148231D01*
X-121499Y-148275D01*
X-121477Y-148313D01*
X-121456Y-148346D01*
X-121439Y-148373D01*
X-121428Y-148389D01*
X-121423Y-148400D01*
X-121417Y-148406D01*
X-121368Y-148466D01*
X-121314Y-148526D01*
X-121188Y-148624D01*
X-121052Y-148717D01*
X-120921Y-148788D01*
X-120800Y-148843D01*
X-120751Y-148870D01*
X-120708Y-148886D01*
X-120669Y-148903D01*
X-120637Y-148908D01*
X-120620Y-148919D01*
X-120615D01*
X-120768Y-149574D01*
X-120893Y-149531D01*
X-121013Y-149481D01*
X-121128Y-149432D01*
X-121232Y-149372D01*
X-121330Y-149318D01*
X-121417Y-149258D01*
X-121499Y-149198D01*
X-121570Y-149137D01*
X-121636Y-149077D01*
X-121690Y-149028D01*
X-121739Y-148979D01*
X-121778Y-148935D01*
X-121810Y-148903D01*
X-121832Y-148875D01*
X-121843Y-148859D01*
X-121849Y-148854D01*
X-121920Y-148755D01*
X-121974Y-148652D01*
X-122029Y-148548D01*
X-122073Y-148439D01*
X-122111Y-148329D01*
X-122144Y-148226D01*
X-122165Y-148122D01*
X-122187Y-148024D01*
X-122204Y-147931D01*
X-122215Y-147849D01*
X-122225Y-147773D01*
X-122231Y-147707D01*
X-122236Y-147652D01*
Y-147581D01*
X-122231Y-147456D01*
X-122225Y-147336D01*
X-122187Y-147112D01*
X-122165Y-147003D01*
X-122138Y-146904D01*
X-122111Y-146806D01*
X-122083Y-146719D01*
X-122056Y-146642D01*
X-122029Y-146571D01*
X-122002Y-146506D01*
X-121980Y-146457D01*
X-121958Y-146413D01*
X-121942Y-146386D01*
X-121936Y-146364D01*
X-121931Y-146358D01*
X-121871Y-146260D01*
X-121805Y-146162D01*
X-121734Y-146074D01*
X-121663Y-145993D01*
X-121587Y-145916D01*
X-121516Y-145845D01*
X-121439Y-145785D01*
X-121374Y-145725D01*
X-121303Y-145676D01*
X-121243Y-145632D01*
X-121188Y-145594D01*
X-121139Y-145561D01*
X-121095Y-145539D01*
X-121068Y-145523D01*
X-121046Y-145512D01*
X-121041Y-145507D01*
X-120931Y-145452D01*
X-120811Y-145408D01*
X-120697Y-145370D01*
X-120582Y-145332D01*
X-120347Y-145277D01*
X-120238Y-145261D01*
X-120134Y-145245D01*
X-120036Y-145234D01*
X-119949Y-145223D01*
X-119867Y-145217D01*
X-119796Y-145212D01*
X-119741Y-145206D01*
X-119697D01*
X-119676D01*
X-119665D01*
X-119534Y-145212D01*
D02*
G37*
G36*
Y-150295D02*
X-119403Y-150301D01*
X-119151Y-150333D01*
X-119031Y-150350D01*
X-118922Y-150372D01*
X-118818Y-150399D01*
X-118720Y-150421D01*
X-118633Y-150448D01*
X-118551Y-150470D01*
X-118485Y-150492D01*
X-118425Y-150514D01*
X-118382Y-150530D01*
X-118343Y-150541D01*
X-118322Y-150546D01*
X-118316Y-150552D01*
X-118201Y-150606D01*
X-118092Y-150661D01*
X-117994Y-150721D01*
X-117901Y-150786D01*
X-117814Y-150852D01*
X-117737Y-150912D01*
X-117666Y-150978D01*
X-117601Y-151038D01*
X-117541Y-151098D01*
X-117492Y-151152D01*
X-117453Y-151201D01*
X-117415Y-151245D01*
X-117388Y-151278D01*
X-117371Y-151305D01*
X-117361Y-151321D01*
X-117355Y-151327D01*
X-117295Y-151425D01*
X-117246Y-151529D01*
X-117202Y-151638D01*
X-117164Y-151753D01*
X-117137Y-151862D01*
X-117109Y-151971D01*
X-117088Y-152081D01*
X-117071Y-152184D01*
X-117055Y-152283D01*
X-117044Y-152370D01*
X-117039Y-152452D01*
X-117033Y-152517D01*
X-117027Y-152577D01*
Y-152654D01*
X-117033Y-152801D01*
X-117044Y-152938D01*
X-117066Y-153069D01*
X-117093Y-153194D01*
X-117126Y-153314D01*
X-117164Y-153424D01*
X-117202Y-153522D01*
X-117241Y-153615D01*
X-117279Y-153702D01*
X-117317Y-153773D01*
X-117355Y-153839D01*
X-117388Y-153888D01*
X-117415Y-153931D01*
X-117437Y-153959D01*
X-117448Y-153981D01*
X-117453Y-153986D01*
X-117541Y-154084D01*
X-117634Y-154177D01*
X-117732Y-154259D01*
X-117830Y-154335D01*
X-117934Y-154406D01*
X-118043Y-154466D01*
X-118141Y-154521D01*
X-118245Y-154570D01*
X-118338Y-154614D01*
X-118425Y-154647D01*
X-118507Y-154679D01*
X-118573Y-154701D01*
X-118633Y-154723D01*
X-118671Y-154734D01*
X-118698Y-154745D01*
X-118709D01*
X-118878Y-154079D01*
X-118764Y-154051D01*
X-118655Y-154013D01*
X-118551Y-153975D01*
X-118458Y-153937D01*
X-118371Y-153893D01*
X-118294Y-153849D01*
X-118223Y-153806D01*
X-118158Y-153762D01*
X-118103Y-153718D01*
X-118054Y-153680D01*
X-118010Y-153642D01*
X-117978Y-153615D01*
X-117950Y-153587D01*
X-117934Y-153566D01*
X-117923Y-153555D01*
X-117918Y-153549D01*
X-117863Y-153473D01*
X-117814Y-153396D01*
X-117770Y-153320D01*
X-117732Y-153238D01*
X-117699Y-153156D01*
X-117672Y-153080D01*
X-117634Y-152927D01*
X-117623Y-152861D01*
X-117612Y-152796D01*
X-117606Y-152741D01*
X-117601Y-152692D01*
X-117595Y-152654D01*
Y-152599D01*
X-117601Y-152512D01*
X-117606Y-152430D01*
X-117634Y-152272D01*
X-117672Y-152124D01*
X-117716Y-151999D01*
X-117737Y-151944D01*
X-117754Y-151895D01*
X-117776Y-151851D01*
X-117792Y-151813D01*
X-117808Y-151780D01*
X-117819Y-151758D01*
X-117830Y-151747D01*
Y-151742D01*
X-117879Y-151671D01*
X-117928Y-151605D01*
X-118043Y-151485D01*
X-118158Y-151387D01*
X-118278Y-151305D01*
X-118382Y-151245D01*
X-118425Y-151218D01*
X-118469Y-151196D01*
X-118502Y-151185D01*
X-118524Y-151174D01*
X-118540Y-151163D01*
X-118545D01*
X-118731Y-151103D01*
X-118922Y-151054D01*
X-119113Y-151021D01*
X-119201Y-151010D01*
X-119288Y-150999D01*
X-119370Y-150994D01*
X-119441Y-150988D01*
X-119506Y-150983D01*
X-119561D01*
X-119610Y-150978D01*
X-119643D01*
X-119665D01*
X-119670D01*
X-119856Y-150983D01*
X-120030Y-150999D01*
X-120194Y-151027D01*
X-120271Y-151038D01*
X-120342Y-151054D01*
X-120402Y-151070D01*
X-120462Y-151081D01*
X-120511Y-151098D01*
X-120555Y-151109D01*
X-120588Y-151114D01*
X-120615Y-151125D01*
X-120631Y-151130D01*
X-120637D01*
X-120806Y-151201D01*
X-120953Y-151283D01*
X-121079Y-151371D01*
X-121133Y-151420D01*
X-121188Y-151463D01*
X-121232Y-151507D01*
X-121270Y-151545D01*
X-121308Y-151584D01*
X-121335Y-151611D01*
X-121357Y-151638D01*
X-121374Y-151660D01*
X-121379Y-151671D01*
X-121385Y-151676D01*
X-121434Y-151753D01*
X-121477Y-151829D01*
X-121516Y-151911D01*
X-121548Y-151993D01*
X-121598Y-152157D01*
X-121636Y-152315D01*
X-121647Y-152381D01*
X-121652Y-152446D01*
X-121658Y-152506D01*
X-121663Y-152556D01*
X-121669Y-152599D01*
Y-152747D01*
X-121658Y-152834D01*
X-121630Y-152998D01*
X-121587Y-153140D01*
X-121565Y-153200D01*
X-121543Y-153260D01*
X-121521Y-153314D01*
X-121499Y-153358D01*
X-121477Y-153396D01*
X-121456Y-153429D01*
X-121439Y-153456D01*
X-121428Y-153473D01*
X-121423Y-153484D01*
X-121417Y-153489D01*
X-121368Y-153549D01*
X-121314Y-153609D01*
X-121188Y-153708D01*
X-121052Y-153800D01*
X-120921Y-153871D01*
X-120800Y-153926D01*
X-120751Y-153953D01*
X-120708Y-153970D01*
X-120669Y-153986D01*
X-120637Y-153991D01*
X-120620Y-154002D01*
X-120615D01*
X-120768Y-154658D01*
X-120893Y-154614D01*
X-121013Y-154565D01*
X-121128Y-154516D01*
X-121232Y-154456D01*
X-121330Y-154401D01*
X-121417Y-154341D01*
X-121499Y-154281D01*
X-121570Y-154221D01*
X-121636Y-154161D01*
X-121690Y-154112D01*
X-121739Y-154062D01*
X-121778Y-154019D01*
X-121810Y-153986D01*
X-121832Y-153959D01*
X-121843Y-153942D01*
X-121849Y-153937D01*
X-121920Y-153839D01*
X-121974Y-153735D01*
X-122029Y-153631D01*
X-122073Y-153522D01*
X-122111Y-153413D01*
X-122144Y-153309D01*
X-122165Y-153205D01*
X-122187Y-153107D01*
X-122204Y-153014D01*
X-122215Y-152932D01*
X-122225Y-152856D01*
X-122231Y-152790D01*
X-122236Y-152736D01*
Y-152665D01*
X-122231Y-152539D01*
X-122225Y-152419D01*
X-122187Y-152195D01*
X-122165Y-152086D01*
X-122138Y-151988D01*
X-122111Y-151889D01*
X-122083Y-151802D01*
X-122056Y-151726D01*
X-122029Y-151655D01*
X-122002Y-151589D01*
X-121980Y-151540D01*
X-121958Y-151496D01*
X-121942Y-151469D01*
X-121936Y-151447D01*
X-121931Y-151442D01*
X-121871Y-151343D01*
X-121805Y-151245D01*
X-121734Y-151158D01*
X-121663Y-151076D01*
X-121587Y-150999D01*
X-121516Y-150928D01*
X-121439Y-150868D01*
X-121374Y-150808D01*
X-121303Y-150759D01*
X-121243Y-150715D01*
X-121188Y-150677D01*
X-121139Y-150645D01*
X-121095Y-150623D01*
X-121068Y-150606D01*
X-121046Y-150595D01*
X-121041Y-150590D01*
X-120931Y-150535D01*
X-120811Y-150492D01*
X-120697Y-150453D01*
X-120582Y-150415D01*
X-120347Y-150361D01*
X-120238Y-150344D01*
X-120134Y-150328D01*
X-120036Y-150317D01*
X-119949Y-150306D01*
X-119867Y-150301D01*
X-119796Y-150295D01*
X-119741Y-150290D01*
X-119697D01*
X-119676D01*
X-119665D01*
X-119534Y-150295D01*
D02*
G37*
G36*
X-118622Y-157147D02*
X-119244D01*
Y-155242D01*
X-118622D01*
Y-157147D01*
D02*
G37*
G36*
X-118447Y-157655D02*
X-118333Y-157671D01*
X-118218Y-157693D01*
X-118114Y-157721D01*
X-118021Y-157753D01*
X-117928Y-157792D01*
X-117847Y-157835D01*
X-117770Y-157879D01*
X-117699Y-157917D01*
X-117639Y-157961D01*
X-117590Y-157999D01*
X-117546Y-158032D01*
X-117508Y-158059D01*
X-117486Y-158081D01*
X-117470Y-158097D01*
X-117464Y-158103D01*
X-117388Y-158190D01*
X-117322Y-158289D01*
X-117262Y-158387D01*
X-117213Y-158485D01*
X-117169Y-158589D01*
X-117137Y-158687D01*
X-117104Y-158785D01*
X-117082Y-158878D01*
X-117066Y-158966D01*
X-117049Y-159047D01*
X-117039Y-159124D01*
X-117033Y-159184D01*
Y-159239D01*
X-117027Y-159277D01*
Y-159309D01*
X-117033Y-159446D01*
X-117044Y-159577D01*
X-117066Y-159697D01*
X-117098Y-159812D01*
X-117131Y-159916D01*
X-117164Y-160014D01*
X-117208Y-160107D01*
X-117246Y-160189D01*
X-117284Y-160260D01*
X-117328Y-160325D01*
X-117361Y-160380D01*
X-117399Y-160429D01*
X-117426Y-160462D01*
X-117448Y-160489D01*
X-117459Y-160505D01*
X-117464Y-160511D01*
X-117546Y-160593D01*
X-117639Y-160664D01*
X-117726Y-160724D01*
X-117819Y-160778D01*
X-117912Y-160822D01*
X-117999Y-160860D01*
X-118087Y-160888D01*
X-118174Y-160915D01*
X-118251Y-160931D01*
X-118322Y-160948D01*
X-118387Y-160953D01*
X-118442Y-160964D01*
X-118491D01*
X-118524Y-160969D01*
X-118545D01*
X-118551D01*
X-118638D01*
X-118720Y-160958D01*
X-118873Y-160931D01*
X-119009Y-160893D01*
X-119124Y-160849D01*
X-119173Y-160822D01*
X-119217Y-160800D01*
X-119255Y-160778D01*
X-119288Y-160762D01*
X-119315Y-160746D01*
X-119332Y-160735D01*
X-119343Y-160729D01*
X-119348Y-160724D01*
X-119468Y-160625D01*
X-119567Y-160511D01*
X-119654Y-160396D01*
X-119719Y-160281D01*
X-119774Y-160178D01*
X-119796Y-160134D01*
X-119812Y-160096D01*
X-119823Y-160063D01*
X-119834Y-160041D01*
X-119840Y-160025D01*
Y-160019D01*
X-119899Y-160150D01*
X-119960Y-160265D01*
X-120030Y-160358D01*
X-120091Y-160440D01*
X-120151Y-160500D01*
X-120194Y-160544D01*
X-120227Y-160565D01*
X-120233Y-160576D01*
X-120238D01*
X-120342Y-160636D01*
X-120446Y-160685D01*
X-120549Y-160718D01*
X-120642Y-160740D01*
X-120724Y-160751D01*
X-120762Y-160756D01*
X-120790Y-160762D01*
X-120817D01*
X-120833D01*
X-120844D01*
X-120850D01*
X-120948Y-160756D01*
X-121046Y-160746D01*
X-121139Y-160724D01*
X-121226Y-160696D01*
X-121308Y-160669D01*
X-121385Y-160636D01*
X-121456Y-160598D01*
X-121521Y-160560D01*
X-121576Y-160522D01*
X-121630Y-160483D01*
X-121674Y-160451D01*
X-121712Y-160423D01*
X-121739Y-160396D01*
X-121761Y-160374D01*
X-121772Y-160363D01*
X-121778Y-160358D01*
X-121849Y-160281D01*
X-121903Y-160194D01*
X-121958Y-160112D01*
X-122002Y-160019D01*
X-122040Y-159932D01*
X-122073Y-159845D01*
X-122094Y-159757D01*
X-122116Y-159675D01*
X-122133Y-159593D01*
X-122144Y-159522D01*
X-122154Y-159457D01*
X-122160Y-159402D01*
X-122165Y-159359D01*
Y-159293D01*
X-122160Y-159173D01*
X-122149Y-159058D01*
X-122133Y-158955D01*
X-122105Y-158851D01*
X-122078Y-158758D01*
X-122045Y-158676D01*
X-122012Y-158594D01*
X-121980Y-158523D01*
X-121942Y-158458D01*
X-121909Y-158403D01*
X-121876Y-158354D01*
X-121849Y-158316D01*
X-121821Y-158283D01*
X-121805Y-158261D01*
X-121794Y-158250D01*
X-121789Y-158245D01*
X-121718Y-158174D01*
X-121641Y-158114D01*
X-121565Y-158065D01*
X-121488Y-158016D01*
X-121406Y-157977D01*
X-121330Y-157950D01*
X-121259Y-157923D01*
X-121188Y-157901D01*
X-121117Y-157885D01*
X-121057Y-157873D01*
X-121002Y-157863D01*
X-120959Y-157857D01*
X-120921D01*
X-120888Y-157852D01*
X-120871D01*
X-120866D01*
X-120735Y-157857D01*
X-120615Y-157879D01*
X-120506Y-157912D01*
X-120413Y-157945D01*
X-120342Y-157977D01*
X-120287Y-158010D01*
X-120265Y-158021D01*
X-120249Y-158032D01*
X-120244Y-158037D01*
X-120238D01*
X-120145Y-158114D01*
X-120069Y-158207D01*
X-119998Y-158299D01*
X-119943Y-158392D01*
X-119899Y-158474D01*
X-119878Y-158512D01*
X-119867Y-158545D01*
X-119856Y-158567D01*
X-119845Y-158589D01*
X-119840Y-158600D01*
Y-158605D01*
X-119785Y-158441D01*
X-119719Y-158299D01*
X-119643Y-158179D01*
X-119567Y-158081D01*
X-119534Y-158037D01*
X-119495Y-157999D01*
X-119468Y-157966D01*
X-119441Y-157945D01*
X-119419Y-157923D01*
X-119403Y-157906D01*
X-119392Y-157901D01*
X-119386Y-157895D01*
X-119321Y-157852D01*
X-119255Y-157814D01*
X-119119Y-157753D01*
X-118982Y-157710D01*
X-118857Y-157682D01*
X-118797Y-157671D01*
X-118742Y-157661D01*
X-118693Y-157655D01*
X-118649D01*
X-118616Y-157650D01*
X-118589D01*
X-118573D01*
X-118567D01*
X-118447Y-157655D01*
D02*
G37*
G36*
X-118758Y-163667D02*
X-118589Y-163678D01*
X-118425Y-163694D01*
X-118262Y-163716D01*
X-118109Y-163743D01*
X-117961Y-163770D01*
X-117819Y-163803D01*
X-117688Y-163836D01*
X-117574Y-163869D01*
X-117464Y-163901D01*
X-117371Y-163929D01*
X-117290Y-163956D01*
X-117230Y-163978D01*
X-117180Y-163994D01*
X-117153Y-164005D01*
X-117142Y-164011D01*
X-116984Y-164082D01*
X-116831Y-164153D01*
X-116684Y-164224D01*
X-116542Y-164295D01*
X-116411Y-164371D01*
X-116285Y-164442D01*
X-116170Y-164513D01*
X-116061Y-164578D01*
X-115968Y-164638D01*
X-115881Y-164699D01*
X-115805Y-164748D01*
X-115744Y-164791D01*
X-115695Y-164830D01*
X-115657Y-164857D01*
X-115635Y-164873D01*
X-115630Y-164879D01*
Y-165321D01*
X-115783Y-165228D01*
X-115936Y-165141D01*
X-116088Y-165059D01*
X-116241Y-164982D01*
X-116547Y-164846D01*
X-116836Y-164726D01*
X-117120Y-164628D01*
X-117393Y-164546D01*
X-117655Y-164475D01*
X-117896Y-164426D01*
X-118120Y-164382D01*
X-118218Y-164365D01*
X-118316Y-164349D01*
X-118409Y-164338D01*
X-118496Y-164327D01*
X-118573Y-164316D01*
X-118644Y-164311D01*
X-118709Y-164305D01*
X-118764Y-164300D01*
X-118813D01*
X-118851Y-164295D01*
X-118884D01*
X-118911D01*
X-118922D01*
X-118928D01*
X-119168Y-164300D01*
X-119403Y-164316D01*
X-119517Y-164327D01*
X-119621Y-164344D01*
X-119725Y-164355D01*
X-119818Y-164371D01*
X-119905Y-164382D01*
X-119981Y-164393D01*
X-120052Y-164409D01*
X-120112Y-164420D01*
X-120156Y-164431D01*
X-120194Y-164436D01*
X-120216Y-164442D01*
X-120222D01*
X-120413Y-164491D01*
X-120593Y-164546D01*
X-120762Y-164600D01*
X-120839Y-164628D01*
X-120910Y-164649D01*
X-120975Y-164677D01*
X-121035Y-164699D01*
X-121084Y-164720D01*
X-121128Y-164737D01*
X-121161Y-164748D01*
X-121188Y-164759D01*
X-121204Y-164769D01*
X-121210D01*
X-121270Y-164797D01*
X-121341Y-164830D01*
X-121417Y-164868D01*
X-121499Y-164911D01*
X-121669Y-165004D01*
X-121838Y-165097D01*
X-121914Y-165141D01*
X-121991Y-165179D01*
X-122056Y-165217D01*
X-122116Y-165255D01*
X-122165Y-165283D01*
X-122198Y-165305D01*
X-122225Y-165315D01*
X-122231Y-165321D01*
Y-164879D01*
X-122067Y-164759D01*
X-121909Y-164649D01*
X-121750Y-164551D01*
X-121598Y-164453D01*
X-121445Y-164371D01*
X-121303Y-164289D01*
X-121166Y-164218D01*
X-121041Y-164158D01*
X-120921Y-164103D01*
X-120817Y-164054D01*
X-120724Y-164016D01*
X-120648Y-163983D01*
X-120582Y-163956D01*
X-120533Y-163940D01*
X-120506Y-163929D01*
X-120495Y-163923D01*
X-120353Y-163880D01*
X-120211Y-163836D01*
X-119938Y-163770D01*
X-119801Y-163749D01*
X-119670Y-163727D01*
X-119550Y-163710D01*
X-119435Y-163694D01*
X-119326Y-163683D01*
X-119228Y-163678D01*
X-119146Y-163667D01*
X-119070D01*
X-119015Y-163661D01*
X-118971D01*
X-118944D01*
X-118933D01*
X-118758Y-163667D01*
D02*
G37*
G36*
X-117109Y-166277D02*
X-118633Y-166823D01*
Y-168941D01*
X-117109Y-169525D01*
Y-170284D01*
X-122149Y-168220D01*
Y-167499D01*
X-117109Y-165572D01*
Y-166277D01*
D02*
G37*
G36*
Y-171338D02*
X-122149D01*
Y-170721D01*
X-117109D01*
Y-171338D01*
D02*
G37*
G36*
Y-172921D02*
X-120762D01*
Y-172304D01*
X-117109D01*
Y-172921D01*
D02*
G37*
G36*
X-121445D02*
X-122149D01*
Y-172304D01*
X-121445D01*
Y-172921D01*
D02*
G37*
G36*
X-117109Y-177715D02*
X-117705D01*
Y-174619D01*
X-119419D01*
Y-177409D01*
X-120014D01*
Y-174619D01*
X-121554D01*
Y-177601D01*
X-122149D01*
Y-173953D01*
X-117109D01*
Y-177715D01*
D02*
G37*
G36*
Y-178889D02*
X-118513Y-179861D01*
X-118234Y-180041D01*
X-117109Y-180795D01*
Y-181548D01*
X-118999Y-180221D01*
X-120762Y-181455D01*
Y-180713D01*
X-119899Y-180101D01*
X-119763Y-180003D01*
X-119692Y-179954D01*
X-119632Y-179910D01*
X-119577Y-179872D01*
X-119534Y-179845D01*
X-119506Y-179823D01*
X-119495Y-179817D01*
X-119555Y-179779D01*
X-119626Y-179741D01*
X-119692Y-179697D01*
X-119752Y-179659D01*
X-119812Y-179621D01*
X-119856Y-179593D01*
X-119883Y-179572D01*
X-119894Y-179566D01*
X-120762Y-178987D01*
Y-178234D01*
X-118999Y-179468D01*
X-117109Y-178136D01*
Y-178889D01*
D02*
G37*
G36*
X-115712Y-182695D02*
X-117486D01*
X-117415Y-182755D01*
X-117350Y-182820D01*
X-117290Y-182886D01*
X-117246Y-182951D01*
X-117208Y-183006D01*
X-117175Y-183055D01*
X-117159Y-183082D01*
X-117153Y-183093D01*
X-117109Y-183186D01*
X-117082Y-183284D01*
X-117060Y-183377D01*
X-117044Y-183465D01*
X-117033Y-183541D01*
X-117027Y-183596D01*
Y-183650D01*
X-117033Y-183732D01*
X-117039Y-183809D01*
X-117066Y-183956D01*
X-117104Y-184092D01*
X-117148Y-184213D01*
X-117169Y-184267D01*
X-117186Y-184316D01*
X-117208Y-184354D01*
X-117224Y-184393D01*
X-117241Y-184420D01*
X-117251Y-184442D01*
X-117262Y-184453D01*
Y-184458D01*
X-117361Y-184595D01*
X-117470Y-184709D01*
X-117585Y-184813D01*
X-117699Y-184895D01*
X-117797Y-184961D01*
X-117841Y-184982D01*
X-117879Y-185004D01*
X-117907Y-185021D01*
X-117928Y-185032D01*
X-117945Y-185043D01*
X-117950D01*
X-118125Y-185108D01*
X-118300Y-185157D01*
X-118469Y-185195D01*
X-118622Y-185217D01*
X-118693Y-185228D01*
X-118758Y-185234D01*
X-118818Y-185239D01*
X-118868D01*
X-118906Y-185245D01*
X-118933D01*
X-118955D01*
X-118960D01*
X-119151Y-185239D01*
X-119332Y-185217D01*
X-119495Y-185185D01*
X-119567Y-185168D01*
X-119637Y-185152D01*
X-119697Y-185135D01*
X-119757Y-185119D01*
X-119807Y-185103D01*
X-119845Y-185086D01*
X-119878Y-185075D01*
X-119899Y-185064D01*
X-119916Y-185059D01*
X-119921D01*
X-120074Y-184982D01*
X-120211Y-184900D01*
X-120325Y-184808D01*
X-120424Y-184720D01*
X-120500Y-184644D01*
X-120555Y-184578D01*
X-120571Y-184551D01*
X-120588Y-184535D01*
X-120598Y-184524D01*
Y-184518D01*
X-120642Y-184453D01*
X-120680Y-184382D01*
X-120740Y-184240D01*
X-120784Y-184103D01*
X-120811Y-183972D01*
X-120822Y-183912D01*
X-120833Y-183863D01*
X-120839Y-183814D01*
Y-183770D01*
X-120844Y-183738D01*
Y-183694D01*
X-120839Y-183568D01*
X-120822Y-183448D01*
X-120800Y-183344D01*
X-120773Y-183257D01*
X-120746Y-183186D01*
X-120724Y-183132D01*
X-120708Y-183099D01*
X-120702Y-183093D01*
Y-183088D01*
X-120642Y-182995D01*
X-120577Y-182913D01*
X-120506Y-182837D01*
X-120440Y-182771D01*
X-120380Y-182717D01*
X-120325Y-182673D01*
X-120293Y-182651D01*
X-120287Y-182640D01*
X-120762D01*
Y-182078D01*
X-115712D01*
Y-182695D01*
D02*
G37*
G36*
X-117109Y-186604D02*
X-119020D01*
X-119162Y-186609D01*
X-119299Y-186620D01*
X-119419Y-186637D01*
X-119528Y-186653D01*
X-119616Y-186670D01*
X-119654Y-186680D01*
X-119687Y-186686D01*
X-119708Y-186691D01*
X-119725Y-186697D01*
X-119736Y-186702D01*
X-119741D01*
X-119818Y-186735D01*
X-119889Y-186768D01*
X-119943Y-186806D01*
X-119992Y-186844D01*
X-120030Y-186877D01*
X-120058Y-186904D01*
X-120074Y-186926D01*
X-120080Y-186932D01*
X-120123Y-186997D01*
X-120151Y-187057D01*
X-120173Y-187117D01*
X-120189Y-187177D01*
X-120200Y-187226D01*
X-120205Y-187265D01*
Y-187297D01*
X-120200Y-187385D01*
X-120183Y-187467D01*
X-120162Y-187543D01*
X-120140Y-187609D01*
X-120112Y-187669D01*
X-120091Y-187712D01*
X-120074Y-187740D01*
X-120069Y-187751D01*
X-120642Y-187969D01*
X-120708Y-187849D01*
X-120757Y-187729D01*
X-120795Y-187625D01*
X-120817Y-187527D01*
X-120833Y-187445D01*
X-120839Y-187412D01*
Y-187385D01*
X-120844Y-187363D01*
Y-187330D01*
X-120839Y-187254D01*
X-120822Y-187177D01*
X-120806Y-187112D01*
X-120784Y-187052D01*
X-120757Y-187008D01*
X-120740Y-186970D01*
X-120724Y-186948D01*
X-120719Y-186937D01*
X-120691Y-186904D01*
X-120658Y-186866D01*
X-120588Y-186801D01*
X-120500Y-186735D01*
X-120413Y-186675D01*
X-120336Y-186620D01*
X-120265Y-186582D01*
X-120244Y-186566D01*
X-120222Y-186555D01*
X-120211Y-186544D01*
X-120762D01*
Y-185987D01*
X-117109D01*
Y-186604D01*
D02*
G37*
G36*
X-118737Y-188133D02*
X-118584Y-188149D01*
X-118442Y-188171D01*
X-118311Y-188198D01*
X-118185Y-188237D01*
X-118070Y-188275D01*
X-117967Y-188319D01*
X-117874Y-188362D01*
X-117792Y-188400D01*
X-117721Y-188444D01*
X-117661Y-188482D01*
X-117612Y-188521D01*
X-117568Y-188548D01*
X-117541Y-188570D01*
X-117524Y-188586D01*
X-117519Y-188592D01*
X-117432Y-188684D01*
X-117355Y-188783D01*
X-117290Y-188881D01*
X-117235Y-188990D01*
X-117186Y-189094D01*
X-117148Y-189203D01*
X-117115Y-189307D01*
X-117088Y-189405D01*
X-117071Y-189498D01*
X-117055Y-189585D01*
X-117044Y-189662D01*
X-117033Y-189733D01*
Y-189787D01*
X-117027Y-189831D01*
Y-189864D01*
X-117033Y-189978D01*
X-117039Y-190093D01*
X-117055Y-190197D01*
X-117077Y-190295D01*
X-117098Y-190388D01*
X-117126Y-190470D01*
X-117153Y-190552D01*
X-117180Y-190623D01*
X-117208Y-190688D01*
X-117235Y-190743D01*
X-117262Y-190792D01*
X-117284Y-190836D01*
X-117306Y-190863D01*
X-117322Y-190890D01*
X-117328Y-190901D01*
X-117333Y-190907D01*
X-117393Y-190983D01*
X-117459Y-191049D01*
X-117530Y-191109D01*
X-117601Y-191169D01*
X-117748Y-191267D01*
X-117885Y-191343D01*
X-117950Y-191371D01*
X-118010Y-191398D01*
X-118065Y-191420D01*
X-118114Y-191436D01*
X-118152Y-191453D01*
X-118180Y-191463D01*
X-118201Y-191469D01*
X-118207D01*
X-118289Y-190825D01*
X-118152Y-190770D01*
X-118032Y-190705D01*
X-117928Y-190639D01*
X-117852Y-190579D01*
X-117787Y-190524D01*
X-117743Y-190481D01*
X-117721Y-190453D01*
X-117710Y-190448D01*
Y-190442D01*
X-117650Y-190350D01*
X-117612Y-190251D01*
X-117579Y-190153D01*
X-117557Y-190066D01*
X-117546Y-189984D01*
X-117541Y-189918D01*
X-117535Y-189896D01*
Y-189864D01*
X-117541Y-189782D01*
X-117552Y-189700D01*
X-117563Y-189623D01*
X-117585Y-189552D01*
X-117634Y-189421D01*
X-117694Y-189312D01*
X-117721Y-189263D01*
X-117754Y-189219D01*
X-117781Y-189187D01*
X-117803Y-189154D01*
X-117825Y-189132D01*
X-117841Y-189116D01*
X-117847Y-189105D01*
X-117852Y-189099D01*
X-117918Y-189045D01*
X-117983Y-188996D01*
X-118060Y-188957D01*
X-118131Y-188919D01*
X-118289Y-188859D01*
X-118436Y-188815D01*
X-118507Y-188799D01*
X-118573Y-188788D01*
X-118627Y-188777D01*
X-118682Y-188772D01*
X-118720Y-188766D01*
X-118753Y-188761D01*
X-118775D01*
X-118780D01*
Y-191485D01*
X-118851Y-191491D01*
X-118906D01*
X-118933D01*
X-118944D01*
X-119108Y-191485D01*
X-119261Y-191469D01*
X-119408Y-191447D01*
X-119545Y-191420D01*
X-119670Y-191382D01*
X-119785Y-191343D01*
X-119889Y-191300D01*
X-119981Y-191261D01*
X-120063Y-191218D01*
X-120140Y-191174D01*
X-120200Y-191136D01*
X-120249Y-191098D01*
X-120293Y-191070D01*
X-120320Y-191049D01*
X-120336Y-191032D01*
X-120342Y-191027D01*
X-120429Y-190939D01*
X-120506Y-190841D01*
X-120577Y-190743D01*
X-120631Y-190645D01*
X-120680Y-190546D01*
X-120724Y-190442D01*
X-120757Y-190350D01*
X-120784Y-190257D01*
X-120800Y-190169D01*
X-120817Y-190087D01*
X-120828Y-190017D01*
X-120839Y-189951D01*
Y-189902D01*
X-120844Y-189864D01*
Y-189831D01*
X-120839Y-189694D01*
X-120822Y-189558D01*
X-120795Y-189438D01*
X-120762Y-189318D01*
X-120724Y-189208D01*
X-120680Y-189105D01*
X-120637Y-189012D01*
X-120588Y-188930D01*
X-120538Y-188854D01*
X-120495Y-188788D01*
X-120451Y-188728D01*
X-120413Y-188684D01*
X-120380Y-188646D01*
X-120353Y-188619D01*
X-120336Y-188602D01*
X-120331Y-188597D01*
X-120233Y-188515D01*
X-120123Y-188444D01*
X-120009Y-188379D01*
X-119894Y-188324D01*
X-119774Y-188280D01*
X-119654Y-188242D01*
X-119539Y-188209D01*
X-119424Y-188188D01*
X-119321Y-188166D01*
X-119217Y-188155D01*
X-119130Y-188144D01*
X-119053Y-188133D01*
X-118988D01*
X-118939Y-188127D01*
X-118911D01*
X-118900D01*
X-118737Y-188133D01*
D02*
G37*
G36*
X-118092Y-192026D02*
X-117989Y-192053D01*
X-117896Y-192086D01*
X-117814Y-192119D01*
X-117732Y-192157D01*
X-117661Y-192195D01*
X-117595Y-192233D01*
X-117535Y-192277D01*
X-117486Y-192315D01*
X-117443Y-192353D01*
X-117404Y-192386D01*
X-117371Y-192413D01*
X-117350Y-192441D01*
X-117333Y-192457D01*
X-117322Y-192468D01*
X-117317Y-192474D01*
X-117268Y-192550D01*
X-117224Y-192626D01*
X-117180Y-192714D01*
X-117148Y-192801D01*
X-117098Y-192987D01*
X-117066Y-193161D01*
X-117049Y-193243D01*
X-117044Y-193320D01*
X-117039Y-193391D01*
X-117033Y-193445D01*
X-117027Y-193495D01*
Y-193566D01*
X-117033Y-193724D01*
X-117049Y-193866D01*
X-117077Y-193997D01*
X-117104Y-194112D01*
X-117115Y-194161D01*
X-117126Y-194204D01*
X-117142Y-194243D01*
X-117153Y-194275D01*
X-117164Y-194303D01*
X-117169Y-194319D01*
X-117175Y-194330D01*
Y-194335D01*
X-117235Y-194456D01*
X-117300Y-194559D01*
X-117371Y-194647D01*
X-117443Y-194723D01*
X-117503Y-194778D01*
X-117552Y-194821D01*
X-117585Y-194843D01*
X-117590Y-194854D01*
X-117595D01*
X-117699Y-194914D01*
X-117803Y-194963D01*
X-117901Y-194996D01*
X-117989Y-195018D01*
X-118065Y-195029D01*
X-118125Y-195040D01*
X-118147D01*
X-118163D01*
X-118174D01*
X-118180D01*
X-118294Y-195034D01*
X-118398Y-195018D01*
X-118485Y-194991D01*
X-118562Y-194963D01*
X-118627Y-194936D01*
X-118671Y-194909D01*
X-118698Y-194892D01*
X-118709Y-194887D01*
X-118786Y-194827D01*
X-118851Y-194761D01*
X-118906Y-194690D01*
X-118949Y-194625D01*
X-118988Y-194570D01*
X-119009Y-194521D01*
X-119026Y-194488D01*
X-119031Y-194483D01*
Y-194477D01*
X-119053Y-194423D01*
X-119075Y-194363D01*
X-119102Y-194297D01*
X-119124Y-194226D01*
X-119173Y-194079D01*
X-119217Y-193926D01*
X-119239Y-193855D01*
X-119261Y-193784D01*
X-119277Y-193724D01*
X-119293Y-193675D01*
X-119304Y-193626D01*
X-119315Y-193593D01*
X-119321Y-193571D01*
Y-193566D01*
X-119343Y-193484D01*
X-119364Y-193413D01*
X-119381Y-193347D01*
X-119397Y-193287D01*
X-119414Y-193238D01*
X-119424Y-193194D01*
X-119435Y-193156D01*
X-119446Y-193123D01*
X-119463Y-193074D01*
X-119474Y-193041D01*
X-119479Y-193025D01*
Y-193020D01*
X-119506Y-192965D01*
X-119534Y-192916D01*
X-119561Y-192872D01*
X-119588Y-192839D01*
X-119610Y-192812D01*
X-119626Y-192796D01*
X-119637Y-192785D01*
X-119643Y-192779D01*
X-119681Y-192757D01*
X-119719Y-192741D01*
X-119790Y-192719D01*
X-119818Y-192714D01*
X-119840Y-192708D01*
X-119856D01*
X-119861D01*
X-119932Y-192714D01*
X-119992Y-192736D01*
X-120052Y-192763D01*
X-120101Y-192801D01*
X-120140Y-192834D01*
X-120167Y-192861D01*
X-120189Y-192883D01*
X-120194Y-192888D01*
X-120222Y-192927D01*
X-120244Y-192965D01*
X-120276Y-193058D01*
X-120303Y-193161D01*
X-120320Y-193260D01*
X-120331Y-193353D01*
Y-193391D01*
X-120336Y-193424D01*
Y-193495D01*
X-120331Y-193626D01*
X-120309Y-193735D01*
X-120287Y-193833D01*
X-120254Y-193915D01*
X-120227Y-193975D01*
X-120200Y-194019D01*
X-120178Y-194046D01*
X-120173Y-194057D01*
X-120107Y-194123D01*
X-120036Y-194177D01*
X-119965Y-194221D01*
X-119894Y-194254D01*
X-119834Y-194275D01*
X-119779Y-194286D01*
X-119747Y-194297D01*
X-119741D01*
X-119736D01*
X-119818Y-194903D01*
X-119943Y-194876D01*
X-120052Y-194843D01*
X-120151Y-194810D01*
X-120233Y-194772D01*
X-120293Y-194739D01*
X-120342Y-194712D01*
X-120369Y-194690D01*
X-120380Y-194685D01*
X-120456Y-194619D01*
X-120522Y-194543D01*
X-120582Y-194466D01*
X-120631Y-194390D01*
X-120669Y-194314D01*
X-120697Y-194259D01*
X-120708Y-194237D01*
X-120713Y-194221D01*
X-120719Y-194210D01*
Y-194204D01*
X-120762Y-194079D01*
X-120790Y-193953D01*
X-120811Y-193822D01*
X-120828Y-193708D01*
X-120839Y-193604D01*
Y-193560D01*
X-120844Y-193522D01*
Y-193451D01*
X-120839Y-193347D01*
X-120833Y-193249D01*
X-120822Y-193156D01*
X-120806Y-193080D01*
X-120790Y-193009D01*
X-120779Y-192959D01*
X-120773Y-192927D01*
X-120768Y-192921D01*
Y-192916D01*
X-120740Y-192829D01*
X-120708Y-192747D01*
X-120675Y-192681D01*
X-120648Y-192626D01*
X-120626Y-192583D01*
X-120604Y-192550D01*
X-120593Y-192528D01*
X-120588Y-192523D01*
X-120533Y-192452D01*
X-120478Y-192392D01*
X-120418Y-192337D01*
X-120364Y-192299D01*
X-120315Y-192261D01*
X-120276Y-192239D01*
X-120254Y-192222D01*
X-120244Y-192217D01*
X-120167Y-192179D01*
X-120085Y-192151D01*
X-120009Y-192135D01*
X-119938Y-192124D01*
X-119878Y-192113D01*
X-119834Y-192108D01*
X-119801D01*
X-119796D01*
X-119790D01*
X-119692Y-192113D01*
X-119599Y-192130D01*
X-119517Y-192151D01*
X-119446Y-192173D01*
X-119386Y-192195D01*
X-119337Y-192217D01*
X-119310Y-192233D01*
X-119299Y-192239D01*
X-119222Y-192293D01*
X-119151Y-192359D01*
X-119097Y-192424D01*
X-119048Y-192490D01*
X-119004Y-192550D01*
X-118977Y-192594D01*
X-118960Y-192626D01*
X-118955Y-192632D01*
Y-192637D01*
X-118933Y-192692D01*
X-118906Y-192757D01*
X-118878Y-192823D01*
X-118857Y-192899D01*
X-118807Y-193058D01*
X-118758Y-193211D01*
X-118737Y-193287D01*
X-118715Y-193358D01*
X-118698Y-193424D01*
X-118682Y-193478D01*
X-118671Y-193522D01*
X-118660Y-193560D01*
X-118655Y-193582D01*
Y-193587D01*
X-118633Y-193675D01*
X-118611Y-193757D01*
X-118589Y-193833D01*
X-118567Y-193899D01*
X-118551Y-193959D01*
X-118535Y-194008D01*
X-118518Y-194052D01*
X-118502Y-194095D01*
X-118491Y-194128D01*
X-118480Y-194155D01*
X-118464Y-194193D01*
X-118453Y-194215D01*
X-118447Y-194221D01*
X-118398Y-194281D01*
X-118343Y-194330D01*
X-118289Y-194363D01*
X-118234Y-194385D01*
X-118191Y-194395D01*
X-118147Y-194406D01*
X-118125D01*
X-118114D01*
X-118027Y-194395D01*
X-117950Y-194374D01*
X-117879Y-194341D01*
X-117819Y-194303D01*
X-117770Y-194264D01*
X-117737Y-194232D01*
X-117710Y-194210D01*
X-117705Y-194199D01*
X-117650Y-194112D01*
X-117606Y-194013D01*
X-117579Y-193904D01*
X-117557Y-193800D01*
X-117546Y-193708D01*
X-117541Y-193669D01*
Y-193631D01*
X-117535Y-193604D01*
Y-193560D01*
X-117546Y-193413D01*
X-117568Y-193282D01*
X-117595Y-193167D01*
X-117634Y-193074D01*
X-117666Y-192998D01*
X-117699Y-192943D01*
X-117721Y-192910D01*
X-117726Y-192905D01*
Y-192899D01*
X-117808Y-192817D01*
X-117896Y-192757D01*
X-117994Y-192708D01*
X-118087Y-192670D01*
X-118169Y-192643D01*
X-118201Y-192632D01*
X-118234Y-192626D01*
X-118262Y-192621D01*
X-118278D01*
X-118289Y-192615D01*
X-118294D01*
X-118196Y-192004D01*
X-118092Y-192026D01*
D02*
G37*
G36*
Y-195547D02*
X-117989Y-195575D01*
X-117896Y-195608D01*
X-117814Y-195640D01*
X-117732Y-195679D01*
X-117661Y-195717D01*
X-117595Y-195755D01*
X-117535Y-195799D01*
X-117486Y-195837D01*
X-117443Y-195875D01*
X-117404Y-195908D01*
X-117371Y-195935D01*
X-117350Y-195963D01*
X-117333Y-195979D01*
X-117322Y-195990D01*
X-117317Y-195995D01*
X-117268Y-196072D01*
X-117224Y-196148D01*
X-117180Y-196236D01*
X-117148Y-196323D01*
X-117098Y-196509D01*
X-117066Y-196683D01*
X-117049Y-196765D01*
X-117044Y-196842D01*
X-117039Y-196913D01*
X-117033Y-196967D01*
X-117027Y-197016D01*
Y-197087D01*
X-117033Y-197246D01*
X-117049Y-197388D01*
X-117077Y-197519D01*
X-117104Y-197633D01*
X-117115Y-197682D01*
X-117126Y-197726D01*
X-117142Y-197764D01*
X-117153Y-197797D01*
X-117164Y-197824D01*
X-117169Y-197841D01*
X-117175Y-197852D01*
Y-197857D01*
X-117235Y-197977D01*
X-117300Y-198081D01*
X-117371Y-198168D01*
X-117443Y-198245D01*
X-117503Y-198299D01*
X-117552Y-198343D01*
X-117585Y-198365D01*
X-117590Y-198376D01*
X-117595D01*
X-117699Y-198436D01*
X-117803Y-198485D01*
X-117901Y-198518D01*
X-117989Y-198540D01*
X-118065Y-198550D01*
X-118125Y-198562D01*
X-118147D01*
X-118163D01*
X-118174D01*
X-118180D01*
X-118294Y-198556D01*
X-118398Y-198540D01*
X-118485Y-198512D01*
X-118562Y-198485D01*
X-118627Y-198458D01*
X-118671Y-198430D01*
X-118698Y-198414D01*
X-118709Y-198409D01*
X-118786Y-198348D01*
X-118851Y-198283D01*
X-118906Y-198212D01*
X-118949Y-198146D01*
X-118988Y-198092D01*
X-119009Y-198043D01*
X-119026Y-198010D01*
X-119031Y-198004D01*
Y-197999D01*
X-119053Y-197944D01*
X-119075Y-197884D01*
X-119102Y-197819D01*
X-119124Y-197748D01*
X-119173Y-197600D01*
X-119217Y-197448D01*
X-119239Y-197377D01*
X-119261Y-197306D01*
X-119277Y-197246D01*
X-119293Y-197196D01*
X-119304Y-197147D01*
X-119315Y-197115D01*
X-119321Y-197093D01*
Y-197087D01*
X-119343Y-197005D01*
X-119364Y-196934D01*
X-119381Y-196869D01*
X-119397Y-196809D01*
X-119414Y-196760D01*
X-119424Y-196716D01*
X-119435Y-196678D01*
X-119446Y-196645D01*
X-119463Y-196596D01*
X-119474Y-196563D01*
X-119479Y-196547D01*
Y-196541D01*
X-119506Y-196487D01*
X-119534Y-196438D01*
X-119561Y-196394D01*
X-119588Y-196361D01*
X-119610Y-196334D01*
X-119626Y-196317D01*
X-119637Y-196307D01*
X-119643Y-196301D01*
X-119681Y-196279D01*
X-119719Y-196263D01*
X-119790Y-196241D01*
X-119818Y-196236D01*
X-119840Y-196230D01*
X-119856D01*
X-119861D01*
X-119932Y-196236D01*
X-119992Y-196257D01*
X-120052Y-196285D01*
X-120101Y-196323D01*
X-120140Y-196356D01*
X-120167Y-196383D01*
X-120189Y-196405D01*
X-120194Y-196410D01*
X-120222Y-196448D01*
X-120244Y-196487D01*
X-120276Y-196580D01*
X-120303Y-196683D01*
X-120320Y-196782D01*
X-120331Y-196874D01*
Y-196913D01*
X-120336Y-196945D01*
Y-197016D01*
X-120331Y-197147D01*
X-120309Y-197257D01*
X-120287Y-197355D01*
X-120254Y-197437D01*
X-120227Y-197497D01*
X-120200Y-197540D01*
X-120178Y-197568D01*
X-120173Y-197579D01*
X-120107Y-197644D01*
X-120036Y-197699D01*
X-119965Y-197742D01*
X-119894Y-197775D01*
X-119834Y-197797D01*
X-119779Y-197808D01*
X-119747Y-197819D01*
X-119741D01*
X-119736D01*
X-119818Y-198425D01*
X-119943Y-198398D01*
X-120052Y-198365D01*
X-120151Y-198332D01*
X-120233Y-198294D01*
X-120293Y-198261D01*
X-120342Y-198234D01*
X-120369Y-198212D01*
X-120380Y-198207D01*
X-120456Y-198141D01*
X-120522Y-198065D01*
X-120582Y-197988D01*
X-120631Y-197912D01*
X-120669Y-197835D01*
X-120697Y-197781D01*
X-120708Y-197759D01*
X-120713Y-197742D01*
X-120719Y-197731D01*
Y-197726D01*
X-120762Y-197600D01*
X-120790Y-197475D01*
X-120811Y-197344D01*
X-120828Y-197229D01*
X-120839Y-197125D01*
Y-197082D01*
X-120844Y-197044D01*
Y-196973D01*
X-120839Y-196869D01*
X-120833Y-196771D01*
X-120822Y-196678D01*
X-120806Y-196601D01*
X-120790Y-196530D01*
X-120779Y-196481D01*
X-120773Y-196448D01*
X-120768Y-196443D01*
Y-196438D01*
X-120740Y-196350D01*
X-120708Y-196268D01*
X-120675Y-196203D01*
X-120648Y-196148D01*
X-120626Y-196105D01*
X-120604Y-196072D01*
X-120593Y-196050D01*
X-120588Y-196044D01*
X-120533Y-195973D01*
X-120478Y-195913D01*
X-120418Y-195859D01*
X-120364Y-195820D01*
X-120315Y-195782D01*
X-120276Y-195761D01*
X-120254Y-195744D01*
X-120244Y-195739D01*
X-120167Y-195700D01*
X-120085Y-195673D01*
X-120009Y-195657D01*
X-119938Y-195646D01*
X-119878Y-195635D01*
X-119834Y-195629D01*
X-119801D01*
X-119796D01*
X-119790D01*
X-119692Y-195635D01*
X-119599Y-195651D01*
X-119517Y-195673D01*
X-119446Y-195695D01*
X-119386Y-195717D01*
X-119337Y-195739D01*
X-119310Y-195755D01*
X-119299Y-195761D01*
X-119222Y-195815D01*
X-119151Y-195881D01*
X-119097Y-195946D01*
X-119048Y-196012D01*
X-119004Y-196072D01*
X-118977Y-196115D01*
X-118960Y-196148D01*
X-118955Y-196154D01*
Y-196159D01*
X-118933Y-196214D01*
X-118906Y-196279D01*
X-118878Y-196345D01*
X-118857Y-196421D01*
X-118807Y-196580D01*
X-118758Y-196732D01*
X-118737Y-196809D01*
X-118715Y-196880D01*
X-118698Y-196945D01*
X-118682Y-197000D01*
X-118671Y-197044D01*
X-118660Y-197082D01*
X-118655Y-197104D01*
Y-197109D01*
X-118633Y-197196D01*
X-118611Y-197278D01*
X-118589Y-197355D01*
X-118567Y-197420D01*
X-118551Y-197480D01*
X-118535Y-197529D01*
X-118518Y-197573D01*
X-118502Y-197617D01*
X-118491Y-197650D01*
X-118480Y-197677D01*
X-118464Y-197715D01*
X-118453Y-197737D01*
X-118447Y-197742D01*
X-118398Y-197802D01*
X-118343Y-197852D01*
X-118289Y-197884D01*
X-118234Y-197906D01*
X-118191Y-197917D01*
X-118147Y-197928D01*
X-118125D01*
X-118114D01*
X-118027Y-197917D01*
X-117950Y-197895D01*
X-117879Y-197863D01*
X-117819Y-197824D01*
X-117770Y-197786D01*
X-117737Y-197753D01*
X-117710Y-197731D01*
X-117705Y-197721D01*
X-117650Y-197633D01*
X-117606Y-197535D01*
X-117579Y-197426D01*
X-117557Y-197322D01*
X-117546Y-197229D01*
X-117541Y-197191D01*
Y-197153D01*
X-117535Y-197125D01*
Y-197082D01*
X-117546Y-196934D01*
X-117568Y-196803D01*
X-117595Y-196689D01*
X-117634Y-196596D01*
X-117666Y-196519D01*
X-117699Y-196465D01*
X-117721Y-196432D01*
X-117726Y-196427D01*
Y-196421D01*
X-117808Y-196339D01*
X-117896Y-196279D01*
X-117994Y-196230D01*
X-118087Y-196192D01*
X-118169Y-196165D01*
X-118201Y-196154D01*
X-118234Y-196148D01*
X-118262Y-196143D01*
X-118278D01*
X-118289Y-196137D01*
X-118294D01*
X-118196Y-195526D01*
X-118092Y-195547D01*
D02*
G37*
G36*
X-115630Y-199697D02*
X-115881Y-199877D01*
X-116143Y-200041D01*
X-116394Y-200188D01*
X-116514Y-200254D01*
X-116629Y-200314D01*
X-116738Y-200369D01*
X-116836Y-200418D01*
X-116924Y-200456D01*
X-116995Y-200489D01*
X-117060Y-200516D01*
X-117104Y-200538D01*
X-117131Y-200549D01*
X-117142Y-200554D01*
X-117306Y-200620D01*
X-117464Y-200675D01*
X-117628Y-200724D01*
X-117787Y-200762D01*
X-117939Y-200800D01*
X-118087Y-200827D01*
X-118229Y-200849D01*
X-118360Y-200871D01*
X-118485Y-200887D01*
X-118595Y-200898D01*
X-118693Y-200904D01*
X-118775Y-200909D01*
X-118840Y-200915D01*
X-118889D01*
X-118922D01*
X-118933D01*
X-119086Y-200909D01*
X-119233Y-200904D01*
X-119381Y-200893D01*
X-119523Y-200871D01*
X-119654Y-200855D01*
X-119785Y-200833D01*
X-119905Y-200805D01*
X-120020Y-200784D01*
X-120123Y-200756D01*
X-120216Y-200734D01*
X-120298Y-200707D01*
X-120364Y-200691D01*
X-120418Y-200675D01*
X-120462Y-200658D01*
X-120484Y-200653D01*
X-120495Y-200647D01*
X-120658Y-200587D01*
X-120822Y-200516D01*
X-121133Y-200369D01*
X-121286Y-200292D01*
X-121428Y-200210D01*
X-121565Y-200134D01*
X-121690Y-200058D01*
X-121805Y-199987D01*
X-121914Y-199916D01*
X-122007Y-199855D01*
X-122083Y-199801D01*
X-122144Y-199757D01*
X-122193Y-199724D01*
X-122220Y-199703D01*
X-122231Y-199697D01*
Y-199255D01*
X-122100Y-199331D01*
X-121980Y-199397D01*
X-121865Y-199462D01*
X-121761Y-199517D01*
X-121669Y-199566D01*
X-121587Y-199610D01*
X-121510Y-199653D01*
X-121445Y-199686D01*
X-121385Y-199714D01*
X-121335Y-199741D01*
X-121292Y-199763D01*
X-121259Y-199779D01*
X-121232Y-199790D01*
X-121215Y-199801D01*
X-121204Y-199806D01*
X-121199D01*
X-121019Y-199877D01*
X-120844Y-199943D01*
X-120680Y-199997D01*
X-120598Y-200025D01*
X-120527Y-200047D01*
X-120462Y-200063D01*
X-120396Y-200079D01*
X-120342Y-200096D01*
X-120298Y-200107D01*
X-120260Y-200118D01*
X-120233Y-200123D01*
X-120216Y-200129D01*
X-120211D01*
X-119971Y-200178D01*
X-119741Y-200216D01*
X-119632Y-200232D01*
X-119523Y-200243D01*
X-119424Y-200254D01*
X-119332Y-200265D01*
X-119244Y-200270D01*
X-119168Y-200276D01*
X-119097D01*
X-119037Y-200281D01*
X-118993D01*
X-118955D01*
X-118933D01*
X-118928D01*
X-118775Y-200276D01*
X-118616Y-200270D01*
X-118311Y-200238D01*
X-118010Y-200188D01*
X-117716Y-200123D01*
X-117432Y-200041D01*
X-117159Y-199959D01*
X-116902Y-199866D01*
X-116656Y-199768D01*
X-116438Y-199670D01*
X-116334Y-199626D01*
X-116236Y-199583D01*
X-116148Y-199533D01*
X-116061Y-199495D01*
X-115985Y-199451D01*
X-115914Y-199413D01*
X-115848Y-199381D01*
X-115794Y-199348D01*
X-115744Y-199320D01*
X-115706Y-199299D01*
X-115673Y-199282D01*
X-115646Y-199266D01*
X-115635Y-199260D01*
X-115630Y-199255D01*
Y-199697D01*
D02*
G37*
%LPC*%
G36*
X-217040Y-158800D02*
X-217056D01*
X-217067D01*
X-217073D01*
X-217188Y-158811D01*
X-217291Y-158838D01*
X-217384Y-158871D01*
X-217460Y-158915D01*
X-217526Y-158958D01*
X-217575Y-158991D01*
X-217602Y-159018D01*
X-217613Y-159029D01*
X-217690Y-159122D01*
X-217744Y-159220D01*
X-217788Y-159319D01*
X-217815Y-159412D01*
X-217832Y-159493D01*
X-217837Y-159532D01*
Y-159559D01*
X-217843Y-159586D01*
Y-159685D01*
X-217832Y-159745D01*
X-217804Y-159859D01*
X-217766Y-159963D01*
X-217728Y-160045D01*
X-217684Y-160116D01*
X-217646Y-160165D01*
X-217619Y-160198D01*
X-217613Y-160209D01*
X-217608D01*
X-217564Y-160252D01*
X-217515Y-160285D01*
X-217422Y-160345D01*
X-217324Y-160389D01*
X-217237Y-160416D01*
X-217155Y-160433D01*
X-217095Y-160438D01*
X-217067Y-160443D01*
X-217051D01*
X-217040D01*
X-217035D01*
X-216920Y-160433D01*
X-216816Y-160405D01*
X-216718Y-160372D01*
X-216641Y-160329D01*
X-216576Y-160285D01*
X-216527Y-160252D01*
X-216499Y-160225D01*
X-216489Y-160214D01*
X-216412Y-160121D01*
X-216357Y-160023D01*
X-216319Y-159925D01*
X-216292Y-159832D01*
X-216276Y-159750D01*
X-216270Y-159717D01*
Y-159685D01*
X-216265Y-159657D01*
Y-159625D01*
X-216276Y-159493D01*
X-216298Y-159373D01*
X-216336Y-159270D01*
X-216379Y-159188D01*
X-216418Y-159117D01*
X-216456Y-159068D01*
X-216478Y-159035D01*
X-216489Y-159024D01*
X-216576Y-158947D01*
X-216674Y-158893D01*
X-216773Y-158855D01*
X-216865Y-158827D01*
X-216947Y-158811D01*
X-216980Y-158806D01*
X-217013D01*
X-217040Y-158800D01*
D02*
G37*
G36*
X-214703Y-158598D02*
X-214736D01*
X-214741D01*
X-214747D01*
X-214829Y-158604D01*
X-214900Y-158609D01*
X-215042Y-158642D01*
X-215167Y-158685D01*
X-215271Y-158740D01*
X-215315Y-158767D01*
X-215353Y-158795D01*
X-215386Y-158816D01*
X-215418Y-158838D01*
X-215440Y-158855D01*
X-215457Y-158871D01*
X-215462Y-158877D01*
X-215468Y-158882D01*
X-215517Y-158937D01*
X-215566Y-158997D01*
X-215604Y-159057D01*
X-215637Y-159117D01*
X-215686Y-159237D01*
X-215719Y-159352D01*
X-215741Y-159455D01*
X-215746Y-159499D01*
X-215752Y-159537D01*
X-215757Y-159564D01*
Y-159608D01*
X-215752Y-159690D01*
X-215746Y-159766D01*
X-215713Y-159914D01*
X-215664Y-160039D01*
X-215610Y-160149D01*
X-215582Y-160192D01*
X-215555Y-160236D01*
X-215533Y-160269D01*
X-215506Y-160296D01*
X-215489Y-160323D01*
X-215473Y-160340D01*
X-215468Y-160345D01*
X-215462Y-160351D01*
X-215407Y-160405D01*
X-215347Y-160449D01*
X-215287Y-160493D01*
X-215227Y-160525D01*
X-215102Y-160580D01*
X-214987Y-160613D01*
X-214883Y-160635D01*
X-214840Y-160640D01*
X-214802Y-160645D01*
X-214769Y-160651D01*
X-214747D01*
X-214731D01*
X-214725D01*
X-214643Y-160645D01*
X-214567Y-160640D01*
X-214430Y-160607D01*
X-214305Y-160558D01*
X-214201Y-160509D01*
X-214157Y-160482D01*
X-214119Y-160454D01*
X-214086Y-160427D01*
X-214053Y-160405D01*
X-214032Y-160389D01*
X-214015Y-160372D01*
X-214010Y-160367D01*
X-214004Y-160362D01*
X-213955Y-160307D01*
X-213912Y-160247D01*
X-213873Y-160187D01*
X-213841Y-160127D01*
X-213791Y-160001D01*
X-213759Y-159887D01*
X-213737Y-159783D01*
X-213731Y-159739D01*
X-213726Y-159701D01*
X-213720Y-159668D01*
Y-159625D01*
X-213726Y-159521D01*
X-213742Y-159423D01*
X-213764Y-159330D01*
X-213786Y-159253D01*
X-213808Y-159182D01*
X-213830Y-159133D01*
X-213846Y-159100D01*
X-213851Y-159095D01*
Y-159089D01*
X-213906Y-159002D01*
X-213971Y-158926D01*
X-214032Y-158865D01*
X-214092Y-158811D01*
X-214146Y-158773D01*
X-214195Y-158740D01*
X-214223Y-158724D01*
X-214234Y-158718D01*
X-214326Y-158680D01*
X-214419Y-158647D01*
X-214507Y-158625D01*
X-214583Y-158614D01*
X-214649Y-158604D01*
X-214703Y-158598D01*
D02*
G37*
G36*
X-215358Y-167329D02*
X-216838Y-167885D01*
X-217018Y-167946D01*
X-217193Y-168000D01*
X-217357Y-168049D01*
X-217433Y-168071D01*
X-217504Y-168087D01*
X-217570Y-168104D01*
X-217630Y-168120D01*
X-217679Y-168131D01*
X-217728Y-168142D01*
X-217761Y-168148D01*
X-217788Y-168153D01*
X-217804Y-168158D01*
X-217810D01*
X-217646Y-168208D01*
X-217471Y-168268D01*
X-217297Y-168328D01*
X-217127Y-168382D01*
X-217051Y-168410D01*
X-216980Y-168437D01*
X-216915Y-168459D01*
X-216865Y-168481D01*
X-216816Y-168497D01*
X-216783Y-168508D01*
X-216762Y-168519D01*
X-216756D01*
X-215358Y-169048D01*
Y-167329D01*
D02*
G37*
G36*
X-215031Y-182950D02*
X-215064D01*
X-215091D01*
X-215096D01*
X-215227Y-182955D01*
X-215347Y-182960D01*
X-215457Y-182977D01*
X-215560Y-182999D01*
X-215659Y-183021D01*
X-215746Y-183042D01*
X-215828Y-183070D01*
X-215899Y-183103D01*
X-215964Y-183130D01*
X-216019Y-183157D01*
X-216063Y-183179D01*
X-216101Y-183201D01*
X-216134Y-183223D01*
X-216156Y-183239D01*
X-216166Y-183244D01*
X-216172Y-183250D01*
X-216237Y-183310D01*
X-216292Y-183370D01*
X-216347Y-183430D01*
X-216385Y-183490D01*
X-216423Y-183550D01*
X-216450Y-183605D01*
X-216499Y-183714D01*
X-216521Y-183807D01*
X-216532Y-183851D01*
X-216538Y-183883D01*
X-216543Y-183911D01*
Y-183949D01*
X-216538Y-184020D01*
X-216527Y-184091D01*
X-216510Y-184162D01*
X-216489Y-184227D01*
X-216434Y-184342D01*
X-216369Y-184440D01*
X-216303Y-184522D01*
X-216276Y-184560D01*
X-216248Y-184588D01*
X-216227Y-184609D01*
X-216210Y-184626D01*
X-216199Y-184631D01*
X-216194Y-184637D01*
X-216123Y-184686D01*
X-216046Y-184735D01*
X-215970Y-184773D01*
X-215882Y-184806D01*
X-215708Y-184855D01*
X-215539Y-184888D01*
X-215457Y-184904D01*
X-215386Y-184910D01*
X-215320Y-184915D01*
X-215260Y-184921D01*
X-215211Y-184926D01*
X-215178D01*
X-215151D01*
X-215145D01*
X-215014Y-184921D01*
X-214889Y-184915D01*
X-214774Y-184899D01*
X-214670Y-184882D01*
X-214572Y-184861D01*
X-214479Y-184833D01*
X-214403Y-184806D01*
X-214332Y-184779D01*
X-214266Y-184751D01*
X-214212Y-184724D01*
X-214168Y-184702D01*
X-214130Y-184675D01*
X-214103Y-184659D01*
X-214081Y-184642D01*
X-214070Y-184637D01*
X-214064Y-184631D01*
X-214004Y-184577D01*
X-213950Y-184517D01*
X-213906Y-184457D01*
X-213868Y-184397D01*
X-213835Y-184336D01*
X-213802Y-184276D01*
X-213764Y-184167D01*
X-213737Y-184069D01*
X-213731Y-184025D01*
X-213726Y-183993D01*
X-213720Y-183960D01*
Y-183922D01*
X-213726Y-183845D01*
X-213737Y-183774D01*
X-213753Y-183709D01*
X-213775Y-183643D01*
X-213824Y-183528D01*
X-213890Y-183425D01*
X-213950Y-183343D01*
X-213977Y-183310D01*
X-214004Y-183283D01*
X-214021Y-183261D01*
X-214037Y-183244D01*
X-214048Y-183239D01*
X-214053Y-183233D01*
X-214119Y-183184D01*
X-214195Y-183141D01*
X-214277Y-183103D01*
X-214359Y-183070D01*
X-214534Y-183021D01*
X-214703Y-182988D01*
X-214780Y-182971D01*
X-214856Y-182966D01*
X-214922Y-182960D01*
X-214982Y-182955D01*
X-215031Y-182950D01*
D02*
G37*
G36*
X-215473Y-189109D02*
X-215560Y-189119D01*
X-215642Y-189130D01*
X-215790Y-189169D01*
X-215921Y-189223D01*
X-215981Y-189250D01*
X-216030Y-189278D01*
X-216079Y-189305D01*
X-216117Y-189332D01*
X-216150Y-189360D01*
X-216183Y-189382D01*
X-216205Y-189398D01*
X-216221Y-189414D01*
X-216227Y-189420D01*
X-216232Y-189425D01*
X-216281Y-189480D01*
X-216330Y-189540D01*
X-216369Y-189600D01*
X-216401Y-189660D01*
X-216450Y-189786D01*
X-216483Y-189895D01*
X-216505Y-189998D01*
X-216510Y-190037D01*
X-216516Y-190075D01*
X-216521Y-190102D01*
Y-190146D01*
X-216516Y-190233D01*
X-216505Y-190315D01*
X-216489Y-190392D01*
X-216467Y-190463D01*
X-216407Y-190594D01*
X-216374Y-190654D01*
X-216341Y-190708D01*
X-216308Y-190752D01*
X-216276Y-190796D01*
X-216243Y-190834D01*
X-216216Y-190861D01*
X-216194Y-190883D01*
X-216177Y-190905D01*
X-216166Y-190910D01*
X-216161Y-190916D01*
X-216068Y-190981D01*
X-215959Y-191036D01*
X-215844Y-191074D01*
X-215730Y-191107D01*
X-215631Y-191129D01*
X-215588Y-191134D01*
X-215549Y-191140D01*
X-215517Y-191145D01*
X-215495Y-191150D01*
X-215478D01*
X-215473D01*
Y-189109D01*
D02*
G37*
G36*
X-120855Y-158485D02*
X-120871D01*
X-120882D01*
X-120888D01*
X-121002Y-158496D01*
X-121106Y-158523D01*
X-121199Y-158556D01*
X-121275Y-158600D01*
X-121341Y-158643D01*
X-121390Y-158676D01*
X-121417Y-158703D01*
X-121428Y-158714D01*
X-121505Y-158807D01*
X-121559Y-158905D01*
X-121603Y-159004D01*
X-121630Y-159097D01*
X-121647Y-159178D01*
X-121652Y-159217D01*
Y-159244D01*
X-121658Y-159271D01*
Y-159370D01*
X-121647Y-159430D01*
X-121619Y-159544D01*
X-121581Y-159648D01*
X-121543Y-159730D01*
X-121499Y-159801D01*
X-121461Y-159850D01*
X-121434Y-159883D01*
X-121428Y-159894D01*
X-121423D01*
X-121379Y-159937D01*
X-121330Y-159970D01*
X-121237Y-160030D01*
X-121139Y-160074D01*
X-121052Y-160101D01*
X-120970Y-160118D01*
X-120910Y-160123D01*
X-120882Y-160128D01*
X-120866D01*
X-120855D01*
X-120850D01*
X-120735Y-160118D01*
X-120631Y-160090D01*
X-120533Y-160057D01*
X-120456Y-160014D01*
X-120391Y-159970D01*
X-120342Y-159937D01*
X-120315Y-159910D01*
X-120303Y-159899D01*
X-120227Y-159806D01*
X-120173Y-159708D01*
X-120134Y-159610D01*
X-120107Y-159517D01*
X-120091Y-159435D01*
X-120085Y-159402D01*
Y-159370D01*
X-120080Y-159342D01*
Y-159309D01*
X-120091Y-159178D01*
X-120112Y-159058D01*
X-120151Y-158955D01*
X-120194Y-158873D01*
X-120233Y-158802D01*
X-120271Y-158753D01*
X-120293Y-158720D01*
X-120303Y-158709D01*
X-120391Y-158633D01*
X-120489Y-158578D01*
X-120588Y-158540D01*
X-120680Y-158512D01*
X-120762Y-158496D01*
X-120795Y-158491D01*
X-120828D01*
X-120855Y-158485D01*
D02*
G37*
G36*
X-118518Y-158283D02*
X-118551D01*
X-118556D01*
X-118562D01*
X-118644Y-158289D01*
X-118715Y-158294D01*
X-118857Y-158327D01*
X-118982Y-158370D01*
X-119086Y-158425D01*
X-119130Y-158452D01*
X-119168Y-158480D01*
X-119201Y-158501D01*
X-119233Y-158523D01*
X-119255Y-158540D01*
X-119272Y-158556D01*
X-119277Y-158562D01*
X-119282Y-158567D01*
X-119332Y-158622D01*
X-119381Y-158682D01*
X-119419Y-158742D01*
X-119452Y-158802D01*
X-119501Y-158922D01*
X-119534Y-159037D01*
X-119555Y-159140D01*
X-119561Y-159184D01*
X-119567Y-159222D01*
X-119572Y-159249D01*
Y-159293D01*
X-119567Y-159375D01*
X-119561Y-159451D01*
X-119528Y-159599D01*
X-119479Y-159724D01*
X-119424Y-159834D01*
X-119397Y-159877D01*
X-119370Y-159921D01*
X-119348Y-159954D01*
X-119321Y-159981D01*
X-119304Y-160008D01*
X-119288Y-160025D01*
X-119282Y-160030D01*
X-119277Y-160036D01*
X-119222Y-160090D01*
X-119162Y-160134D01*
X-119102Y-160178D01*
X-119042Y-160210D01*
X-118917Y-160265D01*
X-118802Y-160298D01*
X-118698Y-160320D01*
X-118655Y-160325D01*
X-118616Y-160330D01*
X-118584Y-160336D01*
X-118562D01*
X-118545D01*
X-118540D01*
X-118458Y-160330D01*
X-118382Y-160325D01*
X-118245Y-160292D01*
X-118120Y-160243D01*
X-118016Y-160194D01*
X-117972Y-160167D01*
X-117934Y-160139D01*
X-117901Y-160112D01*
X-117868Y-160090D01*
X-117847Y-160074D01*
X-117830Y-160057D01*
X-117825Y-160052D01*
X-117819Y-160047D01*
X-117770Y-159992D01*
X-117726Y-159932D01*
X-117688Y-159872D01*
X-117655Y-159812D01*
X-117606Y-159686D01*
X-117574Y-159572D01*
X-117552Y-159468D01*
X-117546Y-159424D01*
X-117541Y-159386D01*
X-117535Y-159353D01*
Y-159309D01*
X-117541Y-159206D01*
X-117557Y-159107D01*
X-117579Y-159015D01*
X-117601Y-158938D01*
X-117623Y-158867D01*
X-117645Y-158818D01*
X-117661Y-158785D01*
X-117666Y-158780D01*
Y-158774D01*
X-117721Y-158687D01*
X-117787Y-158611D01*
X-117847Y-158551D01*
X-117907Y-158496D01*
X-117961Y-158458D01*
X-118010Y-158425D01*
X-118038Y-158409D01*
X-118049Y-158403D01*
X-118141Y-158365D01*
X-118234Y-158332D01*
X-118322Y-158310D01*
X-118398Y-158299D01*
X-118464Y-158289D01*
X-118518Y-158283D01*
D02*
G37*
G36*
X-119173Y-167014D02*
X-120653Y-167570D01*
X-120833Y-167631D01*
X-121008Y-167685D01*
X-121172Y-167734D01*
X-121248Y-167756D01*
X-121319Y-167772D01*
X-121385Y-167789D01*
X-121445Y-167805D01*
X-121494Y-167816D01*
X-121543Y-167827D01*
X-121576Y-167833D01*
X-121603Y-167838D01*
X-121619Y-167843D01*
X-121625D01*
X-121461Y-167893D01*
X-121286Y-167953D01*
X-121112Y-168013D01*
X-120942Y-168067D01*
X-120866Y-168095D01*
X-120795Y-168122D01*
X-120729Y-168144D01*
X-120680Y-168166D01*
X-120631Y-168182D01*
X-120598Y-168193D01*
X-120577Y-168204D01*
X-120571D01*
X-119173Y-168734D01*
Y-167014D01*
D02*
G37*
G36*
X-118846Y-182635D02*
X-118878D01*
X-118906D01*
X-118911D01*
X-119042Y-182640D01*
X-119162Y-182646D01*
X-119272Y-182662D01*
X-119375Y-182684D01*
X-119474Y-182706D01*
X-119561Y-182728D01*
X-119643Y-182755D01*
X-119714Y-182788D01*
X-119779Y-182815D01*
X-119834Y-182842D01*
X-119878Y-182864D01*
X-119916Y-182886D01*
X-119949Y-182908D01*
X-119971Y-182924D01*
X-119981Y-182930D01*
X-119987Y-182935D01*
X-120052Y-182995D01*
X-120107Y-183055D01*
X-120162Y-183115D01*
X-120200Y-183175D01*
X-120238Y-183235D01*
X-120265Y-183290D01*
X-120315Y-183399D01*
X-120336Y-183492D01*
X-120347Y-183536D01*
X-120353Y-183568D01*
X-120358Y-183596D01*
Y-183634D01*
X-120353Y-183705D01*
X-120342Y-183776D01*
X-120325Y-183847D01*
X-120303Y-183912D01*
X-120249Y-184027D01*
X-120183Y-184125D01*
X-120118Y-184207D01*
X-120091Y-184245D01*
X-120063Y-184273D01*
X-120042Y-184294D01*
X-120025Y-184311D01*
X-120014Y-184316D01*
X-120009Y-184322D01*
X-119938Y-184371D01*
X-119861Y-184420D01*
X-119785Y-184458D01*
X-119697Y-184491D01*
X-119523Y-184540D01*
X-119353Y-184573D01*
X-119272Y-184589D01*
X-119201Y-184595D01*
X-119135Y-184600D01*
X-119075Y-184606D01*
X-119026Y-184611D01*
X-118993D01*
X-118966D01*
X-118960D01*
X-118829Y-184606D01*
X-118704Y-184600D01*
X-118589Y-184584D01*
X-118485Y-184567D01*
X-118387Y-184546D01*
X-118294Y-184518D01*
X-118218Y-184491D01*
X-118147Y-184464D01*
X-118081Y-184436D01*
X-118027Y-184409D01*
X-117983Y-184387D01*
X-117945Y-184360D01*
X-117918Y-184344D01*
X-117896Y-184327D01*
X-117885Y-184322D01*
X-117879Y-184316D01*
X-117819Y-184262D01*
X-117765Y-184202D01*
X-117721Y-184142D01*
X-117683Y-184081D01*
X-117650Y-184021D01*
X-117617Y-183961D01*
X-117579Y-183852D01*
X-117552Y-183754D01*
X-117546Y-183710D01*
X-117541Y-183677D01*
X-117535Y-183645D01*
Y-183607D01*
X-117541Y-183530D01*
X-117552Y-183459D01*
X-117568Y-183394D01*
X-117590Y-183328D01*
X-117639Y-183213D01*
X-117705Y-183110D01*
X-117765Y-183028D01*
X-117792Y-182995D01*
X-117819Y-182968D01*
X-117836Y-182946D01*
X-117852Y-182930D01*
X-117863Y-182924D01*
X-117868Y-182919D01*
X-117934Y-182869D01*
X-118010Y-182826D01*
X-118092Y-182788D01*
X-118174Y-182755D01*
X-118349Y-182706D01*
X-118518Y-182673D01*
X-118595Y-182657D01*
X-118671Y-182651D01*
X-118737Y-182646D01*
X-118797Y-182640D01*
X-118846Y-182635D01*
D02*
G37*
G36*
X-119288Y-188794D02*
X-119375Y-188804D01*
X-119457Y-188815D01*
X-119605Y-188854D01*
X-119736Y-188908D01*
X-119796Y-188935D01*
X-119845Y-188963D01*
X-119894Y-188990D01*
X-119932Y-189017D01*
X-119965Y-189045D01*
X-119998Y-189067D01*
X-120020Y-189083D01*
X-120036Y-189099D01*
X-120042Y-189105D01*
X-120047Y-189110D01*
X-120096Y-189165D01*
X-120145Y-189225D01*
X-120183Y-189285D01*
X-120216Y-189345D01*
X-120265Y-189471D01*
X-120298Y-189580D01*
X-120320Y-189683D01*
X-120325Y-189722D01*
X-120331Y-189760D01*
X-120336Y-189787D01*
Y-189831D01*
X-120331Y-189918D01*
X-120320Y-190000D01*
X-120303Y-190077D01*
X-120282Y-190148D01*
X-120222Y-190279D01*
X-120189Y-190339D01*
X-120156Y-190393D01*
X-120123Y-190437D01*
X-120091Y-190481D01*
X-120058Y-190519D01*
X-120030Y-190546D01*
X-120009Y-190568D01*
X-119992Y-190590D01*
X-119981Y-190595D01*
X-119976Y-190601D01*
X-119883Y-190666D01*
X-119774Y-190721D01*
X-119659Y-190759D01*
X-119545Y-190792D01*
X-119446Y-190814D01*
X-119403Y-190819D01*
X-119364Y-190825D01*
X-119332Y-190830D01*
X-119310Y-190836D01*
X-119293D01*
X-119288D01*
Y-188794D01*
D02*
G37*
%LPD*%
D11*
X179457Y-163760D02*
Y-159823D01*
X186543Y-163760D02*
Y-159823D01*
X265457Y-73677D02*
Y-69740D01*
X272543Y-73677D02*
Y-69740D01*
Y-121468D02*
Y-117532D01*
X265457Y-121468D02*
Y-117532D01*
X-170457Y5531D02*
Y9469D01*
X-177543Y5531D02*
Y9469D01*
X-97957Y1531D02*
Y5469D01*
X-105043Y1531D02*
Y5469D01*
X108957Y-183468D02*
Y-179532D01*
X116043Y-183468D02*
Y-179532D01*
D13*
X-103185Y-139689D02*
Y-127878D01*
Y-139689D02*
X-99248Y-135752D01*
X-107122D02*
X-103185Y-139689D01*
X-114996Y-202681D02*
Y-139689D01*
Y-202681D02*
X-52004D01*
Y-139689D01*
X-114996D02*
X-52004D01*
X-199370Y-140004D02*
Y-128193D01*
Y-140004D02*
X-195433Y-136067D01*
X-203307D02*
X-199370Y-140004D01*
X-211181Y-202996D02*
Y-140004D01*
Y-202996D02*
X-148189D01*
Y-140004D01*
X-211181D02*
X-148189D01*
X189400Y-149600D02*
Y-143602D01*
X186401D01*
X185401Y-144602D01*
Y-146601D01*
X186401Y-147601D01*
X189400D01*
X187401D02*
X185401Y-149600D01*
X183402Y-144602D02*
X182402Y-143602D01*
X180403D01*
X179403Y-144602D01*
Y-145601D01*
X180403Y-146601D01*
X181403D01*
X180403D01*
X179403Y-147601D01*
Y-148600D01*
X180403Y-149600D01*
X182402D01*
X183402Y-148600D01*
X-197300Y-124700D02*
Y-118702D01*
X-200299D01*
X-201299Y-119702D01*
Y-121701D01*
X-200299Y-122701D01*
X-197300D01*
X-199299D02*
X-201299Y-124700D01*
X-207297Y-118702D02*
X-203298D01*
Y-124700D01*
X-207297D01*
X-203298Y-121701D02*
X-205297D01*
X-213295Y-118702D02*
X-209296D01*
Y-121701D01*
X-211296D01*
X-209296D01*
Y-124700D01*
X-219293D02*
X-215294D01*
X-219293Y-120701D01*
Y-119702D01*
X-218293Y-118702D01*
X-216294D01*
X-215294Y-119702D01*
X-103100Y-124400D02*
Y-118402D01*
X-106099D01*
X-107099Y-119402D01*
Y-121401D01*
X-106099Y-122401D01*
X-103100D01*
X-105099D02*
X-107099Y-124400D01*
X-113097Y-118402D02*
X-109098D01*
Y-124400D01*
X-113097D01*
X-109098Y-121401D02*
X-111097D01*
X-119095Y-118402D02*
X-115096D01*
Y-121401D01*
X-117095D01*
X-115096D01*
Y-124400D01*
X-121094D02*
X-123093D01*
X-122094D01*
Y-118402D01*
X-121094Y-119402D01*
X276998Y-137999D02*
Y-132001D01*
X273998D01*
X272999Y-133001D01*
Y-135000D01*
X273998Y-136000D01*
X276998D01*
X274998D02*
X272999Y-137999D01*
X271000D02*
X269000D01*
X270000D01*
Y-132001D01*
X271000Y-133001D01*
X266001D02*
X265002Y-132001D01*
X263002D01*
X262002Y-133001D01*
Y-134000D01*
X263002Y-135000D01*
X264002D01*
X263002D01*
X262002Y-136000D01*
Y-136999D01*
X263002Y-137999D01*
X265002D01*
X266001Y-136999D01*
X276998Y-58708D02*
Y-52710D01*
X273998D01*
X272999Y-53709D01*
Y-55709D01*
X273998Y-56708D01*
X276998D01*
X274998D02*
X272999Y-58708D01*
X271000D02*
X269000D01*
X270000D01*
Y-52710D01*
X271000Y-53709D01*
X262002Y-58708D02*
X266001D01*
X262002Y-54709D01*
Y-53709D01*
X263002Y-52710D01*
X265002D01*
X266001Y-53709D01*
X-195498Y9999D02*
Y4001D01*
X-192499D01*
X-191499Y5001D01*
Y7000D01*
X-192499Y8000D01*
X-195498D01*
X-193498D02*
X-191499Y9999D01*
X-189499D02*
X-187500D01*
X-188500D01*
Y4001D01*
X-189499Y5001D01*
X-184501D02*
X-183501Y4001D01*
X-181502D01*
X-180502Y5001D01*
Y8999D01*
X-181502Y9999D01*
X-183501D01*
X-184501Y8999D01*
Y5001D01*
X-117998Y5708D02*
Y-290D01*
X-114999D01*
X-114000Y709D01*
Y2709D01*
X-114999Y3708D01*
X-117998D01*
X-115999D02*
X-114000Y5708D01*
X-112000Y4708D02*
X-111001Y5708D01*
X-109001D01*
X-108002Y4708D01*
Y709D01*
X-109001Y-290D01*
X-111001D01*
X-112000Y709D01*
Y1709D01*
X-111001Y2709D01*
X-108002D01*
X115499Y-194002D02*
X109501D01*
Y-197001D01*
X110501Y-198000D01*
X112500D01*
X113500Y-197001D01*
Y-194002D01*
Y-196001D02*
X115499Y-198000D01*
Y-202999D02*
X109501D01*
X112500Y-200000D01*
Y-203998D01*
M02*
