G04*
G04 #@! TF.GenerationSoftware,Altium Limited,Altium Designer,22.9.1 (49)*
G04*
G04 Layer_Color=128*
%FSLAX25Y25*%
%MOIN*%
G70*
G04*
G04 #@! TF.SameCoordinates,1257689D-38EC-466F-A697-83967F765A24*
G04*
G04*
G04 #@! TF.FilePolarity,Positive*
G04*
G01*
G75*
%ADD73C,0.00200*%
D73*
X-251654Y933D02*
X-247716D01*
X-249685Y-1035D02*
Y2902D01*
X-231968Y933D02*
X-228031D01*
X-230000Y-1035D02*
Y2902D01*
X-212283Y933D02*
X-208347D01*
X-210315Y-1035D02*
Y2902D01*
X266531Y-160500D02*
X270468D01*
X268500Y-162469D02*
Y-158531D01*
X266531Y-101445D02*
X270468D01*
X268500Y-103413D02*
Y-99476D01*
X110335Y-197264D02*
X114665D01*
X112500Y-199429D02*
Y-195098D01*
X110335Y-167736D02*
X114665D01*
X112500Y-169902D02*
Y-165571D01*
X249812Y111241D02*
X253749D01*
X251781Y109272D02*
Y113209D01*
X265878Y45588D02*
X269815D01*
X267846Y43619D02*
Y47556D01*
X255596Y-21216D02*
X259533D01*
X257564Y-23185D02*
Y-19248D01*
X220532Y-79000D02*
X224468D01*
X222500Y-80968D02*
Y-77031D01*
X166024Y-118967D02*
X169961D01*
X167992Y-120935D02*
Y-116998D01*
X100370Y-135032D02*
X104307D01*
X102339Y-137001D02*
Y-133064D01*
X33567Y-124750D02*
X37504D01*
X35535Y-126718D02*
Y-122782D01*
X-24217Y-89686D02*
X-20280D01*
X-22249Y-91654D02*
Y-87717D01*
X-64184Y-35178D02*
X-60247D01*
X-62216Y-37147D02*
Y-33210D01*
X-80249Y30475D02*
X-76312D01*
X-78281Y28507D02*
Y32444D01*
X-69967Y97279D02*
X-66030D01*
X-67999Y95310D02*
Y99247D01*
X-132772Y-34500D02*
X-129228D01*
X-131000Y-36272D02*
Y-32728D01*
X-93402Y-34500D02*
X-89858D01*
X-91630Y-36272D02*
Y-32728D01*
X-148272Y-34500D02*
X-144728D01*
X-146500Y-36272D02*
Y-32728D01*
X-187642Y-34500D02*
X-184098D01*
X-185870Y-36272D02*
Y-32728D01*
X-178272Y23870D02*
X-172366D01*
X-175319Y20917D02*
Y26823D01*
X-178272Y-15500D02*
X-172366D01*
X-175319Y-18453D02*
Y-12547D01*
X-104453Y-15500D02*
X-98547D01*
X-101500Y-18453D02*
Y-12547D01*
X-104453Y23870D02*
X-98547D01*
X-101500Y20917D02*
Y26823D01*
X-90272Y-151500D02*
X-86728D01*
X-88500Y-153272D02*
Y-149728D01*
X-80272Y-151500D02*
X-76728D01*
X-78500Y-153272D02*
Y-149728D01*
X-85272Y-161500D02*
X-81728D01*
X-83500Y-163272D02*
Y-159728D01*
X-90272Y-190870D02*
X-86728D01*
X-88500Y-192642D02*
Y-189098D01*
X-80272Y-190870D02*
X-76728D01*
X-78500Y-192642D02*
Y-189098D01*
X-85272Y-180870D02*
X-81728D01*
X-83500Y-182642D02*
Y-179098D01*
X-104957Y-171185D02*
X-101413D01*
X-103185Y-172957D02*
Y-169413D01*
X-65587Y-171185D02*
X-62043D01*
X-63815Y-172957D02*
Y-169413D01*
X-186457Y-151815D02*
X-182913D01*
X-184685Y-153587D02*
Y-150043D01*
X-176457Y-151815D02*
X-172913D01*
X-174685Y-153587D02*
Y-150043D01*
X-181457Y-161815D02*
X-177913D01*
X-179685Y-163587D02*
Y-160043D01*
X-186457Y-191185D02*
X-182913D01*
X-184685Y-192957D02*
Y-189413D01*
X-176457Y-191185D02*
X-172913D01*
X-174685Y-192957D02*
Y-189413D01*
X-181457Y-181185D02*
X-177913D01*
X-179685Y-182957D02*
Y-179413D01*
X-201142Y-171500D02*
X-197598D01*
X-199370Y-173272D02*
Y-169728D01*
X-161772Y-171500D02*
X-158228D01*
X-160000Y-173272D02*
Y-169728D01*
X-158953Y122000D02*
X-153047D01*
X-156000Y119047D02*
Y124953D01*
X-143272Y-181000D02*
X-139728D01*
X-141500Y-182772D02*
Y-179228D01*
X-143272Y-171000D02*
X-139728D01*
X-141500Y-172772D02*
Y-169228D01*
X-128772Y-181000D02*
X-125228D01*
X-127000Y-182772D02*
Y-179228D01*
X-128772Y-171000D02*
X-125228D01*
X-127000Y-172772D02*
Y-169228D01*
X-268807Y122500D02*
X-263295D01*
X-266051Y119744D02*
Y125256D01*
X-178256Y122500D02*
X-172744D01*
X-175500Y119744D02*
Y125256D01*
X-201468Y-42500D02*
X-197531D01*
X-199500Y-44469D02*
Y-40532D01*
X-260524Y-42500D02*
X-256587D01*
X-258555Y-44469D02*
Y-40532D01*
X-205878Y88500D02*
X-200760D01*
X-203319Y85941D02*
Y91059D01*
X-205878Y49130D02*
X-200760D01*
X-203319Y46571D02*
Y51689D01*
X-257059Y88500D02*
X-251941D01*
X-254500Y85941D02*
Y91059D01*
X-257059Y49130D02*
X-251941D01*
X-254500Y46571D02*
Y51689D01*
X-126937Y156000D02*
X-119063D01*
X-123000Y152063D02*
Y159937D01*
X-99378Y156000D02*
X-91504D01*
X-95441Y152063D02*
Y159937D01*
X-154496Y156000D02*
X-146622D01*
X-150559Y152063D02*
Y159937D01*
X215835Y-94500D02*
X220165D01*
X218000Y-96665D02*
Y-92335D01*
X235835Y-94500D02*
X240165D01*
X238000Y-96665D02*
Y-92335D01*
X235835Y-114500D02*
X240165D01*
X238000Y-116665D02*
Y-112335D01*
X215835Y-114500D02*
X220165D01*
X218000Y-116665D02*
Y-112335D01*
X181335Y-145972D02*
X185665D01*
X183500Y-148138D02*
Y-143807D01*
X181335Y-175500D02*
X185665D01*
X183500Y-177665D02*
Y-173335D01*
X266531Y-29445D02*
X270468D01*
X268500Y-31413D02*
Y-27476D01*
X266531Y-88500D02*
X270468D01*
X268500Y-90469D02*
Y-86532D01*
X-99453Y124000D02*
X-93547D01*
X-96500Y121047D02*
Y126953D01*
X-110913Y63000D02*
X-106976D01*
X-108945Y61032D02*
Y64969D01*
X-169968Y63000D02*
X-166032D01*
X-168000Y61032D02*
Y64969D01*
X-176969Y-54500D02*
X-173031D01*
X-175000Y-56468D02*
Y-52531D01*
X-96969Y-54500D02*
X-93032D01*
X-95000Y-56468D02*
Y-52531D01*
X84024Y-200390D02*
X85598D01*
X84811Y-201177D02*
Y-199602D01*
X163230Y-182783D02*
X164804D01*
X164017Y-183571D02*
Y-181996D01*
X144351Y-201662D02*
X145926D01*
X145138Y-202449D02*
Y-200875D01*
X103709Y-160453D02*
X105283D01*
X104496Y-161240D02*
Y-159665D01*
X82978Y-162065D02*
X84553D01*
X83765Y-162853D02*
Y-161278D01*
X261189Y-62594D02*
X262764D01*
X261976Y-63382D02*
Y-61807D01*
X261189Y-121650D02*
X262764D01*
X261976Y-122437D02*
Y-120862D01*
X261189Y-141335D02*
X262764D01*
X261976Y-142122D02*
Y-140547D01*
X241504Y-101965D02*
X243079D01*
X242291Y-102752D02*
Y-101177D01*
X241504Y-121650D02*
X243079D01*
X242291Y-122437D02*
Y-120862D01*
X241504Y-141335D02*
X243079D01*
X242291Y-142122D02*
Y-140547D01*
X202134Y-180705D02*
X203709D01*
X202921Y-181492D02*
Y-179917D01*
X202134Y-200390D02*
X203709D01*
X202921Y-201177D02*
Y-199602D01*
X182449Y-200390D02*
X184024D01*
X183236Y-201177D02*
Y-199602D01*
X162764Y-161020D02*
X164339D01*
X163551Y-161807D02*
Y-160232D01*
X162764Y-200390D02*
X164339D01*
X163551Y-201177D02*
Y-199602D01*
X143079Y-141335D02*
X144654D01*
X143866Y-142122D02*
Y-140547D01*
X143079Y-180705D02*
X144654D01*
X143866Y-181492D02*
Y-179917D01*
X123394Y-141335D02*
X124969D01*
X124181Y-142122D02*
Y-140547D01*
X123394Y-180705D02*
X124969D01*
X124181Y-181492D02*
Y-179917D01*
X123394Y-200390D02*
X124969D01*
X124181Y-201177D02*
Y-199602D01*
X103709Y-180705D02*
X105283D01*
X104496Y-181492D02*
Y-179917D01*
X103709Y-200390D02*
X105283D01*
X104496Y-201177D02*
Y-199602D01*
X84024Y-141335D02*
X85598D01*
X84811Y-142122D02*
Y-140547D01*
X84024Y-180705D02*
X85598D01*
X84811Y-181492D02*
Y-179917D01*
X64339Y-161020D02*
X65913D01*
X65126Y-161807D02*
Y-160232D01*
X44654Y-200390D02*
X46228D01*
X45441Y-201177D02*
Y-199602D01*
X24969Y-200390D02*
X26543D01*
X25756Y-201177D02*
Y-199602D01*
X5283Y-121650D02*
X6858D01*
X6071Y-122437D02*
Y-120862D01*
X-14402Y-101965D02*
X-12827D01*
X-13614Y-102752D02*
Y-101177D01*
X-14402Y-121650D02*
X-12827D01*
X-13614Y-122437D02*
Y-120862D01*
X-34087Y-121650D02*
X-32512D01*
X-33299Y-122437D02*
Y-120862D01*
X-34087Y-141335D02*
X-32512D01*
X-33299Y-142122D02*
Y-140547D01*
X-34087Y-161020D02*
X-32512D01*
X-33299Y-161807D02*
Y-160232D01*
X-34087Y-180705D02*
X-32512D01*
X-33299Y-181492D02*
Y-179917D01*
X-34087Y-200390D02*
X-32512D01*
X-33299Y-201177D02*
Y-199602D01*
X-53772Y-141335D02*
X-52197D01*
X-52984Y-142122D02*
Y-140547D01*
X-53772Y-161020D02*
X-52197D01*
X-52984Y-161807D02*
Y-160232D01*
X-53772Y-180705D02*
X-52197D01*
X-52984Y-181492D02*
Y-179917D01*
X-53772Y-200390D02*
X-52197D01*
X-52984Y-201177D02*
Y-199602D01*
X-93142Y-141335D02*
X-91567D01*
X-92354Y-142122D02*
Y-140547D01*
X-93142Y-200390D02*
X-91567D01*
X-92354Y-201177D02*
Y-199602D01*
X-112827Y-141335D02*
X-111252D01*
X-112039Y-142122D02*
Y-140547D01*
X-112827Y-180705D02*
X-111252D01*
X-112039Y-181492D02*
Y-179917D01*
X-112827Y-200390D02*
X-111252D01*
X-112039Y-201177D02*
Y-199602D01*
X-132512Y-141335D02*
X-130937D01*
X-131724Y-142122D02*
Y-140547D01*
X-132512Y-200390D02*
X-130937D01*
X-131724Y-201177D02*
Y-199602D01*
X-152197Y-141335D02*
X-150622D01*
X-151409Y-142122D02*
Y-140547D01*
X-152197Y-200390D02*
X-150622D01*
X-151409Y-201177D02*
Y-199602D01*
X-191567Y-141335D02*
X-189992D01*
X-190779Y-142122D02*
Y-140547D01*
X-191567Y-200390D02*
X-189992D01*
X-190779Y-201177D02*
Y-199602D01*
X-211252Y-141335D02*
X-209677D01*
X-210465Y-142122D02*
Y-140547D01*
X-211252Y-161020D02*
X-209677D01*
X-210465Y-161807D02*
Y-160232D01*
X-211252Y-180705D02*
X-209677D01*
X-210465Y-181492D02*
Y-179917D01*
X-211252Y-200390D02*
X-209677D01*
X-210465Y-201177D02*
Y-199602D01*
X21244Y-190000D02*
X26756D01*
X24000Y-192756D02*
Y-187244D01*
X71244Y-208500D02*
X76756D01*
X74000Y-211256D02*
Y-205744D01*
X-24756Y-142000D02*
X-19244D01*
X-22000Y-144756D02*
Y-139244D01*
X221744Y-137000D02*
X227256D01*
X224500Y-139756D02*
Y-134244D01*
X-141256Y56500D02*
X-135744D01*
X-138500Y53744D02*
Y59256D01*
M02*
