G04*
G04 #@! TF.GenerationSoftware,Altium Limited,Altium Designer,22.9.1 (49)*
G04*
G04 Layer_Color=16711935*
%FSLAX25Y25*%
%MOIN*%
G70*
G04*
G04 #@! TF.SameCoordinates,1257689D-38EC-466F-A697-83967F765A24*
G04*
G04*
G04 #@! TF.FilePolarity,Positive*
G04*
G01*
G75*
%ADD13C,0.01000*%
%ADD72C,0.00591*%
D13*
X-126000Y15567D02*
G03*
X-123500Y13067I2500J0D01*
G01*
X-121500D02*
G03*
X-119500Y15067I0J2000D01*
G01*
Y38067D02*
G03*
X-121500Y40067I-2000J0D01*
G01*
X-124000D02*
G03*
X-126000Y38067I0J-2000D01*
G01*
X-114500Y-47933D02*
G03*
X-112000Y-50433I2500J0D01*
G01*
X-110000D02*
G03*
X-108000Y-48433I0J2000D01*
G01*
Y-25433D02*
G03*
X-110000Y-23433I-2000J0D01*
G01*
X-112500D02*
G03*
X-114500Y-25433I0J-2000D01*
G01*
X-162567Y-72500D02*
G03*
X-160067Y-70000I0J2500D01*
G01*
Y-68000D02*
G03*
X-162067Y-66000I-2000J0D01*
G01*
X-185067D02*
G03*
X-187067Y-68000I0J-2000D01*
G01*
Y-70500D02*
G03*
X-185067Y-72500I2000J0D01*
G01*
X-229500Y73067D02*
G03*
X-227000Y70567I2500J0D01*
G01*
X-225000D02*
G03*
X-223000Y72567I0J2000D01*
G01*
Y95567D02*
G03*
X-225000Y97567I-2000J0D01*
G01*
X-227500D02*
G03*
X-229500Y95567I0J-2000D01*
G01*
X-214933Y107500D02*
G03*
X-217433Y105000I0J-2500D01*
G01*
Y103000D02*
G03*
X-215433Y101000I2000J0D01*
G01*
X-192433D02*
G03*
X-190433Y103000I0J2000D01*
G01*
Y105500D02*
G03*
X-192433Y107500I-2000J0D01*
G01*
X-139500Y146567D02*
G03*
X-137000Y144067I2500J0D01*
G01*
X-135000D02*
G03*
X-133000Y146067I0J2000D01*
G01*
Y169067D02*
G03*
X-135000Y171067I-2000J0D01*
G01*
X-137500D02*
G03*
X-139500Y169067I0J-2000D01*
G01*
X-111500Y145567D02*
G03*
X-109000Y143067I2500J0D01*
G01*
X-107000D02*
G03*
X-105000Y145067I0J2000D01*
G01*
Y168067D02*
G03*
X-107000Y170067I-2000J0D01*
G01*
X-109500D02*
G03*
X-111500Y168067I0J-2000D01*
G01*
X-183433Y78000D02*
G03*
X-185933Y75500I0J-2500D01*
G01*
Y73500D02*
G03*
X-183933Y71500I2000J0D01*
G01*
X-160933D02*
G03*
X-158933Y73500I0J2000D01*
G01*
Y76000D02*
G03*
X-160933Y78000I-2000J0D01*
G01*
X-147500Y73933D02*
G03*
X-150000Y76433I-2500J0D01*
G01*
X-152000D02*
G03*
X-154000Y74433I0J-2000D01*
G01*
Y51433D02*
G03*
X-152000Y49433I2000J0D01*
G01*
X-149500D02*
G03*
X-147500Y51433I0J2000D01*
G01*
X-117000Y72933D02*
G03*
X-119500Y75433I-2500J0D01*
G01*
X-121500D02*
G03*
X-123500Y73433I0J-2000D01*
G01*
Y50433D02*
G03*
X-121500Y48433I2000J0D01*
G01*
X-119000D02*
G03*
X-117000Y50433I0J2000D01*
G01*
X-219000Y-13067D02*
G03*
X-217000Y-11067I0J2000D01*
G01*
X-223500D02*
G03*
X-221500Y-13067I2000J0D01*
G01*
Y13933D02*
G03*
X-223500Y11933I0J-2000D01*
G01*
X-217000Y11433D02*
G03*
X-219500Y13933I-2500J0D01*
G01*
X-278500Y-168500D02*
Y168000D01*
X-123500Y13067D02*
X-121500D01*
X-124000Y40067D02*
X-121500D01*
X-126000Y15567D02*
Y25067D01*
Y38067D01*
X-119500Y15067D02*
Y38067D01*
X-112000Y-50433D02*
X-110000D01*
X-112500Y-23433D02*
X-110000D01*
X-114500Y-47933D02*
Y-38433D01*
Y-25433D01*
X-108000Y-48433D02*
Y-25433D01*
X-160067Y-70000D02*
Y-68000D01*
X-187067Y-70500D02*
Y-68000D01*
X-172067Y-72500D02*
X-162567D01*
X-185067D02*
X-172067D01*
X-185067Y-66000D02*
X-162067D01*
X-227000Y70567D02*
X-225000D01*
X-227500Y97567D02*
X-225000D01*
X-229500Y73067D02*
Y82567D01*
Y95567D01*
X-223000Y72567D02*
Y95567D01*
X-217433Y103000D02*
Y105000D01*
X-190433Y103000D02*
Y105500D01*
X-214933Y107500D02*
X-205433D01*
X-192433D01*
X-215433Y101000D02*
X-192433D01*
X-137000Y144067D02*
X-135000D01*
X-137500Y171067D02*
X-135000D01*
X-139500Y146567D02*
Y156067D01*
Y169067D01*
X-133000Y146067D02*
Y169067D01*
X-109000Y143067D02*
X-107000D01*
X-109500Y170067D02*
X-107000D01*
X-111500Y145567D02*
Y155067D01*
Y168067D01*
X-105000Y145067D02*
Y168067D01*
X-185933Y73500D02*
Y75500D01*
X-158933Y73500D02*
Y76000D01*
X-183433Y78000D02*
X-173933D01*
X-160933D01*
X-183933Y71500D02*
X-160933D01*
X-152000Y76433D02*
X-150000D01*
X-152000Y49433D02*
X-149500D01*
X-147500Y64433D02*
Y73933D01*
Y51433D02*
Y64433D01*
X-154000Y51433D02*
Y74433D01*
X-121500Y75433D02*
X-119500D01*
X-121500Y48433D02*
X-119000D01*
X-117000Y63433D02*
Y72933D01*
Y50433D02*
Y63433D01*
X-123500Y50433D02*
Y73433D01*
X-223500Y-11067D02*
Y11933D01*
X-217000Y-11067D02*
Y1933D01*
Y11433D01*
X-221500Y-13067D02*
X-219000D01*
X-221500Y13933D02*
X-219500D01*
X278543Y-168000D02*
X278543Y168000D01*
X-220500Y-219488D02*
X220500D01*
Y168000D02*
X278500D01*
X220500Y-219500D02*
Y-168000D01*
X278500D01*
X-220000Y219488D02*
X220500Y219488D01*
Y168000D02*
Y219500D01*
X-278500Y168000D02*
X-220000D01*
Y219500D01*
X-220500Y-219500D02*
Y-168500D01*
X-278500D02*
X-220500D01*
D72*
X260137Y38031D02*
G03*
X260137Y38031I-165354J0D01*
G01*
X-36779Y185134D02*
G03*
X-36779Y185134I-7480J0D01*
G01*
X-194260D02*
G03*
X-194260Y185134I-7480J0D01*
G01*
M02*
