G04*
G04 #@! TF.GenerationSoftware,Altium Limited,Altium Designer,22.9.1 (49)*
G04*
G04 Layer_Color=2752767*
%FSLAX25Y25*%
%MOIN*%
G70*
G04*
G04 #@! TF.SameCoordinates,1257689D-38EC-466F-A697-83967F765A24*
G04*
G04*
G04 #@! TF.FilePolarity,Positive*
G04*
G01*
G75*
%ADD73C,0.00200*%
%ADD74C,0.00267*%
D73*
X-249685Y133D02*
X-250485Y1733D01*
X-248885D01*
X-249685Y133D01*
X-230000D02*
X-230800Y1733D01*
X-229200D01*
X-230000Y133D01*
X-210315D02*
X-211115Y1733D01*
X-209515D01*
X-210315Y133D01*
X268500Y-161300D02*
X267700Y-159700D01*
X269300D01*
X268500Y-161300D01*
Y-102245D02*
X267700Y-100645D01*
X269300D01*
X268500Y-102245D01*
X251781Y110441D02*
X250981Y112041D01*
X252581D01*
X251781Y110441D01*
X267846Y44787D02*
X267046Y46387D01*
X268646D01*
X267846Y44787D01*
X257564Y-22016D02*
X256764Y-20416D01*
X258364D01*
X257564Y-22016D01*
X222500Y-79800D02*
X221700Y-78200D01*
X223300D01*
X222500Y-79800D01*
X167992Y-119767D02*
X167192Y-118167D01*
X168792D01*
X167992Y-119767D01*
X102339Y-135832D02*
X101539Y-134232D01*
X103139D01*
X102339Y-135832D01*
X35535Y-125550D02*
X34735Y-123950D01*
X36335D01*
X35535Y-125550D01*
X-22249Y-90486D02*
X-23049Y-88886D01*
X-21449D01*
X-22249Y-90486D01*
X-62216Y-35978D02*
X-63016Y-34378D01*
X-61415D01*
X-62216Y-35978D01*
X-78281Y29675D02*
X-79081Y31275D01*
X-77481D01*
X-78281Y29675D01*
X-67999Y96479D02*
X-68799Y98079D01*
X-67199D01*
X-67999Y96479D01*
X-131000Y-35300D02*
X-130600Y-34900D01*
X-130200D01*
X-130600Y-34500D01*
X-130200Y-34100D01*
X-130600D01*
X-131000Y-33700D01*
X-131400Y-34100D01*
X-131800D01*
X-131400Y-34500D01*
X-131800Y-34900D01*
X-131400D01*
X-131000Y-35300D01*
X-91630D02*
X-91230Y-34900D01*
X-90830D01*
X-91230Y-34500D01*
X-90830Y-34100D01*
X-91230D01*
X-91630Y-33700D01*
X-92030Y-34100D01*
X-92430D01*
X-92030Y-34500D01*
X-92430Y-34900D01*
X-92030D01*
X-91630Y-35300D01*
X-146500D02*
X-146100Y-34900D01*
X-145700D01*
X-146100Y-34500D01*
X-145700Y-34100D01*
X-146100D01*
X-146500Y-33700D01*
X-146900Y-34100D01*
X-147300D01*
X-146900Y-34500D01*
X-147300Y-34900D01*
X-146900D01*
X-146500Y-35300D01*
X-185870D02*
X-185470Y-34900D01*
X-185070D01*
X-185470Y-34500D01*
X-185070Y-34100D01*
X-185470D01*
X-185870Y-33700D01*
X-186270Y-34100D01*
X-186670D01*
X-186270Y-34500D01*
X-186670Y-34900D01*
X-186270D01*
X-185870Y-35300D01*
X-176119Y23070D02*
X-175719Y23870D01*
X-176119Y24670D01*
X-175319Y24270D01*
X-174519Y24670D01*
X-174919Y23870D01*
X-174519Y23070D01*
X-175319Y23470D01*
X-176119Y23070D01*
Y-16300D02*
X-175719Y-15500D01*
X-176119Y-14700D01*
X-175319Y-15100D01*
X-174519Y-14700D01*
X-174919Y-15500D01*
X-174519Y-16300D01*
X-175319Y-15900D01*
X-176119Y-16300D01*
X-102300D02*
X-101900Y-15500D01*
X-102300Y-14700D01*
X-101500Y-15100D01*
X-100700Y-14700D01*
X-101100Y-15500D01*
X-100700Y-16300D01*
X-101500Y-15900D01*
X-102300Y-16300D01*
Y23070D02*
X-101900Y23870D01*
X-102300Y24670D01*
X-101500Y24270D01*
X-100700Y24670D01*
X-101100Y23870D01*
X-100700Y23070D01*
X-101500Y23470D01*
X-102300Y23070D01*
X-88500Y-152300D02*
X-88100Y-151900D01*
X-87700D01*
X-88100Y-151500D01*
X-87700Y-151100D01*
X-88100D01*
X-88500Y-150700D01*
X-88900Y-151100D01*
X-89300D01*
X-88900Y-151500D01*
X-89300Y-151900D01*
X-88900D01*
X-88500Y-152300D01*
X-78500D02*
X-78100Y-151900D01*
X-77700D01*
X-78100Y-151500D01*
X-77700Y-151100D01*
X-78100D01*
X-78500Y-150700D01*
X-78900Y-151100D01*
X-79300D01*
X-78900Y-151500D01*
X-79300Y-151900D01*
X-78900D01*
X-78500Y-152300D01*
X-83500Y-162300D02*
X-83100Y-161900D01*
X-82700D01*
X-83100Y-161500D01*
X-82700Y-161100D01*
X-83100D01*
X-83500Y-160700D01*
X-83900Y-161100D01*
X-84300D01*
X-83900Y-161500D01*
X-84300Y-161900D01*
X-83900D01*
X-83500Y-162300D01*
X-88500Y-191670D02*
X-88100Y-191270D01*
X-87700D01*
X-88100Y-190870D01*
X-87700Y-190470D01*
X-88100D01*
X-88500Y-190070D01*
X-88900Y-190470D01*
X-89300D01*
X-88900Y-190870D01*
X-89300Y-191270D01*
X-88900D01*
X-88500Y-191670D01*
X-78500D02*
X-78100Y-191270D01*
X-77700D01*
X-78100Y-190870D01*
X-77700Y-190470D01*
X-78100D01*
X-78500Y-190070D01*
X-78900Y-190470D01*
X-79300D01*
X-78900Y-190870D01*
X-79300Y-191270D01*
X-78900D01*
X-78500Y-191670D01*
X-83500Y-181670D02*
X-83100Y-181270D01*
X-82700D01*
X-83100Y-180870D01*
X-82700Y-180470D01*
X-83100D01*
X-83500Y-180070D01*
X-83900Y-180470D01*
X-84300D01*
X-83900Y-180870D01*
X-84300Y-181270D01*
X-83900D01*
X-83500Y-181670D01*
X-103185Y-171985D02*
X-102785Y-171585D01*
X-102385D01*
X-102785Y-171185D01*
X-102385Y-170785D01*
X-102785D01*
X-103185Y-170385D01*
X-103585Y-170785D01*
X-103985D01*
X-103585Y-171185D01*
X-103985Y-171585D01*
X-103585D01*
X-103185Y-171985D01*
X-63815D02*
X-63415Y-171585D01*
X-63015D01*
X-63415Y-171185D01*
X-63015Y-170785D01*
X-63415D01*
X-63815Y-170385D01*
X-64215Y-170785D01*
X-64615D01*
X-64215Y-171185D01*
X-64615Y-171585D01*
X-64215D01*
X-63815Y-171985D01*
X-184685Y-152615D02*
X-184285Y-152215D01*
X-183885D01*
X-184285Y-151815D01*
X-183885Y-151415D01*
X-184285D01*
X-184685Y-151015D01*
X-185085Y-151415D01*
X-185485D01*
X-185085Y-151815D01*
X-185485Y-152215D01*
X-185085D01*
X-184685Y-152615D01*
X-174685D02*
X-174285Y-152215D01*
X-173885D01*
X-174285Y-151815D01*
X-173885Y-151415D01*
X-174285D01*
X-174685Y-151015D01*
X-175085Y-151415D01*
X-175485D01*
X-175085Y-151815D01*
X-175485Y-152215D01*
X-175085D01*
X-174685Y-152615D01*
X-179685Y-162615D02*
X-179285Y-162215D01*
X-178885D01*
X-179285Y-161815D01*
X-178885Y-161415D01*
X-179285D01*
X-179685Y-161015D01*
X-180085Y-161415D01*
X-180485D01*
X-180085Y-161815D01*
X-180485Y-162215D01*
X-180085D01*
X-179685Y-162615D01*
X-184685Y-191985D02*
X-184285Y-191585D01*
X-183885D01*
X-184285Y-191185D01*
X-183885Y-190785D01*
X-184285D01*
X-184685Y-190385D01*
X-185085Y-190785D01*
X-185485D01*
X-185085Y-191185D01*
X-185485Y-191585D01*
X-185085D01*
X-184685Y-191985D01*
X-174685D02*
X-174285Y-191585D01*
X-173885D01*
X-174285Y-191185D01*
X-173885Y-190785D01*
X-174285D01*
X-174685Y-190385D01*
X-175085Y-190785D01*
X-175485D01*
X-175085Y-191185D01*
X-175485Y-191585D01*
X-175085D01*
X-174685Y-191985D01*
X-179685Y-181985D02*
X-179285Y-181585D01*
X-178885D01*
X-179285Y-181185D01*
X-178885Y-180785D01*
X-179285D01*
X-179685Y-180385D01*
X-180085Y-180785D01*
X-180485D01*
X-180085Y-181185D01*
X-180485Y-181585D01*
X-180085D01*
X-179685Y-181985D01*
X-199370Y-172300D02*
X-198970Y-171900D01*
X-198570D01*
X-198970Y-171500D01*
X-198570Y-171100D01*
X-198970D01*
X-199370Y-170700D01*
X-199770Y-171100D01*
X-200170D01*
X-199770Y-171500D01*
X-200170Y-171900D01*
X-199770D01*
X-199370Y-172300D01*
X-160000D02*
X-159600Y-171900D01*
X-159200D01*
X-159600Y-171500D01*
X-159200Y-171100D01*
X-159600D01*
X-160000Y-170700D01*
X-160400Y-171100D01*
X-160800D01*
X-160400Y-171500D01*
X-160800Y-171900D01*
X-160400D01*
X-160000Y-172300D01*
X-156800Y121200D02*
X-156400Y122000D01*
X-156800Y122800D01*
X-156000Y122400D01*
X-155200Y122800D01*
X-155600Y122000D01*
X-155200Y121200D01*
X-156000Y121600D01*
X-156800Y121200D01*
X-141500Y-181800D02*
X-141100Y-181400D01*
X-140700D01*
X-141100Y-181000D01*
X-140700Y-180600D01*
X-141100D01*
X-141500Y-180200D01*
X-141900Y-180600D01*
X-142300D01*
X-141900Y-181000D01*
X-142300Y-181400D01*
X-141900D01*
X-141500Y-181800D01*
Y-171800D02*
X-141100Y-171400D01*
X-140700D01*
X-141100Y-171000D01*
X-140700Y-170600D01*
X-141100D01*
X-141500Y-170200D01*
X-141900Y-170600D01*
X-142300D01*
X-141900Y-171000D01*
X-142300Y-171400D01*
X-141900D01*
X-141500Y-171800D01*
X-127000Y-181800D02*
X-126600Y-181400D01*
X-126200D01*
X-126600Y-181000D01*
X-126200Y-180600D01*
X-126600D01*
X-127000Y-180200D01*
X-127400Y-180600D01*
X-127800D01*
X-127400Y-181000D01*
X-127800Y-181400D01*
X-127400D01*
X-127000Y-181800D01*
Y-171800D02*
X-126600Y-171400D01*
X-126200D01*
X-126600Y-171000D01*
X-126200Y-170600D01*
X-126600D01*
X-127000Y-170200D01*
X-127400Y-170600D01*
X-127800D01*
X-127400Y-171000D01*
X-127800Y-171400D01*
X-127400D01*
X-127000Y-171800D01*
X-266851Y121700D02*
X-266451D01*
X-266051Y122100D01*
X-265651Y121700D01*
X-265251D01*
Y122100D01*
X-265651Y122500D01*
X-265251Y122900D01*
Y123300D01*
X-265651D01*
X-266051Y122900D01*
X-266451Y123300D01*
X-266851D01*
Y122900D01*
X-266451Y122500D01*
X-266851Y122100D01*
Y121700D01*
X-176300D02*
X-175900D01*
X-175500Y122100D01*
X-175100Y121700D01*
X-174700D01*
Y122100D01*
X-175100Y122500D01*
X-174700Y122900D01*
Y123300D01*
X-175100D01*
X-175500Y122900D01*
X-175900Y123300D01*
X-176300D01*
Y122900D01*
X-175900Y122500D01*
X-176300Y122100D01*
Y121700D01*
X-199500Y-43300D02*
X-200300Y-41700D01*
X-198700D01*
X-199500Y-43300D01*
X-258555D02*
X-259355Y-41700D01*
X-257755D01*
X-258555Y-43300D01*
X-203719Y88100D02*
Y87700D01*
X-202919D01*
Y88100D01*
X-202519D01*
Y88900D01*
X-202919D01*
Y89300D01*
X-203719D01*
Y88900D01*
X-204119D01*
Y88100D01*
X-203719D01*
Y48730D02*
Y48330D01*
X-202919D01*
Y48730D01*
X-202519D01*
Y49530D01*
X-202919D01*
Y49930D01*
X-203719D01*
Y49530D01*
X-204119D01*
Y48730D01*
X-203719D01*
X-254900Y88100D02*
Y87700D01*
X-254100D01*
Y88100D01*
X-253700D01*
Y88900D01*
X-254100D01*
Y89300D01*
X-254900D01*
Y88900D01*
X-255300D01*
Y88100D01*
X-254900D01*
Y48730D02*
Y48330D01*
X-254100D01*
Y48730D01*
X-253700D01*
Y49530D01*
X-254100D01*
Y49930D01*
X-254900D01*
Y49530D01*
X-255300D01*
Y48730D01*
X-254900D01*
X-123800Y155200D02*
X-123400Y156000D01*
X-123800Y156800D01*
X-123000Y156400D01*
X-122200Y156800D01*
X-122600Y156000D01*
X-122200Y155200D01*
X-123000Y155600D01*
X-123800Y155200D01*
X-123400Y155600D02*
X-123200Y156000D01*
X-123400Y156400D01*
X-123000Y156200D01*
X-122600Y156400D01*
X-122800Y156000D01*
X-122600Y155600D01*
X-123000Y155800D01*
X-123400Y155600D01*
X-96241Y155200D02*
X-95841Y156000D01*
X-96241Y156800D01*
X-95441Y156400D01*
X-94641Y156800D01*
X-95041Y156000D01*
X-94641Y155200D01*
X-95441Y155600D01*
X-96241Y155200D01*
X-95841Y155600D02*
X-95641Y156000D01*
X-95841Y156400D01*
X-95441Y156200D01*
X-95041Y156400D01*
X-95241Y156000D01*
X-95041Y155600D01*
X-95441Y155800D01*
X-95841Y155600D01*
X-151359Y155200D02*
X-150959Y156000D01*
X-151359Y156800D01*
X-150559Y156400D01*
X-149759Y156800D01*
X-150159Y156000D01*
X-149759Y155200D01*
X-150559Y155600D01*
X-151359Y155200D01*
X-150959Y155600D02*
X-150759Y156000D01*
X-150959Y156400D01*
X-150559Y156200D01*
X-150159Y156400D01*
X-150359Y156000D01*
X-150159Y155600D01*
X-150559Y155800D01*
X-150959Y155600D01*
X268500Y-30245D02*
X267700Y-28645D01*
X269300D01*
X268500Y-30245D01*
Y-89300D02*
X267700Y-87700D01*
X269300D01*
X268500Y-89300D01*
X-97300Y123200D02*
X-96900Y124000D01*
X-97300Y124800D01*
X-96500Y124400D01*
X-95700Y124800D01*
X-96100Y124000D01*
X-95700Y123200D01*
X-96500Y123600D01*
X-97300Y123200D01*
X-108945Y62200D02*
X-109745Y63800D01*
X-108145D01*
X-108945Y62200D01*
X-168000D02*
X-168800Y63800D01*
X-167200D01*
X-168000Y62200D01*
X-175000Y-55300D02*
X-175800Y-53700D01*
X-174200D01*
X-175000Y-55300D01*
X-95000D02*
X-95800Y-53700D01*
X-94200D01*
X-95000Y-55300D01*
X84011Y-201190D02*
Y-199590D01*
X85611D01*
Y-201190D01*
X84011D01*
X163217Y-183583D02*
Y-181983D01*
X164817D01*
Y-183583D01*
X163217D01*
X144338Y-202462D02*
Y-200862D01*
X145938D01*
Y-202462D01*
X144338D01*
X103696Y-161253D02*
Y-159653D01*
X105296D01*
Y-161253D01*
X103696D01*
X82965Y-162865D02*
Y-161266D01*
X84565D01*
Y-162865D01*
X82965D01*
X261176Y-63394D02*
Y-61795D01*
X262776D01*
Y-63394D01*
X261176D01*
Y-122450D02*
Y-120850D01*
X262776D01*
Y-122450D01*
X261176D01*
Y-142135D02*
Y-140535D01*
X262776D01*
Y-142135D01*
X261176D01*
X241491Y-102765D02*
Y-101165D01*
X243091D01*
Y-102765D01*
X241491D01*
Y-122450D02*
Y-120850D01*
X243091D01*
Y-122450D01*
X241491D01*
Y-142135D02*
Y-140535D01*
X243091D01*
Y-142135D01*
X241491D01*
X202121Y-181505D02*
Y-179905D01*
X203721D01*
Y-181505D01*
X202121D01*
Y-201190D02*
Y-199590D01*
X203721D01*
Y-201190D01*
X202121D01*
X182436D02*
Y-199590D01*
X184036D01*
Y-201190D01*
X182436D01*
X162751Y-161820D02*
Y-160220D01*
X164351D01*
Y-161820D01*
X162751D01*
Y-201190D02*
Y-199590D01*
X164351D01*
Y-201190D01*
X162751D01*
X143066Y-142135D02*
Y-140535D01*
X144666D01*
Y-142135D01*
X143066D01*
Y-181505D02*
Y-179905D01*
X144666D01*
Y-181505D01*
X143066D01*
X123381Y-142135D02*
Y-140535D01*
X124981D01*
Y-142135D01*
X123381D01*
Y-181505D02*
Y-179905D01*
X124981D01*
Y-181505D01*
X123381D01*
Y-201190D02*
Y-199590D01*
X124981D01*
Y-201190D01*
X123381D01*
X103696Y-181505D02*
Y-179905D01*
X105296D01*
Y-181505D01*
X103696D01*
Y-201190D02*
Y-199590D01*
X105296D01*
Y-201190D01*
X103696D01*
X84011Y-142135D02*
Y-140535D01*
X85611D01*
Y-142135D01*
X84011D01*
Y-181505D02*
Y-179905D01*
X85611D01*
Y-181505D01*
X84011D01*
X64326Y-161820D02*
Y-160220D01*
X65926D01*
Y-161820D01*
X64326D01*
X44641Y-201190D02*
Y-199590D01*
X46241D01*
Y-201190D01*
X44641D01*
X24956D02*
Y-199590D01*
X26556D01*
Y-201190D01*
X24956D01*
X5271Y-122450D02*
Y-120850D01*
X6871D01*
Y-122450D01*
X5271D01*
X-14414Y-102765D02*
Y-101165D01*
X-12814D01*
Y-102765D01*
X-14414D01*
Y-122450D02*
Y-120850D01*
X-12814D01*
Y-122450D01*
X-14414D01*
X-34099D02*
Y-120850D01*
X-32499D01*
Y-122450D01*
X-34099D01*
Y-142135D02*
Y-140535D01*
X-32499D01*
Y-142135D01*
X-34099D01*
Y-161820D02*
Y-160220D01*
X-32499D01*
Y-161820D01*
X-34099D01*
Y-181505D02*
Y-179905D01*
X-32499D01*
Y-181505D01*
X-34099D01*
Y-201190D02*
Y-199590D01*
X-32499D01*
Y-201190D01*
X-34099D01*
X-53784Y-142135D02*
Y-140535D01*
X-52184D01*
Y-142135D01*
X-53784D01*
Y-161820D02*
Y-160220D01*
X-52184D01*
Y-161820D01*
X-53784D01*
Y-181505D02*
Y-179905D01*
X-52184D01*
Y-181505D01*
X-53784D01*
Y-201190D02*
Y-199590D01*
X-52184D01*
Y-201190D01*
X-53784D01*
X-93154Y-142135D02*
Y-140535D01*
X-91554D01*
Y-142135D01*
X-93154D01*
Y-201190D02*
Y-199590D01*
X-91554D01*
Y-201190D01*
X-93154D01*
X-112839Y-142135D02*
Y-140535D01*
X-111239D01*
Y-142135D01*
X-112839D01*
Y-181505D02*
Y-179905D01*
X-111239D01*
Y-181505D01*
X-112839D01*
Y-201190D02*
Y-199590D01*
X-111239D01*
Y-201190D01*
X-112839D01*
X-132524Y-142135D02*
Y-140535D01*
X-130924D01*
Y-142135D01*
X-132524D01*
Y-201190D02*
Y-199590D01*
X-130924D01*
Y-201190D01*
X-132524D01*
X-152209Y-142135D02*
Y-140535D01*
X-150609D01*
Y-142135D01*
X-152209D01*
Y-201190D02*
Y-199590D01*
X-150609D01*
Y-201190D01*
X-152209D01*
X-191579Y-142135D02*
Y-140535D01*
X-189980D01*
Y-142135D01*
X-191579D01*
Y-201190D02*
Y-199590D01*
X-189980D01*
Y-201190D01*
X-191579D01*
X-211265Y-142135D02*
Y-140535D01*
X-209665D01*
Y-142135D01*
X-211265D01*
Y-161820D02*
Y-160220D01*
X-209665D01*
Y-161820D01*
X-211265D01*
Y-181505D02*
Y-179905D01*
X-209665D01*
Y-181505D01*
X-211265D01*
Y-201190D02*
Y-199590D01*
X-209665D01*
Y-201190D01*
X-211265D01*
X23200Y-190800D02*
X23600D01*
X24000Y-190400D01*
X24400Y-190800D01*
X24800D01*
Y-190400D01*
X24400Y-190000D01*
X24800Y-189600D01*
Y-189200D01*
X24400D01*
X24000Y-189600D01*
X23600Y-189200D01*
X23200D01*
Y-189600D01*
X23600Y-190000D01*
X23200Y-190400D01*
Y-190800D01*
X73200Y-209300D02*
X73600D01*
X74000Y-208900D01*
X74400Y-209300D01*
X74800D01*
Y-208900D01*
X74400Y-208500D01*
X74800Y-208100D01*
Y-207700D01*
X74400D01*
X74000Y-208100D01*
X73600Y-207700D01*
X73200D01*
Y-208100D01*
X73600Y-208500D01*
X73200Y-208900D01*
Y-209300D01*
X-22800Y-142800D02*
X-22400D01*
X-22000Y-142400D01*
X-21600Y-142800D01*
X-21200D01*
Y-142400D01*
X-21600Y-142000D01*
X-21200Y-141600D01*
Y-141200D01*
X-21600D01*
X-22000Y-141600D01*
X-22400Y-141200D01*
X-22800D01*
Y-141600D01*
X-22400Y-142000D01*
X-22800Y-142400D01*
Y-142800D01*
X223700Y-137800D02*
X224100D01*
X224500Y-137400D01*
X224900Y-137800D01*
X225300D01*
Y-137400D01*
X224900Y-137000D01*
X225300Y-136600D01*
Y-136200D01*
X224900D01*
X224500Y-136600D01*
X224100Y-136200D01*
X223700D01*
Y-136600D01*
X224100Y-137000D01*
X223700Y-137400D01*
Y-137800D01*
X-139300Y55700D02*
X-138900D01*
X-138500Y56100D01*
X-138100Y55700D01*
X-137700D01*
Y56100D01*
X-138100Y56500D01*
X-137700Y56900D01*
Y57300D01*
X-138100D01*
X-138500Y56900D01*
X-138900Y57300D01*
X-139300D01*
Y56900D01*
X-138900Y56500D01*
X-139300Y56100D01*
Y55700D01*
D74*
X113300Y-197264D02*
G03*
X113300Y-197264I-800J0D01*
G01*
Y-167736D02*
G03*
X113300Y-167736I-800J0D01*
G01*
X218800Y-94500D02*
G03*
X218800Y-94500I-800J0D01*
G01*
X238800D02*
G03*
X238800Y-94500I-800J0D01*
G01*
Y-114500D02*
G03*
X238800Y-114500I-800J0D01*
G01*
X218800D02*
G03*
X218800Y-114500I-800J0D01*
G01*
X184300Y-145972D02*
G03*
X184300Y-145972I-800J0D01*
G01*
Y-175500D02*
G03*
X184300Y-175500I-800J0D01*
G01*
M02*
