M48
;Layer_Color=9474304
;FILE_FORMAT=2:5
INCH,LZ
;TYPE=PLATED
T1F00S00C0.01575
T2F00S00C0.03543
T3F00S00C0.03937
T4F00S00C0.04331
T5F00S00C0.05118
T6F00S00C0.05512
T7F00S00C0.05906
T8F00S00C0.07874
%
T01
X-0210465Y-020039
X-0190779
X-0151409
X-0131724
X-0210465Y-0180705
X-0112039
Y-020039
X-0092354
X-0052984
X-0033299
Y-0180705
X-0052984
X0025756
Y-020039
X0045441
X0084811
X0104496
X0124181
X0143866
X0163551
X0183236
X0163551Y-0180705
X0143866
X0124181
X0104496
X0084811
X0202921
Y-020039
X0242291Y-0141335
X0261976
Y-012165
X0242291
Y-0101965
X0261976Y-0062594
X0163551Y-016102
X0143866Y-0141335
X0124181
X0104496Y-016102
X0084811
Y-0141335
X0065126Y-016102
X0006071Y-012165
X-0013614
Y-0101965
X-0033299Y-012165
Y-0141335
Y-016102
X-0052984
Y-0141335
X-0092354
X-0112039
X-0131724
X-0151409
X-0190779
X-0210465
Y-016102
T02
X-0184685Y-0191185
X-0174685
X-0179685Y-0181185
X-019937Y-01715
X-016
X-01415Y-0171
Y-0181
X-0127
Y-0171
X-0103185Y-0171185
X-00835Y-018087
X-00885Y-019087
X-00785
X-0063815Y-0171185
X-00835Y-01615
X-00885Y-01515
X-00785
X-009163Y-00345
X-0131
X-01465
X-018587
X-0184685Y-0151815
X-0174685
X-0179685Y-0161815
T03
X02685Y-01605
Y-0101445
Y-00885
X02225Y-0079
X0257564Y-0021216
X02685Y-0029445
X0167992Y-0118967
X0102339Y-0135032
X0035535Y-012475
X-0022249Y-0089686
X-0062216Y-0035178
X-0095Y-00545
X-0175
X-01995Y-00425
X-0258555
X-0249685Y0000933
X-023
X-0210315
X-0168Y0063
X-0108945
X-0078281Y0030475
X-0067999Y0097279
X0251781Y0111241
X0267846Y0045588
T04
X01125Y-0197264
Y-0167736
X01835Y-01755
X0218Y-01145
Y-00945
X0238
Y-01145
X01835Y-0145972
T05
X-02545Y004913
Y00885
X-0203319
Y004913
T06
X0074Y-02085
X02245Y-0137
X-0022Y-0142
X-01385Y00565
X-01755Y01225
X-0266051
T07
X-01015Y-00155
X-0175319
Y002387
X-0156Y0122
X-00965Y0124
X-01015Y002387
T08
X-0095441Y0156
X-0123
X-0150559
M30
