G04*
G04 #@! TF.GenerationSoftware,Altium Limited,Altium Designer,22.4.2 (48)*
G04*
G04 Layer_Physical_Order=2*
G04 Layer_Color=16711680*
%FSLAX25Y25*%
%MOIN*%
G70*
G04*
G04 #@! TF.SameCoordinates,1553F913-36A2-4817-89BD-39564314B52C*
G04*
G04*
G04 #@! TF.FilePolarity,Positive*
G04*
G01*
G75*
%ADD49R,0.07087X0.04528*%
%ADD54C,0.03937*%
%ADD55C,0.01968*%
%ADD56C,0.07874*%
%ADD57C,0.05906*%
G04:AMPARAMS|DCode=58|XSize=78.74mil|YSize=78.74mil|CornerRadius=19.68mil|HoleSize=0mil|Usage=FLASHONLY|Rotation=0.000|XOffset=0mil|YOffset=0mil|HoleType=Round|Shape=RoundedRectangle|*
%AMROUNDEDRECTD58*
21,1,0.07874,0.03937,0,0,0.0*
21,1,0.03937,0.07874,0,0,0.0*
1,1,0.03937,0.01968,-0.01968*
1,1,0.03937,-0.01968,-0.01968*
1,1,0.03937,-0.01968,0.01968*
1,1,0.03937,0.01968,0.01968*
%
%ADD58ROUNDEDRECTD58*%
G04:AMPARAMS|DCode=59|XSize=98.43mil|YSize=98.43mil|CornerRadius=24.61mil|HoleSize=0mil|Usage=FLASHONLY|Rotation=90.000|XOffset=0mil|YOffset=0mil|HoleType=Round|Shape=RoundedRectangle|*
%AMROUNDEDRECTD59*
21,1,0.09843,0.04921,0,0,90.0*
21,1,0.04921,0.09843,0,0,90.0*
1,1,0.04921,0.02461,0.02461*
1,1,0.04921,0.02461,-0.02461*
1,1,0.04921,-0.02461,-0.02461*
1,1,0.04921,-0.02461,0.02461*
%
%ADD59ROUNDEDRECTD59*%
%ADD60R,0.07087X0.07087*%
%ADD61C,0.07087*%
%ADD62C,0.09843*%
G04:AMPARAMS|DCode=63|XSize=70.87mil|YSize=70.87mil|CornerRadius=17.72mil|HoleSize=0mil|Usage=FLASHONLY|Rotation=0.000|XOffset=0mil|YOffset=0mil|HoleType=Round|Shape=RoundedRectangle|*
%AMROUNDEDRECTD63*
21,1,0.07087,0.03543,0,0,0.0*
21,1,0.03543,0.07087,0,0,0.0*
1,1,0.03543,0.01772,-0.01772*
1,1,0.03543,-0.01772,-0.01772*
1,1,0.03543,-0.01772,0.01772*
1,1,0.03543,0.01772,0.01772*
%
%ADD63ROUNDEDRECTD63*%
G04:AMPARAMS|DCode=64|XSize=98.43mil|YSize=98.43mil|CornerRadius=24.61mil|HoleSize=0mil|Usage=FLASHONLY|Rotation=0.000|XOffset=0mil|YOffset=0mil|HoleType=Round|Shape=RoundedRectangle|*
%AMROUNDEDRECTD64*
21,1,0.09843,0.04921,0,0,0.0*
21,1,0.04921,0.09843,0,0,0.0*
1,1,0.04921,0.02461,-0.02461*
1,1,0.04921,-0.02461,-0.02461*
1,1,0.04921,-0.02461,0.02461*
1,1,0.04921,0.02461,0.02461*
%
%ADD64ROUNDEDRECTD64*%
%ADD65C,0.07874*%
%ADD66C,0.11811*%
%ADD67R,0.05906X0.05906*%
%ADD68C,0.05906*%
G04:AMPARAMS|DCode=69|XSize=118.11mil|YSize=118.11mil|CornerRadius=29.53mil|HoleSize=0mil|Usage=FLASHONLY|Rotation=0.000|XOffset=0mil|YOffset=0mil|HoleType=Round|Shape=RoundedRectangle|*
%AMROUNDEDRECTD69*
21,1,0.11811,0.05906,0,0,0.0*
21,1,0.05906,0.11811,0,0,0.0*
1,1,0.05906,0.02953,-0.02953*
1,1,0.05906,-0.02953,-0.02953*
1,1,0.05906,-0.02953,0.02953*
1,1,0.05906,0.02953,0.02953*
%
%ADD69ROUNDEDRECTD69*%
%ADD70C,0.06693*%
%ADD71C,0.04724*%
G36*
X276026Y-165483D02*
X275194D01*
X274917Y-164983D01*
X275276Y-164117D01*
X275428Y-162961D01*
Y-158039D01*
X275276Y-156883D01*
X274830Y-155806D01*
X274119Y-154880D01*
X273194Y-154171D01*
X272117Y-153724D01*
X270961Y-153572D01*
X266039D01*
X264883Y-153724D01*
X263806Y-154171D01*
X262880Y-154880D01*
X262171Y-155806D01*
X261724Y-156883D01*
X261572Y-158039D01*
Y-162961D01*
X261724Y-164117D01*
X262083Y-164983D01*
X261806Y-165483D01*
X220500D01*
X219537Y-165675D01*
X218720Y-166220D01*
X218175Y-167037D01*
X217983Y-168000D01*
Y-216971D01*
X-217983D01*
Y-168500D01*
X-218175Y-167537D01*
X-218720Y-166720D01*
X-219537Y-166175D01*
X-220500Y-165983D01*
X-221000D01*
Y-127000D01*
X-156139D01*
X-155948Y-127462D01*
X-172986Y-144500D01*
X-193500D01*
Y-145500D01*
Y-155500D01*
Y-158500D01*
X-193465D01*
Y-169019D01*
X-193965Y-169118D01*
X-194137Y-168703D01*
X-194783Y-167736D01*
X-195606Y-166913D01*
X-196573Y-166267D01*
X-197648Y-165821D01*
X-198788Y-165594D01*
X-199952D01*
X-201093Y-165821D01*
X-202167Y-166267D01*
X-203135Y-166913D01*
X-203957Y-167736D01*
X-204604Y-168703D01*
X-205049Y-169777D01*
X-205276Y-170918D01*
Y-172082D01*
X-205049Y-173223D01*
X-204604Y-174297D01*
X-203957Y-175265D01*
X-203135Y-176087D01*
X-202167Y-176733D01*
X-201093Y-177179D01*
X-199952Y-177406D01*
X-198788D01*
X-197648Y-177179D01*
X-196573Y-176733D01*
X-195606Y-176087D01*
X-194783Y-175265D01*
X-194137Y-174297D01*
X-193965Y-173882D01*
X-193465Y-173981D01*
Y-177000D01*
X-192253D01*
X-192031Y-177448D01*
X-192079Y-177511D01*
X-192377Y-178229D01*
X-192478Y-179000D01*
Y-186256D01*
X-192377Y-187027D01*
X-192079Y-187745D01*
X-191606Y-188362D01*
X-190387Y-189581D01*
X-190591Y-190603D01*
Y-191767D01*
X-190364Y-192908D01*
X-189918Y-193982D01*
X-189272Y-194950D01*
X-188450Y-195772D01*
X-187482Y-196418D01*
X-186408Y-196864D01*
X-185267Y-197091D01*
X-184103D01*
X-182963Y-196864D01*
X-181888Y-196418D01*
X-180921Y-195772D01*
X-180098Y-194950D01*
X-179935Y-194706D01*
X-179435D01*
X-179272Y-194950D01*
X-178450Y-195772D01*
X-177903Y-196138D01*
Y-199568D01*
X-177767Y-200596D01*
X-177371Y-201554D01*
X-176740Y-202376D01*
X-176212Y-202781D01*
X-175808Y-203308D01*
X-167808Y-211308D01*
X-166985Y-211939D01*
X-166028Y-212336D01*
X-165000Y-212471D01*
X67183D01*
X67884Y-213519D01*
X68981Y-214616D01*
X70270Y-215478D01*
X71703Y-216071D01*
X73225Y-216374D01*
X74775D01*
X76297Y-216071D01*
X77730Y-215478D01*
X79019Y-214616D01*
X80116Y-213519D01*
X80978Y-212230D01*
X81571Y-210797D01*
X81874Y-209276D01*
Y-207724D01*
X81571Y-206203D01*
X80978Y-204770D01*
X80116Y-203481D01*
X79019Y-202384D01*
X77730Y-201522D01*
X76297Y-200929D01*
X74775Y-200626D01*
X73225D01*
X71703Y-200929D01*
X70270Y-201522D01*
X68981Y-202384D01*
X67884Y-203481D01*
X67183Y-204529D01*
X-73855D01*
X-74529Y-203855D01*
Y-195251D01*
X-73913Y-194635D01*
X-73267Y-193667D01*
X-72821Y-192593D01*
X-72594Y-191452D01*
Y-190288D01*
X-72821Y-189147D01*
X-73267Y-188073D01*
X-73913Y-187106D01*
X-74735Y-186283D01*
X-75703Y-185637D01*
X-76777Y-185192D01*
X-77918Y-184965D01*
X-78549D01*
X-78593Y-184925D01*
X-78799Y-184465D01*
X-78267Y-183667D01*
X-77821Y-182593D01*
X-77595Y-181452D01*
Y-180288D01*
X-77821Y-179148D01*
X-78267Y-178073D01*
X-78649Y-177500D01*
X-78382Y-177000D01*
X-76500D01*
Y-157064D01*
X-75703Y-156733D01*
X-74735Y-156087D01*
X-73913Y-155264D01*
X-73267Y-154297D01*
X-72821Y-153223D01*
X-72594Y-152082D01*
Y-150918D01*
X-72821Y-149777D01*
X-73267Y-148703D01*
X-73913Y-147736D01*
X-74529Y-147119D01*
Y-138145D01*
X-69855Y-133471D01*
X-36145D01*
X-29628Y-139988D01*
X-29874Y-141225D01*
Y-142775D01*
X-29571Y-144297D01*
X-28978Y-145730D01*
X-28116Y-147019D01*
X-27019Y-148116D01*
X-25730Y-148978D01*
X-24297Y-149571D01*
X-22775Y-149874D01*
X-21225D01*
X-19703Y-149571D01*
X-18270Y-148978D01*
X-16981Y-148116D01*
X-15884Y-147019D01*
X-15022Y-145730D01*
X-14429Y-144297D01*
X-14126Y-142775D01*
Y-141225D01*
X-14429Y-139703D01*
X-15022Y-138270D01*
X-15884Y-136981D01*
X-16981Y-135884D01*
X-18270Y-135022D01*
X-19703Y-134429D01*
X-21225Y-134126D01*
X-22775D01*
X-24012Y-134372D01*
X-31692Y-126692D01*
X-32515Y-126061D01*
X-33472Y-125664D01*
X-34500Y-125529D01*
X-50168D01*
X-50359Y-125067D01*
X-21857Y-96565D01*
X-21270Y-96540D01*
X-19952Y-96217D01*
X-18722Y-95643D01*
X-17627Y-94841D01*
X-16711Y-93840D01*
X-16007Y-92680D01*
X-15542Y-91405D01*
X-15336Y-90063D01*
X-15337Y-90045D01*
X-14761Y-89469D01*
X-14311Y-89297D01*
X-13001Y-90372D01*
X-12328Y-90957D01*
X-11163Y-91880D01*
X-8035Y-94447D01*
X-7991Y-94471D01*
X-7958Y-94508D01*
X-1446Y-99337D01*
X21217Y-122000D01*
X28768D01*
X29055Y-122410D01*
X28829Y-123031D01*
X28622Y-124373D01*
X28681Y-125728D01*
X29004Y-127047D01*
X29578Y-128277D01*
X30380Y-129371D01*
X31381Y-130288D01*
X32541Y-130992D01*
X33816Y-131456D01*
X35158Y-131663D01*
X36514Y-131604D01*
X37832Y-131281D01*
X39062Y-130708D01*
X40156Y-129905D01*
X41073Y-128904D01*
X41777Y-127744D01*
X42241Y-126469D01*
X42448Y-125127D01*
X42389Y-123772D01*
X42077Y-122500D01*
X42103Y-122341D01*
X42320Y-122000D01*
X44259D01*
X50302Y-123833D01*
X50352Y-123838D01*
X50397Y-123860D01*
X58272Y-125832D01*
X58322Y-125835D01*
X58368Y-125854D01*
X66331Y-127437D01*
X66381D01*
X66428Y-127454D01*
X74458Y-128646D01*
X74508Y-128643D01*
X74556Y-128658D01*
X82635Y-129453D01*
X82685Y-129448D01*
X82734Y-129461D01*
X90842Y-129859D01*
X90892Y-129852D01*
X90941Y-129861D01*
X97054D01*
X97274Y-130361D01*
X96801Y-130878D01*
X96097Y-132038D01*
X95632Y-133313D01*
X95426Y-134655D01*
X95485Y-136011D01*
X95808Y-137329D01*
X96381Y-138559D01*
X97184Y-139653D01*
X98184Y-140570D01*
X99345Y-141274D01*
X100620Y-141738D01*
X101961Y-141945D01*
X103317Y-141886D01*
X104636Y-141563D01*
X105866Y-140990D01*
X106960Y-140187D01*
X107877Y-139186D01*
X108581Y-138026D01*
X109045Y-136751D01*
X109252Y-135409D01*
X109192Y-134054D01*
X108870Y-132735D01*
X108296Y-131505D01*
X107494Y-130411D01*
X106976Y-129937D01*
X107146Y-129466D01*
X107266Y-129461D01*
X107315Y-129448D01*
X107365Y-129453D01*
X115444Y-128658D01*
X115492Y-128643D01*
X115542Y-128646D01*
X123572Y-127454D01*
X123619Y-127437D01*
X123669D01*
X131632Y-125854D01*
X131678Y-125835D01*
X131728Y-125832D01*
X139603Y-123860D01*
X139648Y-123838D01*
X139698Y-123833D01*
X145741Y-122000D01*
X161804D01*
X162035Y-122494D01*
X162837Y-123588D01*
X163838Y-124505D01*
X164998Y-125209D01*
X166273Y-125673D01*
X167615Y-125880D01*
X168971Y-125820D01*
X170289Y-125498D01*
X171519Y-124924D01*
X172613Y-124122D01*
X173530Y-123121D01*
X174234Y-121961D01*
X174698Y-120686D01*
X174905Y-119344D01*
X174846Y-117988D01*
X174523Y-116670D01*
X173985Y-115515D01*
X187568Y-101932D01*
X191356Y-99401D01*
X191392Y-99365D01*
X191437Y-99344D01*
X197958Y-94508D01*
X197991Y-94471D01*
X198035Y-94447D01*
X204311Y-89297D01*
X204343Y-89258D01*
X204385Y-89233D01*
X210401Y-83781D01*
X210431Y-83740D01*
X210472Y-83713D01*
X216152Y-78033D01*
X216379Y-78086D01*
X216624Y-78253D01*
X216559Y-78676D01*
X216610Y-79841D01*
X216887Y-80974D01*
X217380Y-82031D01*
X218070Y-82972D01*
X218930Y-83760D01*
X219927Y-84365D01*
X220005Y-84393D01*
X222030Y-78829D01*
X224055Y-73265D01*
X223977Y-73236D01*
X222824Y-73059D01*
X221659Y-73110D01*
X221195Y-73224D01*
X220927Y-72774D01*
X221733Y-71885D01*
X221758Y-71842D01*
X221797Y-71811D01*
X226947Y-65535D01*
X226971Y-65491D01*
X227008Y-65457D01*
X231844Y-58937D01*
X231865Y-58891D01*
X231901Y-58856D01*
X234432Y-55068D01*
X234500Y-55000D01*
X234519Y-54938D01*
X236411Y-52106D01*
X236430Y-52060D01*
X236464Y-52023D01*
X240637Y-45059D01*
X240654Y-45012D01*
X240686Y-44973D01*
X241206Y-44000D01*
X276026D01*
Y-165483D01*
D02*
G37*
G36*
X-81522Y-133971D02*
X-81939Y-134514D01*
X-82336Y-135472D01*
X-82471Y-136500D01*
Y-144500D01*
X-161101D01*
X-161292Y-144038D01*
X-150725Y-133471D01*
X-81769D01*
X-81522Y-133971D01*
D02*
G37*
G36*
X-88351Y-177500D02*
X-88733Y-178073D01*
X-89179Y-179148D01*
X-89406Y-180288D01*
Y-181452D01*
X-89179Y-182593D01*
X-88733Y-183667D01*
X-88201Y-184465D01*
X-88407Y-184925D01*
X-88450Y-184965D01*
X-89082D01*
X-90223Y-185192D01*
X-91297Y-185637D01*
X-92264Y-186283D01*
X-93087Y-187106D01*
X-93612Y-187892D01*
X-115896D01*
X-120000Y-183788D01*
Y-177000D01*
X-104222D01*
X-103767Y-177091D01*
X-102603D01*
X-102148Y-177000D01*
X-88618D01*
X-88351Y-177500D01*
D02*
G37*
G36*
X-168106Y-183106D02*
X-168106Y-183106D01*
X-167489Y-183579D01*
X-166771Y-183877D01*
X-166000Y-183978D01*
X-147000D01*
Y-189000D01*
X-123212D01*
X-119236Y-192976D01*
X-118619Y-193449D01*
X-117901Y-193747D01*
X-117130Y-193848D01*
X-93612D01*
X-93087Y-194635D01*
X-92264Y-195457D01*
X-91297Y-196104D01*
X-90223Y-196549D01*
X-89082Y-196776D01*
X-87918D01*
X-86777Y-196549D01*
X-85703Y-196104D01*
X-84736Y-195457D01*
X-83913Y-194635D01*
X-83750Y-194391D01*
X-83250D01*
X-83087Y-194635D01*
X-82471Y-195251D01*
Y-204529D01*
X-163355D01*
X-169961Y-197923D01*
Y-194744D01*
X-169452Y-193982D01*
X-169007Y-192908D01*
X-168780Y-191767D01*
Y-190603D01*
X-169007Y-189462D01*
X-169452Y-188388D01*
X-170098Y-187420D01*
X-170921Y-186598D01*
X-171888Y-185952D01*
X-172962Y-185506D01*
X-174103Y-185280D01*
X-174735D01*
X-174778Y-185240D01*
X-174984Y-184780D01*
X-174452Y-183982D01*
X-174006Y-182908D01*
X-173779Y-181767D01*
Y-180603D01*
X-174006Y-179463D01*
X-174452Y-178388D01*
X-175045Y-177500D01*
X-174896Y-177000D01*
X-174212D01*
X-168106Y-183106D01*
D02*
G37*
%LPC*%
G36*
X273543Y-62736D02*
X269500D01*
Y-65500D01*
X273543D01*
Y-62736D01*
D02*
G37*
G36*
X268500D02*
X264457D01*
Y-65500D01*
X268500D01*
Y-62736D01*
D02*
G37*
G36*
X273543Y-66500D02*
X269500D01*
Y-69264D01*
X273543D01*
Y-66500D01*
D02*
G37*
G36*
X268500D02*
X264457D01*
Y-69264D01*
X268500D01*
Y-66500D01*
D02*
G37*
G36*
X224995Y-73607D02*
X223141Y-78701D01*
X228235Y-80555D01*
X228264Y-80477D01*
X228441Y-79324D01*
X228390Y-78159D01*
X228113Y-77026D01*
X227620Y-75969D01*
X226930Y-75028D01*
X226070Y-74240D01*
X225073Y-73635D01*
X224995Y-73607D01*
D02*
G37*
G36*
X222799Y-79641D02*
X220945Y-84735D01*
X221023Y-84764D01*
X222176Y-84941D01*
X223341Y-84890D01*
X224474Y-84613D01*
X225531Y-84120D01*
X226472Y-83430D01*
X227260Y-82570D01*
X227865Y-81573D01*
X227893Y-81495D01*
X222799Y-79641D01*
D02*
G37*
G36*
X238726Y-88988D02*
X237274D01*
X235873Y-89364D01*
X234616Y-90089D01*
X233590Y-91116D01*
X232864Y-92373D01*
X232488Y-93774D01*
Y-95226D01*
X232864Y-96627D01*
X233590Y-97884D01*
X234616Y-98910D01*
X235873Y-99636D01*
X237274Y-100012D01*
X238726D01*
X240127Y-99636D01*
X241384Y-98910D01*
X242411Y-97884D01*
X243136Y-96627D01*
X243512Y-95226D01*
Y-93774D01*
X243136Y-92373D01*
X242411Y-91116D01*
X241384Y-90089D01*
X240127Y-89364D01*
X238726Y-88988D01*
D02*
G37*
G36*
X269000Y-71483D02*
X267842Y-71597D01*
X266729Y-71935D01*
X265703Y-72483D01*
X264848Y-73185D01*
X263488D01*
Y-75243D01*
X263180Y-76260D01*
X263066Y-77417D01*
Y-82738D01*
X262880Y-82881D01*
X262171Y-83806D01*
X261724Y-84883D01*
X261572Y-86039D01*
Y-90961D01*
X261724Y-92117D01*
X262171Y-93194D01*
X262880Y-94120D01*
X263598Y-94670D01*
X263620Y-94717D01*
Y-95227D01*
X263598Y-95275D01*
X262880Y-95825D01*
X262171Y-96751D01*
X261724Y-97828D01*
X261572Y-98984D01*
Y-103905D01*
X261724Y-105062D01*
X262171Y-106139D01*
X262880Y-107064D01*
X263066Y-107207D01*
Y-113791D01*
X263180Y-114949D01*
X263488Y-115965D01*
Y-118024D01*
X264848D01*
X265703Y-118725D01*
X266729Y-119274D01*
X267842Y-119611D01*
X269000Y-119725D01*
X270158Y-119611D01*
X271271Y-119274D01*
X272297Y-118725D01*
X273152Y-118024D01*
X274512D01*
Y-115965D01*
X274820Y-114949D01*
X274934Y-113791D01*
Y-105887D01*
X275276Y-105062D01*
X275428Y-103905D01*
Y-98984D01*
X275276Y-97828D01*
X274830Y-96751D01*
X274119Y-95825D01*
X273402Y-95275D01*
X273380Y-95227D01*
Y-94717D01*
X273402Y-94670D01*
X274119Y-94120D01*
X274830Y-93194D01*
X275276Y-92117D01*
X275428Y-90961D01*
Y-86039D01*
X275276Y-84883D01*
X274934Y-84058D01*
Y-77417D01*
X274820Y-76260D01*
X274512Y-75243D01*
Y-73185D01*
X273152D01*
X272297Y-72483D01*
X271271Y-71935D01*
X270158Y-71597D01*
X269000Y-71483D01*
D02*
G37*
G36*
X218726Y-88988D02*
X217274D01*
X215873Y-89364D01*
X214616Y-90089D01*
X213589Y-91116D01*
X212864Y-92373D01*
X212488Y-93774D01*
Y-95226D01*
X212864Y-96627D01*
X213589Y-97884D01*
X214616Y-98910D01*
X214863Y-99053D01*
X214734Y-99536D01*
X206500D01*
X205215Y-99705D01*
X204018Y-100201D01*
X202990Y-100990D01*
X174444Y-129536D01*
X166000D01*
X164715Y-129705D01*
X163518Y-130201D01*
X162490Y-130990D01*
X130708Y-162773D01*
X114926D01*
X114628Y-162600D01*
X113226Y-162224D01*
X111774D01*
X110372Y-162600D01*
X109116Y-163326D01*
X108089Y-164352D01*
X107364Y-165609D01*
X106988Y-167011D01*
Y-168462D01*
X107364Y-169864D01*
X107536Y-170162D01*
Y-171559D01*
X106988D01*
Y-180024D01*
X109932D01*
X110018Y-180090D01*
X111215Y-180586D01*
X112500Y-180755D01*
X113785Y-180586D01*
X114982Y-180090D01*
X115068Y-180024D01*
X118012D01*
Y-172700D01*
X132764D01*
X134048Y-172531D01*
X135246Y-172035D01*
X136274Y-171246D01*
X168056Y-139464D01*
X176500D01*
X177785Y-139295D01*
X178982Y-138799D01*
X180010Y-138010D01*
X208556Y-109464D01*
X214734D01*
X214863Y-109947D01*
X214616Y-110090D01*
X213589Y-111116D01*
X212864Y-112373D01*
X212488Y-113774D01*
Y-115226D01*
X212864Y-116628D01*
X213589Y-117884D01*
X214616Y-118911D01*
X215873Y-119636D01*
X217274Y-120012D01*
X218726D01*
X220128Y-119636D01*
X221384Y-118911D01*
X222410Y-117884D01*
X223136Y-116628D01*
X223512Y-115226D01*
Y-113774D01*
X223136Y-112373D01*
X222410Y-111116D01*
X221384Y-110090D01*
X221137Y-109947D01*
X221266Y-109464D01*
X225944D01*
X232775Y-116294D01*
X232864Y-116628D01*
X233590Y-117884D01*
X234616Y-118911D01*
X235873Y-119636D01*
X237274Y-120012D01*
X238726D01*
X240127Y-119636D01*
X241384Y-118911D01*
X242411Y-117884D01*
X243136Y-116628D01*
X243512Y-115226D01*
Y-113774D01*
X243136Y-112373D01*
X242411Y-111116D01*
X241384Y-110090D01*
X240127Y-109364D01*
X239794Y-109275D01*
X231510Y-100990D01*
X230482Y-100201D01*
X229285Y-99705D01*
X228000Y-99536D01*
X221266D01*
X221137Y-99053D01*
X221384Y-98910D01*
X222410Y-97884D01*
X223136Y-96627D01*
X223512Y-95226D01*
Y-93774D01*
X223136Y-92373D01*
X222410Y-91116D01*
X221384Y-90089D01*
X220128Y-89364D01*
X218726Y-88988D01*
D02*
G37*
G36*
X273543Y-121945D02*
X269500D01*
Y-124709D01*
X273543D01*
Y-121945D01*
D02*
G37*
G36*
X268500D02*
X264457D01*
Y-124709D01*
X268500D01*
Y-121945D01*
D02*
G37*
G36*
X273543Y-125709D02*
X269500D01*
Y-128472D01*
X273543D01*
Y-125709D01*
D02*
G37*
G36*
X268500D02*
X264457D01*
Y-128472D01*
X268500D01*
Y-125709D01*
D02*
G37*
G36*
X225275Y-129126D02*
X223725D01*
X222203Y-129429D01*
X220770Y-130022D01*
X219481Y-130884D01*
X218384Y-131981D01*
X217522Y-133270D01*
X216929Y-134703D01*
X216626Y-136224D01*
Y-137776D01*
X216639Y-137841D01*
X189535Y-164945D01*
X189091D01*
X188888Y-164972D01*
X188512Y-164642D01*
Y-163268D01*
X177488D01*
Y-171732D01*
X177988D01*
Y-181012D01*
X189012D01*
Y-177008D01*
X191147Y-174873D01*
X191591D01*
X192876Y-174703D01*
X194073Y-174207D01*
X195101Y-173419D01*
X223659Y-144861D01*
X223725Y-144874D01*
X225275D01*
X226797Y-144571D01*
X228230Y-143978D01*
X229519Y-143116D01*
X230616Y-142019D01*
X231478Y-140730D01*
X232071Y-139297D01*
X232374Y-137776D01*
Y-136224D01*
X232071Y-134703D01*
X231478Y-133270D01*
X230616Y-131981D01*
X229519Y-130884D01*
X228230Y-130022D01*
X226797Y-129429D01*
X225275Y-129126D01*
D02*
G37*
G36*
X184098Y-141429D02*
X184000D01*
Y-145472D01*
X188043D01*
Y-145374D01*
X187734Y-144219D01*
X187136Y-143183D01*
X186290Y-142337D01*
X185254Y-141739D01*
X184098Y-141429D01*
D02*
G37*
G36*
X183000D02*
X182902D01*
X181746Y-141739D01*
X180710Y-142337D01*
X179865Y-143183D01*
X179266Y-144219D01*
X178957Y-145374D01*
Y-145472D01*
X183000D01*
Y-141429D01*
D02*
G37*
G36*
X188043Y-146472D02*
X184000D01*
Y-150516D01*
X184098D01*
X185254Y-150206D01*
X186290Y-149608D01*
X187136Y-148762D01*
X187734Y-147726D01*
X188043Y-146571D01*
Y-146472D01*
D02*
G37*
G36*
X183000D02*
X178957D01*
Y-146571D01*
X179266Y-147726D01*
X179865Y-148762D01*
X180710Y-149608D01*
X181746Y-150206D01*
X182902Y-150516D01*
X183000D01*
Y-146472D01*
D02*
G37*
G36*
X187543Y-152819D02*
X183500D01*
Y-155583D01*
X187543D01*
Y-152819D01*
D02*
G37*
G36*
X182500D02*
X178457D01*
Y-155583D01*
X182500D01*
Y-152819D01*
D02*
G37*
G36*
X187543Y-156583D02*
X183500D01*
Y-159346D01*
X187543D01*
Y-156583D01*
D02*
G37*
G36*
X182500D02*
X178457D01*
Y-159346D01*
X182500D01*
Y-156583D01*
D02*
G37*
G36*
X-63233Y-165279D02*
X-64397D01*
X-65538Y-165506D01*
X-66612Y-165952D01*
X-67580Y-166598D01*
X-68402Y-167420D01*
X-69048Y-168388D01*
X-69494Y-169463D01*
X-69721Y-170603D01*
Y-171767D01*
X-69494Y-172908D01*
X-69048Y-173982D01*
X-68402Y-174950D01*
X-67580Y-175772D01*
X-66612Y-176418D01*
X-65538Y-176864D01*
X-64397Y-177091D01*
X-63233D01*
X-62092Y-176864D01*
X-61018Y-176418D01*
X-60050Y-175772D01*
X-59228Y-174950D01*
X-58582Y-173982D01*
X-58136Y-172908D01*
X-57910Y-171767D01*
Y-170603D01*
X-58136Y-169463D01*
X-58582Y-168388D01*
X-59228Y-167420D01*
X-60050Y-166598D01*
X-61018Y-165952D01*
X-62092Y-165506D01*
X-63233Y-165279D01*
D02*
G37*
G36*
X117043Y-183945D02*
X113000D01*
Y-186709D01*
X117043D01*
Y-183945D01*
D02*
G37*
G36*
X112000D02*
X107957D01*
Y-186709D01*
X112000D01*
Y-183945D01*
D02*
G37*
G36*
X117043Y-187709D02*
X113000D01*
Y-190472D01*
X117043D01*
Y-187709D01*
D02*
G37*
G36*
X112000D02*
X107957D01*
Y-190472D01*
X112000D01*
Y-187709D01*
D02*
G37*
G36*
X117043Y-192720D02*
X113000D01*
Y-196764D01*
X117043D01*
Y-192720D01*
D02*
G37*
G36*
X112000D02*
X107957D01*
Y-196764D01*
X112000D01*
Y-192720D01*
D02*
G37*
G36*
X117043Y-197764D02*
X113000D01*
Y-201807D01*
X117043D01*
Y-197764D01*
D02*
G37*
G36*
X112000D02*
X107957D01*
Y-201807D01*
X112000D01*
Y-197764D01*
D02*
G37*
%LPD*%
D49*
X183000Y-156083D02*
D03*
Y-167500D02*
D03*
X269000Y-66000D02*
D03*
Y-77417D02*
D03*
Y-125209D02*
D03*
Y-113791D02*
D03*
X-174000Y1791D02*
D03*
Y13209D02*
D03*
X-101500Y-2209D02*
D03*
Y9209D02*
D03*
X112500Y-175791D02*
D03*
Y-187209D02*
D03*
D54*
X-71500Y-129500D02*
X-34500D01*
X-152370D02*
X-71500D01*
X-78500Y-151500D02*
Y-136500D01*
X-71500Y-129500D01*
X-174685Y-151815D02*
X-152370Y-129500D01*
X-34500D02*
X-22000Y-142000D01*
X-173932Y-199568D02*
Y-191938D01*
X-174685Y-191185D02*
X-173932Y-191938D01*
X-165000Y-208500D02*
X-75500D01*
X-173000Y-200500D02*
X-165000Y-208500D01*
X-75500D02*
X74000D01*
X-78500Y-205500D02*
X-75500Y-208500D01*
X-78500Y-205500D02*
Y-190870D01*
X183000Y-167500D02*
X183250Y-167750D01*
Y-175250D02*
Y-167750D01*
Y-175250D02*
X183500Y-175500D01*
X-173909Y13299D02*
Y26280D01*
X-100000Y-13000D02*
Y291D01*
Y11709D02*
Y26370D01*
X-174000Y13209D02*
X-173909Y13299D01*
Y-12910D02*
X-173819Y-13000D01*
X-174000Y1791D02*
X-173909Y1701D01*
Y-12910D02*
Y1701D01*
D55*
X-107500Y-151500D02*
X-88500D01*
X-127000Y-171000D02*
X-107500Y-151500D01*
X-149500Y-163000D02*
X-141500Y-171000D01*
X-166000Y-163000D02*
X-149500D01*
X-172000Y-169000D02*
X-166000Y-163000D01*
X-186500Y-169000D02*
X-172000D01*
X-189500Y-179000D02*
X-183437Y-172937D01*
X-174063D02*
X-166000Y-181000D01*
X-183437Y-172937D02*
X-174063D01*
X-166000Y-181000D02*
X-141500D01*
X-189500Y-186256D02*
X-184685Y-191071D01*
Y-191185D02*
Y-191071D01*
X-189500Y-186256D02*
Y-179000D01*
Y-166000D02*
X-186500Y-169000D01*
X-184685Y-151929D02*
Y-151815D01*
X-189500Y-156744D02*
X-184685Y-151929D01*
X-189500Y-166000D02*
Y-156744D01*
X-127000Y-181000D02*
X-117130Y-190870D01*
X-88500D01*
X-173932Y-199568D02*
X-173000Y-200500D01*
X-174685Y-198815D02*
X-173932Y-199568D01*
X-174685Y-198815D02*
Y-191185D01*
D56*
X-97500Y-56500D02*
X-92630Y-51630D01*
X-94750Y-54750D02*
X-91630Y-51630D01*
X-122000Y-81500D02*
X-95000Y-54500D01*
X-236000Y-81500D02*
X-122000D01*
X-258555Y-58945D02*
X-236000Y-81500D01*
X-258555Y-58945D02*
Y-42500D01*
X-138500Y-27000D02*
Y56500D01*
Y-27000D02*
X-131000Y-34500D01*
X-176500Y-54000D02*
Y-43870D01*
X-91630Y-51630D02*
Y-34500D01*
X-175000Y-57000D02*
Y-54500D01*
X-185870Y-34500D02*
X-176500Y-43870D01*
X-146500Y-34500D02*
X-131000D01*
X-257500Y-42500D02*
X-230000Y-15000D01*
X-258555Y-42500D02*
X-257500D01*
X-230000Y-15000D02*
Y933D01*
X-175319Y55681D02*
X-168000Y63000D01*
X-175319Y23870D02*
Y55681D01*
X-203319Y88500D02*
X-132000D01*
X-96500Y124000D01*
X-95441Y135559D02*
Y156000D01*
X-199500Y-42500D02*
X-193870D01*
X-185870Y-34500D01*
X-199500Y-42500D02*
Y-9882D01*
X-210315Y933D02*
X-199500Y-9882D01*
X-108945Y28483D02*
X-106113D01*
X-108945D02*
Y63000D01*
X-106113Y28483D02*
X-101500Y23870D01*
X-102278Y63000D02*
X-67999Y97279D01*
X-108945Y63000D02*
X-102278D01*
X-230000Y933D02*
Y5000D01*
X-254500Y29500D02*
X-230000Y5000D01*
X-254500Y29500D02*
Y49130D01*
X-210315Y5685D02*
X-203319Y12681D01*
Y49130D01*
X-210315Y933D02*
Y5685D01*
X-95970Y155471D02*
X-95441Y156000D01*
X-95970Y124530D02*
Y155471D01*
X-96500Y124000D02*
X-95970Y124530D01*
X-175250Y122250D02*
X-156250D01*
X-156000Y122000D01*
X-175500Y122500D02*
X-175250Y122250D01*
X-254500Y88500D02*
X-220500Y122500D01*
X-175500D01*
X-266051D02*
X-232551Y156000D01*
X-150559D01*
X268500Y-90000D02*
X269000Y-89500D01*
Y-77417D01*
Y-113791D02*
Y-102945D01*
X268500Y-102445D02*
X269000Y-102945D01*
X-173909Y26280D02*
X-173819Y26370D01*
X-100000Y-13000D02*
X-90130Y-22870D01*
Y-33630D02*
Y-22870D01*
X-184370Y-23551D02*
X-173819Y-13000D01*
X-184370Y-32000D02*
Y-23551D01*
D57*
X247541Y-124500D02*
X251000Y-121041D01*
X204972Y-124500D02*
X247541D01*
X251000Y-121041D02*
Y-112500D01*
X183500Y-145972D02*
X204972Y-124500D01*
X251000Y-112500D02*
Y-82459D01*
Y-112500D02*
X263709Y-125209D01*
X269000D01*
X228000Y-104500D02*
X238000Y-114500D01*
X206500Y-104500D02*
X228000D01*
X176500Y-134500D02*
X206500Y-104500D01*
X183500Y-175500D02*
X189091Y-169909D01*
X191591D01*
X224500Y-137000D01*
X183274Y-146198D02*
X183500Y-145972D01*
X166000Y-134500D02*
X176500D01*
X132764Y-167736D02*
X166000Y-134500D01*
X112500Y-167736D02*
X132764D01*
X113091Y-196673D02*
X123858D01*
X174333Y-146198D01*
X183274D01*
X112500Y-197264D02*
X113091Y-196673D01*
X222500Y-79000D02*
X223253Y-79753D01*
X183274Y-155809D02*
Y-146198D01*
X183000Y-156083D02*
X183274Y-155809D01*
X112500Y-197264D02*
Y-187209D01*
Y-175791D02*
Y-167736D01*
X222500Y-79000D02*
X247541D01*
X251000Y-82459D01*
X222500Y-79000D02*
X235500Y-66000D01*
X269000D01*
D58*
X-249685Y933D02*
D03*
X-230000D02*
D03*
X-210315D02*
D03*
X-199500Y-42500D02*
D03*
X-258555D02*
D03*
X-108945Y63000D02*
D03*
X-168000D02*
D03*
D59*
X268500Y-160500D02*
D03*
Y-101445D02*
D03*
Y-29445D02*
D03*
Y-88500D02*
D03*
D60*
X112500Y-197264D02*
D03*
X183500Y-175500D02*
D03*
D61*
X112500Y-167736D02*
D03*
X218000Y-94500D02*
D03*
X238000D02*
D03*
Y-114500D02*
D03*
X218000D02*
D03*
X183500Y-145972D02*
D03*
D62*
X251781Y111241D02*
D03*
X267846Y45588D02*
D03*
X257564Y-21216D02*
D03*
X222500Y-79000D02*
D03*
X167992Y-118967D02*
D03*
X102339Y-135032D02*
D03*
X35535Y-124750D02*
D03*
X-22249Y-89686D02*
D03*
X-62216Y-35178D02*
D03*
X-78281Y30475D02*
D03*
X-67999Y97279D02*
D03*
D63*
X-131000Y-34500D02*
D03*
X-91630D02*
D03*
X-146500D02*
D03*
X-185870D02*
D03*
D64*
X-175319Y23870D02*
D03*
Y-15500D02*
D03*
X-101500D02*
D03*
Y23870D02*
D03*
D65*
X-88500Y-151500D02*
D03*
X-78500D02*
D03*
X-83500Y-161500D02*
D03*
X-88500Y-190870D02*
D03*
X-78500D02*
D03*
X-83500Y-180870D02*
D03*
X-103185Y-171185D02*
D03*
X-63815D02*
D03*
X-184685Y-151815D02*
D03*
X-174685D02*
D03*
X-179685Y-161815D02*
D03*
X-184685Y-191185D02*
D03*
X-174685D02*
D03*
X-179685Y-181185D02*
D03*
X-199370Y-171500D02*
D03*
X-160000D02*
D03*
D66*
X-156000Y122000D02*
D03*
X-266051Y122500D02*
D03*
X-175500D02*
D03*
X-203319Y88500D02*
D03*
Y49130D02*
D03*
X-254500Y88500D02*
D03*
Y49130D02*
D03*
X-96500Y124000D02*
D03*
X74000Y-208500D02*
D03*
X-22000Y-142000D02*
D03*
X224500Y-137000D02*
D03*
X-138500Y56500D02*
D03*
D67*
X-141500Y-181000D02*
D03*
X-127000D02*
D03*
D68*
X-141500Y-171000D02*
D03*
X-127000D02*
D03*
D69*
X-123000Y156000D02*
D03*
X-95441D02*
D03*
X-150559D02*
D03*
D70*
X-175000Y-54500D02*
D03*
X-95000D02*
D03*
D71*
X261976Y-62594D02*
D03*
Y-121650D02*
D03*
Y-141335D02*
D03*
X242291Y-101965D02*
D03*
Y-121650D02*
D03*
Y-141335D02*
D03*
X202921Y-180705D02*
D03*
Y-200390D02*
D03*
X183236D02*
D03*
X163551Y-161020D02*
D03*
Y-180705D02*
D03*
Y-200390D02*
D03*
X143866Y-141335D02*
D03*
Y-180705D02*
D03*
Y-200390D02*
D03*
X124181Y-141335D02*
D03*
Y-180705D02*
D03*
Y-200390D02*
D03*
X104496Y-161020D02*
D03*
Y-180705D02*
D03*
Y-200390D02*
D03*
X84811Y-141335D02*
D03*
Y-161020D02*
D03*
Y-180705D02*
D03*
Y-200390D02*
D03*
X65126Y-161020D02*
D03*
X45441Y-200390D02*
D03*
X25756Y-180705D02*
D03*
Y-200390D02*
D03*
X6071Y-121650D02*
D03*
X-13614Y-101965D02*
D03*
Y-121650D02*
D03*
X-33299D02*
D03*
Y-141335D02*
D03*
Y-161020D02*
D03*
Y-180705D02*
D03*
Y-200390D02*
D03*
X-52984Y-141335D02*
D03*
Y-161020D02*
D03*
Y-180705D02*
D03*
Y-200390D02*
D03*
X-92354Y-141335D02*
D03*
Y-200390D02*
D03*
X-112039Y-141335D02*
D03*
Y-180705D02*
D03*
Y-200390D02*
D03*
X-131724Y-141335D02*
D03*
Y-200390D02*
D03*
X-151409Y-141335D02*
D03*
Y-200390D02*
D03*
X-190779Y-141335D02*
D03*
Y-200390D02*
D03*
X-210465Y-141335D02*
D03*
Y-161020D02*
D03*
Y-180705D02*
D03*
Y-200390D02*
D03*
M02*
