G04*
G04 #@! TF.GenerationSoftware,Altium Limited,Altium Designer,22.4.2 (48)*
G04*
G04 Layer_Color=16711935*
%FSLAX25Y25*%
%MOIN*%
G70*
G04*
G04 #@! TF.SameCoordinates,1553F913-36A2-4817-89BD-39564314B52C*
G04*
G04*
G04 #@! TF.FilePolarity,Negative*
G04*
G01*
G75*
%ADD24R,0.07887X0.05328*%
G04:AMPARAMS|DCode=29|XSize=86.74mil|YSize=86.74mil|CornerRadius=23.68mil|HoleSize=0mil|Usage=FLASHONLY|Rotation=0.000|XOffset=0mil|YOffset=0mil|HoleType=Round|Shape=RoundedRectangle|*
%AMROUNDEDRECTD29*
21,1,0.08674,0.03937,0,0,0.0*
21,1,0.03937,0.08674,0,0,0.0*
1,1,0.04737,0.01968,-0.01968*
1,1,0.04737,-0.01968,-0.01968*
1,1,0.04737,-0.01968,0.01968*
1,1,0.04737,0.01968,0.01968*
%
%ADD29ROUNDEDRECTD29*%
G04:AMPARAMS|DCode=30|XSize=106.42mil|YSize=106.42mil|CornerRadius=28.61mil|HoleSize=0mil|Usage=FLASHONLY|Rotation=90.000|XOffset=0mil|YOffset=0mil|HoleType=Round|Shape=RoundedRectangle|*
%AMROUNDEDRECTD30*
21,1,0.10642,0.04921,0,0,90.0*
21,1,0.04921,0.10642,0,0,90.0*
1,1,0.05721,0.02461,0.02461*
1,1,0.05721,0.02461,-0.02461*
1,1,0.05721,-0.02461,-0.02461*
1,1,0.05721,-0.02461,0.02461*
%
%ADD30ROUNDEDRECTD30*%
%ADD31R,0.07887X0.07887*%
%ADD32C,0.07887*%
%ADD33C,0.10642*%
G04:AMPARAMS|DCode=34|XSize=78.87mil|YSize=78.87mil|CornerRadius=21.72mil|HoleSize=0mil|Usage=FLASHONLY|Rotation=0.000|XOffset=0mil|YOffset=0mil|HoleType=Round|Shape=RoundedRectangle|*
%AMROUNDEDRECTD34*
21,1,0.07887,0.03543,0,0,0.0*
21,1,0.03543,0.07887,0,0,0.0*
1,1,0.04343,0.01772,-0.01772*
1,1,0.04343,-0.01772,-0.01772*
1,1,0.04343,-0.01772,0.01772*
1,1,0.04343,0.01772,0.01772*
%
%ADD34ROUNDEDRECTD34*%
G04:AMPARAMS|DCode=35|XSize=106.42mil|YSize=106.42mil|CornerRadius=28.61mil|HoleSize=0mil|Usage=FLASHONLY|Rotation=0.000|XOffset=0mil|YOffset=0mil|HoleType=Round|Shape=RoundedRectangle|*
%AMROUNDEDRECTD35*
21,1,0.10642,0.04921,0,0,0.0*
21,1,0.04921,0.10642,0,0,0.0*
1,1,0.05721,0.02461,-0.02461*
1,1,0.05721,-0.02461,-0.02461*
1,1,0.05721,-0.02461,0.02461*
1,1,0.05721,0.02461,0.02461*
%
%ADD35ROUNDEDRECTD35*%
%ADD36C,0.08674*%
%ADD37C,0.12611*%
%ADD38R,0.06706X0.06706*%
%ADD39C,0.06706*%
G04:AMPARAMS|DCode=40|XSize=126.11mil|YSize=126.11mil|CornerRadius=33.53mil|HoleSize=0mil|Usage=FLASHONLY|Rotation=0.000|XOffset=0mil|YOffset=0mil|HoleType=Round|Shape=RoundedRectangle|*
%AMROUNDEDRECTD40*
21,1,0.12611,0.05906,0,0,0.0*
21,1,0.05906,0.12611,0,0,0.0*
1,1,0.06706,0.02953,-0.02953*
1,1,0.06706,-0.02953,-0.02953*
1,1,0.06706,-0.02953,0.02953*
1,1,0.06706,0.02953,0.02953*
%
%ADD40ROUNDEDRECTD40*%
%ADD41C,0.07493*%
D24*
X183000Y-156083D02*
D03*
Y-167500D02*
D03*
X269000Y-66000D02*
D03*
Y-77417D02*
D03*
Y-125209D02*
D03*
Y-113791D02*
D03*
X-174000Y1791D02*
D03*
Y13209D02*
D03*
X-101500Y-2209D02*
D03*
Y9209D02*
D03*
X112500Y-175791D02*
D03*
Y-187209D02*
D03*
D29*
X-249685Y933D02*
D03*
X-230000D02*
D03*
X-210315D02*
D03*
X-199500Y-42500D02*
D03*
X-258555D02*
D03*
X-108945Y63000D02*
D03*
X-168000D02*
D03*
D30*
X268500Y-160500D02*
D03*
Y-101445D02*
D03*
Y-29445D02*
D03*
Y-88500D02*
D03*
D31*
X112500Y-197264D02*
D03*
X183500Y-175500D02*
D03*
D32*
X112500Y-167736D02*
D03*
X218000Y-94500D02*
D03*
X238000D02*
D03*
Y-114500D02*
D03*
X218000D02*
D03*
X183500Y-145972D02*
D03*
D33*
X251781Y111241D02*
D03*
X267846Y45588D02*
D03*
X257564Y-21216D02*
D03*
X222500Y-79000D02*
D03*
X167992Y-118967D02*
D03*
X102339Y-135032D02*
D03*
X35535Y-124750D02*
D03*
X-22249Y-89686D02*
D03*
X-62216Y-35178D02*
D03*
X-78281Y30475D02*
D03*
X-67999Y97279D02*
D03*
D34*
X-131000Y-34500D02*
D03*
X-91630D02*
D03*
X-146500D02*
D03*
X-185870D02*
D03*
D35*
X-175319Y23870D02*
D03*
Y-15500D02*
D03*
X-101500D02*
D03*
Y23870D02*
D03*
D36*
X-88500Y-151500D02*
D03*
X-78500D02*
D03*
X-83500Y-161500D02*
D03*
X-88500Y-190870D02*
D03*
X-78500D02*
D03*
X-83500Y-180870D02*
D03*
X-103185Y-171185D02*
D03*
X-63815D02*
D03*
X-184685Y-151815D02*
D03*
X-174685D02*
D03*
X-179685Y-161815D02*
D03*
X-184685Y-191185D02*
D03*
X-174685D02*
D03*
X-179685Y-181185D02*
D03*
X-199370Y-171500D02*
D03*
X-160000D02*
D03*
D37*
X-156000Y122000D02*
D03*
X-266051Y122500D02*
D03*
X-175500D02*
D03*
X-203319Y88500D02*
D03*
Y49130D02*
D03*
X-254500Y88500D02*
D03*
Y49130D02*
D03*
X-96500Y124000D02*
D03*
D38*
X-141500Y-181000D02*
D03*
X-127000D02*
D03*
D39*
X-141500Y-171000D02*
D03*
X-127000D02*
D03*
D40*
X-123000Y156000D02*
D03*
X-95441D02*
D03*
X-150559D02*
D03*
D41*
X-175000Y-54500D02*
D03*
X-95000D02*
D03*
M02*
